<svg xmlns="http://www.w3.org/2000/svg" xmlns:xlink="http://www.w3.org/1999/xlink" viewBox="0 0 242.02 80.9"><defs><style>.cls-1{fill:#fff;}.cls-2{fill:#232020;}.cls-3{opacity:0.1;}.cls-4{fill:url(#linear-gradient);}.cls-5{fill:#fecf0c;}.cls-6{opacity:0.62;fill:url(#linear-gradient-2);}.cls-7{fill:url(#linear-gradient-3);}.cls-8{fill:url(#linear-gradient-4);}.cls-9{fill:url(#linear-gradient-5);}.cls-10{fill:url(#linear-gradient-6);}.cls-11{fill:url(#linear-gradient-7);}</style><linearGradient id="linear-gradient" x1="87.58" y1="39.78" x2="149.31" y2="39.78" gradientUnits="userSpaceOnUse"><stop offset="0" stop-color="#fff140"/><stop offset="0.16" stop-color="#fce93e"/><stop offset="0.4" stop-color="#f3d53a"/><stop offset="0.69" stop-color="#e4b333"/><stop offset="1" stop-color="#d1872a"/></linearGradient><linearGradient id="linear-gradient-2" x1="99.86" y1="37.4" x2="110.42" y2="31.3" gradientUnits="userSpaceOnUse"><stop offset="0" stop-color="#fff140" stop-opacity="0"/><stop offset="0.1" stop-color="#fded3f" stop-opacity="0.04"/><stop offset="0.25" stop-color="#f9e33d" stop-opacity="0.14"/><stop offset="0.43" stop-color="#f1d139" stop-opacity="0.3"/><stop offset="0.64" stop-color="#e7b934" stop-opacity="0.53"/><stop offset="0.87" stop-color="#da9b2e" stop-opacity="0.81"/><stop offset="1" stop-color="#d1872a"/></linearGradient><linearGradient id="linear-gradient-3" x1="104.25" y1="30.84" x2="129.4" y2="45.36" gradientUnits="userSpaceOnUse"><stop offset="0" stop-color="#f7ec32"/><stop offset="0.13" stop-color="#f7eb32" stop-opacity="0.99"/><stop offset="0.23" stop-color="#f7e933" stop-opacity="0.95"/><stop offset="0.32" stop-color="#f7e534" stop-opacity="0.88"/><stop offset="0.4" stop-color="#f8df35" stop-opacity="0.79"/><stop offset="0.48" stop-color="#f8d837" stop-opacity="0.67"/><stop offset="0.56" stop-color="#f8cf3a" stop-opacity="0.52"/><stop offset="0.63" stop-color="#f9c53c" stop-opacity="0.35"/><stop offset="0.7" stop-color="#fab940" stop-opacity="0.15"/><stop offset="0.74" stop-color="#fab042" stop-opacity="0"/></linearGradient><linearGradient id="linear-gradient-4" x1="123.93" y1="35.97" x2="135.75" y2="35.97" gradientUnits="userSpaceOnUse"><stop offset="0" stop-color="#d9a528"/><stop offset="0.07" stop-color="#daa529" stop-opacity="0.97"/><stop offset="0.18" stop-color="#dda62b" stop-opacity="0.88"/><stop offset="0.31" stop-color="#e2a82f" stop-opacity="0.73"/><stop offset="0.45" stop-color="#e9aa34" stop-opacity="0.53"/><stop offset="0.6" stop-color="#f1ad3b" stop-opacity="0.27"/><stop offset="0.74" stop-color="#fab042" stop-opacity="0"/></linearGradient><linearGradient id="linear-gradient-5" x1="120.95" y1="23.29" x2="116.19" y2="18.53" gradientUnits="userSpaceOnUse"><stop offset="0" stop-color="#e0a328"/><stop offset="0.16" stop-color="#e0a328" stop-opacity="0.99"/><stop offset="0.29" stop-color="#e2a42a" stop-opacity="0.94"/><stop offset="0.42" stop-color="#e4a52c" stop-opacity="0.86"/><stop offset="0.53" stop-color="#e6a62e" stop-opacity="0.76"/><stop offset="0.64" stop-color="#eaa832" stop-opacity="0.62"/><stop offset="0.75" stop-color="#eeaa36" stop-opacity="0.45"/><stop offset="0.85" stop-color="#f4ad3c" stop-opacity="0.25"/><stop offset="0.95" stop-color="#f9b041" stop-opacity="0.02"/><stop offset="0.96" stop-color="#fab042" stop-opacity="0"/></linearGradient><linearGradient id="linear-gradient-6" x1="115.21" y1="15.67" x2="114.31" y2="17.23" gradientUnits="userSpaceOnUse"><stop offset="0" stop-color="#e0a328"/><stop offset="0.1" stop-color="#e1a329" stop-opacity="0.98"/><stop offset="0.23" stop-color="#e2a42a" stop-opacity="0.91"/><stop offset="0.37" stop-color="#e5a62d" stop-opacity="0.79"/><stop offset="0.53" stop-color="#e9a831" stop-opacity="0.64"/><stop offset="0.69" stop-color="#efaa37" stop-opacity="0.43"/><stop offset="0.85" stop-color="#f5ae3d" stop-opacity="0.19"/><stop offset="0.96" stop-color="#fab042" stop-opacity="0"/></linearGradient><linearGradient id="linear-gradient-7" x1="110.63" y1="60.8" x2="135.91" y2="67.57" gradientUnits="userSpaceOnUse"><stop offset="0.45" stop-color="#e0c822" stop-opacity="0"/><stop offset="0.5" stop-color="#e0bf23" stop-opacity="0.19"/><stop offset="0.55" stop-color="#dfb524" stop-opacity="0.41"/><stop offset="0.61" stop-color="#dfac25" stop-opacity="0.59"/><stop offset="0.67" stop-color="#dfa526" stop-opacity="0.74"/><stop offset="0.73" stop-color="#de9f26" stop-opacity="0.85"/><stop offset="0.79" stop-color="#de9b27" stop-opacity="0.94"/><stop offset="0.86" stop-color="#de9927" stop-opacity="0.98"/><stop offset="0.93" stop-color="#de9827"/></linearGradient></defs><g id="Layer_2" data-name="Layer 2"><g id="Layer_1-2" data-name="Layer 1"><rect class="cls-1" y="30.92" width="242.02" height="40.46" rx="8.28"/><path class="cls-2" d="M41.23,55.86V53.48h-12l.12,2.63-2,.81-.56-5.7H29.3c2.39-2.93,3.12-6.57,3.83-10.9l-.32-2.27h8.65l.68,13.17h1.35l-.41,4.64ZM40.1,51.22,39.16,40l-3.78.3c-.39,3.33-1.27,7.93-3.33,10.9Z"/><path class="cls-2" d="M102.8,56.92V53.48H89.46l.12,2.63-2,.81L87,51.22h2.5c2.4-2.93,3.13-6.57,3.83-10.9L93,38.05h8.64l.68,13.17h2.73l-.57,6Zm-2.51-5.7-1-11.45-3.78.55c-.39,3.33-1.26,7.93-3.33,10.9Z"/><path class="cls-2" d="M66.13,38l7,15.7H70.59l-2-4.32a22,22,0,0,0-3.91-.07,4.79,4.79,0,0,0-3.56,2.14l-1.36,2.25H57.37l6.79-15.43Zm1.71,9.68-2.6-6.37-3.35,8.44A5.75,5.75,0,0,1,65,47.86,8.71,8.71,0,0,1,67.84,47.7Z"/><path class="cls-2" d="M49.25,53.58H47V38.15H57.85v2.27h-8.6Z"/><path class="cls-2" d="M75.37,53.58V38.15H83.3a4.14,4.14,0,0,1,4.51,4.4A4.21,4.21,0,0,1,83.3,47H80.57a6,6,0,0,0-2.94.47v6.09Zm7.93-8.83a2,2,0,0,0,2.27-2.2c0-1.55-.78-2.13-2.27-2.13H77.63v4.95a5.6,5.6,0,0,1,2.94-.62Z"/><path class="cls-2" d="M19,37.35a11.49,11.49,0,0,0-4.15.7l.6,2.32A6,6,0,0,1,19,39.62c2.75,0,4,1.17,4.54,3.2h0a13.42,13.42,0,0,1,.23,4.33,5.74,5.74,0,0,1-.17,1.28h0a4,4,0,0,1-4.18,3.07c-1.91,0-4.11-.11-5.33-1.4l-.54,2.7a15,15,0,0,0,5.89,1c4.67,0,6.54-3.64,6.54-8.29S24.25,37.35,19,37.35Z"/><path class="cls-2" d="M25.06,46.71a7.22,7.22,0,0,1-4.5-.15A18.58,18.58,0,0,1,18,44.78a4.37,4.37,0,0,0-1.81-.36.28.28,0,0,1-.32-.24c0-.13,0-.21.13-.34a5.75,5.75,0,0,1,3.51.1,13.39,13.39,0,0,1,3,1.66,3.14,3.14,0,0,0,1.63.64,6.07,6.07,0,0,0,.69-.13c.21,0,.38,0,.41.14S25.33,46.5,25.06,46.71Z"/><g class="cls-3"><path class="cls-2" d="M145.32,36.05c.31-.22.6-.44.87-.67,1.65-1.41,2.56-5.08,2.6-5.24l.34-1.39-1.25.7-.2.12a6.6,6.6,0,0,0,1.4-2.1,22.37,22.37,0,0,0,.73-4.75l.13-2-.45.57c1.19-2.74.77-5.5,0-8.15l-.59-2-.6,2c0,.15-.08.3-.13.45A15.86,15.86,0,0,0,147,6.23,11.77,11.77,0,0,0,144,2.12a7.59,7.59,0,0,0-5-2,8,8,0,0,0-3,.64A5.17,5.17,0,0,0,133,4.2l-.55,2.52,1.63-2a5.53,5.53,0,0,1,3.44-1.84h.2a3.82,3.82,0,0,1,3,1.38c1.42,1.67,1.85,4.65,1.23,8.39-.42,2.51-2.1,4.76-5.14,6.89a48,48,0,0,1-12.3,5.65,3.48,3.48,0,0,0-1.84,1.27,3.6,3.6,0,0,1,.92-2.74,4.65,4.65,0,0,1,2.09-.91,6.09,6.09,0,0,0,1.91-.72,2.57,2.57,0,0,0,1.19-2.73,2.32,2.32,0,0,0-2.19-1.71l-2.06-.09a3.18,3.18,0,0,0-.49-.81,8,8,0,0,0-3.81-1.82,4.84,4.84,0,0,0-.91-.09,3.72,3.72,0,0,0-1.8.42,20.76,20.76,0,0,0-2.83-.85,2.81,2.81,0,0,0-.65-.07,6.14,6.14,0,0,0-3,1l-.51.35.34.51.41.61a4.05,4.05,0,0,0,2.93,2.47c1.71.54,1.74,1.12,1.73,1.35a2.38,2.38,0,0,1-.16.67h0v.06l0,.09h0v0l0,.05h0a3.1,3.1,0,0,1-.41.61,8.62,8.62,0,0,1-1.85,1.07l-.81.4-.31.16,0,0-.1.05a7.1,7.1,0,0,0-.94.57l-.75.45h.15a4.2,4.2,0,0,0-.89,1,8,8,0,0,0-.78-1.41,7.19,7.19,0,0,0-4.55-3l-1.34-.28c-3.82-.77-5.74-1.15-8-5.19a7.78,7.78,0,0,1-.52-6A5.69,5.69,0,0,1,97.1,6.63a3.16,3.16,0,0,1,1.42-.34,5.66,5.66,0,0,1,3.27,1.36l1.84,1.65L102.79,7c-.06-.15-1.37-3.69-4.62-3.69h-.11a7.78,7.78,0,0,0-6.06,3,12.18,12.18,0,0,0-3.18,8.37v0l-1,2c-1.44,2.95.15,7.73,1,9a2.69,2.69,0,0,0,.29.36v.69a14.55,14.55,0,0,0,1.19,5.67,3.9,3.9,0,0,0,1.12,1.33l.1.69c0,.13.49,3.19,2.73,4.6a9,9,0,0,0,1,.52v.24A4.86,4.86,0,0,0,96.78,43c1.63,1.65,4.33,2.49,8,2.49.69,0,1.42,0,2.18-.09h.25l.65,0c.44,0,.88,0,1.32,0h.69a16.07,16.07,0,0,1,2.45.33l.17,0h0a14.07,14.07,0,0,1,5.85,3,68.37,68.37,0,0,1,4.51,6c.82,1.53,1.5,2.9,2,4.07a11.47,11.47,0,0,1,.59,3.25,12.07,12.07,0,0,1-.91,3.89,6.1,6.1,0,0,1-4.1,3.06,2.72,2.72,0,0,1-.49,0,1.9,1.9,0,0,1-1.84-1.21c-.54-1.43.42-3.43,2.57-5.35l2.31-2.06-2.92,1a7.64,7.64,0,0,0-3.49,2.82,7.17,7.17,0,0,0-1.52,4.26,3.52,3.52,0,0,0,1.47,2.84,5.15,5.15,0,0,1-1,.1c-1.1,0-1.4-.44-1.56-1.26a3.92,3.92,0,0,1,.22-2,6.22,6.22,0,0,0,.3-1.6,2.27,2.27,0,0,0-.75-1.82,1,1,0,0,1-.37-.9c0-.75,1.26-1.51,1.68-1.72l3.7-1.82-4.07.65a4.63,4.63,0,0,0-3.16,2.12,2.72,2.72,0,0,0-.12,2.6c.13.32.18.47.11.68a1.58,1.58,0,0,1-1.65.93,2.9,2.9,0,0,1-.91-.14,2.2,2.2,0,0,1-1.42-1.29,2.94,2.94,0,0,1,0-2.29,4.12,4.12,0,0,1,.77-1,5.72,5.72,0,0,0,1.91-4,5.13,5.13,0,0,0-2-3.91l-2.48-1.85,1.58,2.67s1.1,1.9.32,3.42a5.07,5.07,0,0,1-1.18,1.35,9.22,9.22,0,0,0-1.69,1.86,6.11,6.11,0,0,0-.14,6.26,5,5,0,0,0,1.89,1.86l-.35,1.3a5.7,5.7,0,0,0,1.07,4.69,8.77,8.77,0,0,0,4.46,3.21l.16.06a23.06,23.06,0,0,0,7.25,1.34,18.62,18.62,0,0,0,7.92-1.83,12.5,12.5,0,0,0,5.41-4.42l1.49-.23a5.46,5.46,0,0,0,3.91-2.16,6.26,6.26,0,0,0,.91-3.15,13.69,13.69,0,0,0-1.9-7.81,17.6,17.6,0,0,0-2.82-3.41A23.56,23.56,0,0,1,129,50.77a5.24,5.24,0,0,1-.42-2.88,7.53,7.53,0,0,1,.53-1.77,4.63,4.63,0,0,1,2.38-2.34,9.16,9.16,0,0,1,1.76-.55c.91-.19,1.82-.29,2.17-.33.7-.06,1.35-.1,1.87-.13l.79-.05a7.83,7.83,0,0,0,4-2,9.25,9.25,0,0,0,2.79-3.61Zm-19-17.21a.66.66,0,0,1,.33.27s0,0,0,.09-.06.14-.28.14a1.88,1.88,0,0,1-1-.39,1.83,1.83,0,0,1-.57-.73Zm-14,54.84a1.57,1.57,0,0,1-1.22,1.15,1.81,1.81,0,0,1-.52.07,2.68,2.68,0,0,1-1.82-.82,5.11,5.11,0,0,1-1.36-2.48l-.26-1a12,12,0,0,0,2.09.6,6,6,0,0,1,2.3.83A1.74,1.74,0,0,1,112.37,73.68Zm21.23-1.26a9.88,9.88,0,0,0,.37-2.08c.15-1.43.31-2.45.92-2.57l.22,0a.59.59,0,0,1,.47.2,3.34,3.34,0,0,1,.39,2.29c-.13,1.22-1.24,2.2-2.42,3.07l-.46.34A8.37,8.37,0,0,0,133.6,72.42ZM90,19.49A4.77,4.77,0,0,1,89,16.92l0-.29A10.6,10.6,0,0,0,90,19.49Z"/><path class="cls-2" d="M111.79,58a1.44,1.44,0,0,0,.95,1,1.63,1.63,0,0,0,.62.14,1.13,1.13,0,0,0,1-.5,3.14,3.14,0,0,0-.06-2.75c-.46-1.21-2.12-1.92-3.08-2.24l-.5,1.12A2.58,2.58,0,0,1,111.94,56a1.83,1.83,0,0,1-.06,1A2.27,2.27,0,0,0,111.79,58Z"/></g><path class="cls-4" d="M106.92,44.07c-11.38,1-11.31-5-11.31-5a11.72,11.72,0,0,0,5.18.67s-4.49-.72-6.5-2-2.45-4.16-2.45-4.16a10.59,10.59,0,0,0,4.7,1.09s-4.9-1.09-6-3.29a14.05,14.05,0,0,1-1.13-5.39,13.91,13.91,0,0,0,5,2.5s-4.68-2.81-5.37-3.89-2.31-5.7-1-8.45c.2,4.54,6.7,7.07,6.7,7.07a11.06,11.06,0,0,1-5.66-9.35,11.58,11.58,0,0,1,3-8,7.14,7.14,0,0,1,5.6-2.79c2.92-.08,4.14,3.28,4.14,3.28S99.19,4,96.52,5.36s-4.38,6.56-2.28,10.31c2.67,4.76,5.05,4.77,9.75,5.77,5.18,1.11,5.54,6.38,5.54,6.38s-.59-2.47,2.64-4.13c2.06-1.07,3.14-1.42,3.61-2.27.81-1.44.92-2.63-1.66-3.44-2.28-.72-2.54-2.14-2.54-2.14l-.46-.7a4.94,4.94,0,0,1,3.17-.85,21.36,21.36,0,0,1,3,.93,3.24,3.24,0,0,1,2.53-.41,7.54,7.54,0,0,1,3.47,1.63c.52.58.61,1.72,1.46,2.3s1.84.67,2.16,0c.39-.8-.64-1.22-.64-1.22a1.76,1.76,0,0,1,1.62,1.23,2,2,0,0,1-.93,2.09c-1.08.72-3,.62-4.09,1.7-2.46,2.45,0,7.28,0,7.28s-1.69-3.7,1.6-4.79c10.32-3.41,16.93-7.51,17.85-13,1.18-7.09-1.44-10.63-5.06-10.49a6,6,0,0,0-3.89,2.07,4.57,4.57,0,0,1,2.55-3c5.09-2.09,8.77,1.8,10.23,5.17,2.36,5.46.71,12-1.17,13,1.79-.87,2.87-3.64,3.64-6.19,1.29,4.42,1.47,8.82-4.88,13.08A13.44,13.44,0,0,0,148.9,22a23.15,23.15,0,0,1-.7,4.56c-1.08,2.8-5.11,4.56-5.26,4.42,1.09.16,2.77-.43,4.95-1.67,0,0-.88,3.62-2.4,4.92-2.6,2.23-7.44,3.63-7.44,3.63a22.35,22.35,0,0,0,6-1.61c-.83,2.24-4,5-6.29,5.18-1.41.12-6.2.08-8.22,2a6.16,6.16,0,0,0-1.37,6.91c3,6.27,5.92,7.21,8,10.59a13,13,0,0,1,1.8,7.45c-.12,1.84-.59,4.16-4.29,4.73,1.28-.94,2.51-2,2.66-3.49s-.14-3.46-1.8-3.15-1.19,3.42-1.76,5.06c-.66,1.91-2.14,4.4-6.17,6.29-6.69,3.13-12,1.33-14.88.4-3.5-1.11-5.84-4.44-5.12-7.15.7,2.71,2.68,4.14,4.46,3.67s2.43-2.51.65-3.91-5-.52-6.71-3.4a5.54,5.54,0,0,1,.12-5.61c1-1.54,2.29-2,2.9-3.26,1-1.86-.34-4-.34-4a4.53,4.53,0,0,1,1.8,3.38c-.14,2.82-2,3.5-2.62,4.74a3.24,3.24,0,0,0,1.76,4.45c.94.31,2.83.33,3.34-1.19.36-1.06-.92-1.44,0-3.2a4,4,0,0,1,2.71-1.78s-2,1-2,2.25c-.08,1.54,1.14,1.17,1.11,2.74,0,1.22-.79,2.26-.51,3.67s1,2.53,4.94,1.21c-5.31-1.45-1.6-8.27,1.94-9.5-5,4.5-2.63,8.17.29,7.58,4.38-.88,8.13-6.51,3.12-14.75C122.33,52.24,118.44,43.08,106.92,44.07Z"/><path class="cls-5" d="M112.69,57.75c1,.44,1.25-.86.69-2.32-.31-.82-1.5-1.47-2.7-1.88C114,55.42,110.89,57,112.69,57.75Z"/><path class="cls-6" d="M119.62,48.53c-3-3.5-3.12-2.27-5.52-5.71a28,28,0,0,1-4-9.88c-.65-3.09-1.7-8.52-7.31-8.32-3.24.12-4.64-.74-8.66-5.89-2.09-2.67,3.08,13,3.08,13l4,7.4s1.18,5.37,6.35,4.93A15.08,15.08,0,0,1,119.62,48.53Z"/><path class="cls-7" d="M122.89,35.13c0-1.42-1.1-9.88-7.67-11.39-1.61-.38-5-.13-5.68,2.91s1.26,10.19,3,13.52a27.57,27.57,0,0,0,5.79,7.19c1.35,1.18,7,9.54,7,9.54Z"/><path class="cls-8" d="M135.28,41.55a15.63,15.63,0,0,0-4.33,1,5.58,5.58,0,0,0-3.26,4.57c-.5,2.84-3.26-5.78-3.57-7.76-.19-1.17-2.06-11.22,11.63-15"/><path class="cls-9" d="M119.11,14.85c3.67.55,4.07,1.59,4.38,2.64.24.83.39,2.05-1.71,4.22s-9.45,1.89-9.45,1.89c.41-.24,2.51-1,3.11-1.73a3.35,3.35,0,0,0,.85-1.93"/><path class="cls-10" d="M111.12,15.14a47.24,47.24,0,0,1,5.48,1.56c1.78.72,1.68,1.64,1.19,2a3.38,3.38,0,0,1-.62.37"/><path class="cls-11" d="M122.2,50.73s6.26,6.24,8.69,11c1.36,2.64.79,7.43-.23,10-1.68,4.17-11,7.86-15.77,1.51l5.2-2.74s3.8-2.62,4.61-4.55,1.85-5.08.52-8.08-3.32-6.43-3.32-6.43Z"/><path class="cls-2" d="M167.49,28.49a8.48,8.48,0,0,1-1.65,5.05,23.6,23.6,0,0,1-2.85,2.3,5.25,5.25,0,0,0-1,1.92c0,.2-.12.29-.37.29s-.25,0-.34-.26a6.78,6.78,0,0,1,1.26-3.94A15.94,15.94,0,0,1,165.41,31a3.77,3.77,0,0,0,1.26-1.64c.06-.29.05-.57.08-.83s.16-.41.29-.41S167.35,28.11,167.49,28.49Z"/><path class="cls-2" d="M144.71,38l7,15.7h-2.53l-1.94-4.32a22.05,22.05,0,0,0-3.92-.07,4.81,4.81,0,0,0-3.56,2.14l-1.35,2.25H136l6.79-15.43Zm1.7,9.68-2.59-6.37-3.35,8.44a5.75,5.75,0,0,1,3.1-1.91A8.65,8.65,0,0,1,146.41,47.7Z"/><polygon class="cls-2" points="169.62 38.15 171.86 38.15 171.86 53.58 169.62 53.58 169.62 40.23 156.56 53.58 154.33 53.58 154.33 38.15 156.56 38.15 156.56 50.04 169.62 38.15"/><path class="cls-2" d="M191.34,51.32l-2.48,5.51h-1.65l.59-3.25H175.6V38.15h2.23l-.46,13.17h8.72V38.15h2.25V51.32Z"/><path class="cls-2" d="M222.73,53.9H209.37V38.47h13.36c2.6,0,4.55,1.51,4.55,4.22a3.48,3.48,0,0,1-1.39,3,4.13,4.13,0,0,1,2.13,4C228,52.74,225.29,53.9,222.73,53.9ZM211.6,45.46c.93-.54,3.38-.62,4.4-.62h6.73A2,2,0,0,0,225,42.71c0-1.47-1-2-2.29-2H211.6Zm0,6.18H223c1.27,0,2.84-.7,2.84-2.25,0-1.8-1.53-2.61-3-2.61l-6.9-.2a12.71,12.71,0,0,0-4.27.67Z"/><path class="cls-2" d="M132.66,45.37a3.12,3.12,0,0,0,1.39-2.92c0-1.78-1-4.93-5.28-4.93a7.21,7.21,0,0,0-3.86,1l.64,2.37a4.63,4.63,0,0,1,3.22-1.52c1.35,0,3.41,1.11,3.41,2.8,0,1.43-.5,2.63-2.68,2.34l-2.78-.24L126.65,46l3.3.15a2.56,2.56,0,0,1,2.61,2.9c0,1.4-1,2.62-4.05,2.62a5.83,5.83,0,0,1-4.66-1.92l-.53,2.69a10.29,10.29,0,0,0,5.19,1.49c4.59,0,6.28-2.36,6.28-4.86A3.91,3.91,0,0,0,132.66,45.37Z"/><polygon class="cls-2" points="196.19 52.11 196.19 46.71 196.2 46.71 196.2 45.61 196.19 45.61 196.19 40.31 205.86 40.75 205.86 38.48 193.94 38.48 193.94 53.91 206.77 53.91 206.77 51.65 196.19 52.11"/><path class="cls-2" d="M195.2,46.64c0-.11.2-.19.41-.15a6.26,6.26,0,0,0,.7.13A3.13,3.13,0,0,0,198,46,14.08,14.08,0,0,1,201,44.3a5.86,5.86,0,0,1,3.54-.1c.15.13.16.22.13.34s-.16.25-.33.24a4.51,4.51,0,0,0-1.82.37A19.86,19.86,0,0,1,200,46.94a7.2,7.2,0,0,1-4.54.15C195.13,46.88,195.17,46.75,195.2,46.64Z"/><path class="cls-2" d="M13.62,61.84c0-.46,0-.92,0-1.37h.58v3c0,.46,0,.91,0,1.36h-.62c0-.58,0-1,0-1.36ZM17,64.77l-.16,0a1,1,0,0,1-.45,0c-.34-.16-.55-.56-.85-1.31a2.44,2.44,0,0,0-.66-1,1,1,0,0,0-.46-.17l-.06-.23.57-.7a8.62,8.62,0,0,0,.65-.89h.55c-.14.14-.34.36-.61.67l-.81,1a1.49,1.49,0,0,1,.64.26,2.59,2.59,0,0,1,.46.48,1.62,1.62,0,0,1,.16.28,1.52,1.52,0,0,1,.13.25c0,.06.07.14.12.26l.09.22a1.57,1.57,0,0,0,.37.69.78.78,0,0,0,.33.16Z"/><path class="cls-2" d="M25.13,64.08a4.67,4.67,0,0,0,.22-.71,13,13,0,0,0,.21-2.65c-.2,0-.39,0-.39,0v-.27h3c0,.28,0,.83,0,1.66v1.29c0,.62,0,1.08,0,1.37h-.58v-3c0-.1,0-.46,0-1.1-.25,0-.83,0-1.74,0,0,2.34-.38,4.2-1.23,4.18a.57.57,0,0,1-.38-.13l.07-.26,0,0a.48.48,0,0,0,.23.06C24.8,64.58,25,64.44,25.13,64.08Z"/><path class="cls-2" d="M39.79,63.43a13,13,0,0,0,.05,1.36h-.62c0-.29,0-.74,0-1.36V61c-.24.38-.57.89-1,1.54s-.76,1.18-1,1.6l-.41.64h-.58c0-.29.05-.75.05-1.37V61.83c0-.66,0-1.11,0-1.36h.62a11.47,11.47,0,0,0,0,1.36v2.41l1.11-1.67c.16-.26.36-.55.57-.89.44-.69.74-1.15.77-1.21h.58a11.65,11.65,0,0,0-.05,1.37Z"/><path class="cls-2" d="M51.41,63.42c0,.46,0,.92.05,1.37h-.59c0-.11,0-.32,0-.63s0-.52,0-.64v-.86c-.19,0-.6,0-1.24,0l-1.22,0v.78c0,.46,0,.91,0,1.36h-.62c0-.58,0-1,0-1.36V61.84c0-.46,0-.92,0-1.37h.59c0,.11,0,.33,0,.64v1.26c.19,0,.6,0,1.22,0s1.05,0,1.24,0v-.54c0-.46,0-.91,0-1.36h.62c0,.39-.05.84-.05,1.36Z"/><path class="cls-2" d="M63,63.43c0,.66,0,1.11,0,1.36h-.62c0-.29,0-.74,0-1.36V61l-1,1.54c-.41.65-.76,1.18-1,1.6l-.41.64h-.58a11.67,11.67,0,0,0,.05-1.37V61.83c0-.66,0-1.11,0-1.36h.62a11.47,11.47,0,0,0-.05,1.36v2.41l1.11-1.67c.16-.26.36-.55.57-.89l.78-1.21h.57a12.63,12.63,0,0,0,0,1.37Z"/><path class="cls-2" d="M73.33,63a2.67,2.67,0,0,1-.62.15,5,5,0,0,1-.72.06,1,1,0,0,1-.9-.41,1.5,1.5,0,0,1-.21-.76v-.46c0-.52,0-.94,0-1.06v-.1h.57c0,.26,0,.66,0,1.21v.27q0,1,.81,1a3.05,3.05,0,0,0,1.14-.2v-.89c0-.66,0-1.12,0-1.37h.61c0,.25,0,.71,0,1.37v1.59c0,.66,0,1.11,0,1.36h-.61c0-.25,0-.7,0-1.36Z"/><path class="cls-2" d="M81.91,64.79c0-.73,0-1.19,0-1.36V61.84c0-.46,0-.92,0-1.37h2v.34c-.48-.05-.94-.07-1.39-.08v1.72c.56,0,1,0,1.18,0v.34c-.14,0-.53,0-1.18,0v1.82c.44,0,.9,0,1.39-.08v.34Z"/><path class="cls-2" d="M94.65,64.69a2.21,2.21,0,0,1-1.05.19A2.28,2.28,0,0,1,92,64.26a2.3,2.3,0,0,1,1.7-3.89,2.54,2.54,0,0,1,1,.18l-.09.36a1.54,1.54,0,0,0-.89-.27,1.81,1.81,0,0,0-1.82,2A2.19,2.19,0,0,0,92.35,64a1.57,1.57,0,0,0,1.25.58,1.52,1.52,0,0,0,1-.28Z"/><path class="cls-2" d="M102.45,61.84c0-.46,0-.92,0-1.37H103v3c0,.46,0,.91,0,1.36h-.62c0-.58,0-1,0-1.36Zm3.39,2.93-.16,0a1,1,0,0,1-.44,0c-.34-.16-.55-.56-.86-1.31a2.44,2.44,0,0,0-.65-1,1,1,0,0,0-.46-.17l-.07-.23.58-.7a8.43,8.43,0,0,0,.64-.89H105c-.14.14-.34.36-.6.67l-.82,1a1.53,1.53,0,0,1,.65.26,2.24,2.24,0,0,1,.45.48,1.56,1.56,0,0,1,.17.28l.13.25c0,.06.07.14.11.26a1.39,1.39,0,0,1,.09.22,1.47,1.47,0,0,0,.38.69.74.74,0,0,0,.32.16Z"/><path class="cls-2" d="M117,63.43c0,.66,0,1.11,0,1.36h-.62a11.47,11.47,0,0,0,.05-1.36V61c-.24.38-.58.89-1,1.54s-.77,1.18-1.05,1.6l-.41.64h-.58a11.67,11.67,0,0,0,0-1.37V61.83c0-.66,0-1.11,0-1.36h.62c0,.29,0,.74,0,1.36v2.41l1.12-1.67c.16-.26.35-.55.57-.89.44-.69.74-1.15.77-1.21h.58a9.69,9.69,0,0,0,0,1.37Z"/><path class="cls-2" d="M128.66,63.43c0,.66,0,1.11,0,1.36h-.62a11.47,11.47,0,0,0,0-1.36V61c-.24.38-.58.89-1,1.54l-1,1.6-.41.64h-.57c0-.29,0-.75,0-1.37V61.83c0-.66,0-1.11,0-1.36h.62c0,.29,0,.74,0,1.36v2.41l1.12-1.67c.16-.26.35-.55.57-.89.44-.69.74-1.15.77-1.21h.58a9.69,9.69,0,0,0-.05,1.37Zm-2.4-4.22.21,0a.46.46,0,0,0,.51.44.44.44,0,0,0,.5-.44l.22,0a.72.72,0,1,1-1.44,0Z"/><path class="cls-2" d="M145.53,61.84c0-.46,0-.92-.05-1.37h3.61c0,.45-.05.91-.05,1.37v1.59c0,.52,0,1,0,1.36h-.62a13.58,13.58,0,0,0,0-1.65V60.81a5.88,5.88,0,0,0-1.19-.08h-.08a5.54,5.54,0,0,0-1.19.08v2.62c0,.46,0,.91,0,1.36h-.62c0-.58.05-1,.05-1.36Z"/><path class="cls-2" d="M160.16,64.69a2.23,2.23,0,0,1-1,.19,2.3,2.3,0,0,1-1.66-.62,2.21,2.21,0,0,1-.64-1.65,2.16,2.16,0,0,1,2.35-2.24,2.45,2.45,0,0,1,1,.18l-.08.36a1.59,1.59,0,0,0-.89-.27,1.81,1.81,0,0,0-1.82,2,2.13,2.13,0,0,0,.47,1.42,1.57,1.57,0,0,0,1.25.58,1.54,1.54,0,0,0,1-.28Z"/><path class="cls-2" d="M171.47,63.43c0,.66,0,1.11,0,1.36h-.62a11.47,11.47,0,0,0,.05-1.36V61c-.24.38-.58.89-1,1.54s-.77,1.18-1.05,1.6l-.41.64h-.58a11.67,11.67,0,0,0,0-1.37V61.83c0-.66,0-1.11,0-1.36h.62c0,.29-.05.74-.05,1.36v2.41l1.12-1.67c.16-.26.35-.55.57-.89l.77-1.21h.58a9.69,9.69,0,0,0-.05,1.37Z"/><path class="cls-2" d="M181.7,63.43c.32.52.62,1,.89,1.36h-.72a13.48,13.48,0,0,0-.87-1.55l-.21-.35-.36.54-.86,1.36h-.43l1-1.36.52-.8-.48-.8c-.39-.63-.68-1.08-.89-1.36H180c.2.4.45.85.75,1.36l.24.39.26-.39.87-1.37h.42c-.2.27-.52.72-.95,1.37l-.43.66Z"/><path class="cls-2" d="M190.6,64.26a2.31,2.31,0,0,1,0-3.26,2.52,2.52,0,0,1,3.33,0,2.08,2.08,0,0,1,.68,1.61,2.16,2.16,0,0,1-.68,1.66,2.36,2.36,0,0,1-1.65.62A2.39,2.39,0,0,1,190.6,64.26Zm.43-.2a1.62,1.62,0,0,0,1.26.57,1.66,1.66,0,0,0,1.24-.58,2.07,2.07,0,0,0,.51-1.44,2.1,2.1,0,0,0-.53-1.41,1.55,1.55,0,0,0-1.25-.56,1.63,1.63,0,0,0-1.26.58,2.11,2.11,0,0,0-.49,1.44A2.09,2.09,0,0,0,191,64.06Z"/><path class="cls-2" d="M202.81,64.08a3.82,3.82,0,0,0,.21-.71,12.22,12.22,0,0,0,.22-2.65c-.2,0-.39,0-.39,0v-.27h3c0,.28,0,.83,0,1.66v1.29c0,.62,0,1.08.05,1.37h-.58v-3c0-.1,0-.46,0-1.1-.24,0-.82,0-1.74,0,0,2.34-.37,4.2-1.22,4.18a.55.55,0,0,1-.38-.13l.07-.26,0,0a.48.48,0,0,0,.23.06C202.48,64.58,202.64,64.44,202.81,64.08Z"/><path class="cls-2" d="M214.3,64.26a2.09,2.09,0,0,1-.68-1.61A2.13,2.13,0,0,1,214.3,61a2.53,2.53,0,0,1,3.34,0,2.11,2.11,0,0,1,.67,1.61,2.13,2.13,0,0,1-.68,1.66,2.53,2.53,0,0,1-3.33,0Zm.42-.2a1.62,1.62,0,0,0,1.26.57,1.68,1.68,0,0,0,1.25-.58,2.06,2.06,0,0,0,.5-1.44,2.09,2.09,0,0,0-.52-1.41,1.57,1.57,0,0,0-1.26-.56,1.65,1.65,0,0,0-1.26.58,2.28,2.28,0,0,0,0,2.84Z"/><path class="cls-2" d="M226.06,61.83c0-.66,0-1.11,0-1.36h2v.34a8.16,8.16,0,0,0-1.41-.08c0,.23,0,.6,0,1.1v1.35c0,.23,0,.48,0,.74,0,.53,0,.87,0,.87H226c0-.25,0-.71,0-1.37Z"/></g></g></svg>