<svg xmlns="http://www.w3.org/2000/svg" xmlns:xlink="http://www.w3.org/1999/xlink" viewBox="0 0 2419.26 378.9"><defs><style>.cls-1{fill:#232020;}.cls-2{opacity:0.1;}.cls-3{fill:url(#linear-gradient);}.cls-4{fill:#fecf0c;}.cls-5{opacity:0.62;fill:url(#linear-gradient-2);}.cls-6{fill:url(#linear-gradient-3);}.cls-7{fill:url(#linear-gradient-4);}.cls-8{fill:url(#linear-gradient-5);}.cls-9{fill:url(#linear-gradient-6);}.cls-10{fill:url(#linear-gradient-7);}</style><linearGradient id="linear-gradient" x1="1.3" y1="210.74" x2="253.76" y2="210.74" gradientUnits="userSpaceOnUse"><stop offset="0" stop-color="#fff140"/><stop offset="0.16" stop-color="#fce93e"/><stop offset="0.4" stop-color="#f3d53a"/><stop offset="0.69" stop-color="#e4b333"/><stop offset="1" stop-color="#d1872a"/></linearGradient><linearGradient id="linear-gradient-2" x1="51.53" y1="201.02" x2="94.73" y2="176.08" gradientUnits="userSpaceOnUse"><stop offset="0" stop-color="#fff140" stop-opacity="0"/><stop offset="0.1" stop-color="#fded3f" stop-opacity="0.04"/><stop offset="0.25" stop-color="#f9e33d" stop-opacity="0.14"/><stop offset="0.43" stop-color="#f1d139" stop-opacity="0.3"/><stop offset="0.64" stop-color="#e7b934" stop-opacity="0.53"/><stop offset="0.87" stop-color="#da9b2e" stop-opacity="0.81"/><stop offset="1" stop-color="#d1872a"/></linearGradient><linearGradient id="linear-gradient-3" x1="69.49" y1="174.2" x2="172.32" y2="233.57" gradientUnits="userSpaceOnUse"><stop offset="0" stop-color="#f7ec32"/><stop offset="0.13" stop-color="#f7eb32" stop-opacity="0.99"/><stop offset="0.23" stop-color="#f7e933" stop-opacity="0.95"/><stop offset="0.32" stop-color="#f7e534" stop-opacity="0.88"/><stop offset="0.4" stop-color="#f8df35" stop-opacity="0.79"/><stop offset="0.48" stop-color="#f8d837" stop-opacity="0.67"/><stop offset="0.56" stop-color="#f8cf3a" stop-opacity="0.52"/><stop offset="0.63" stop-color="#f9c53c" stop-opacity="0.35"/><stop offset="0.7" stop-color="#fab940" stop-opacity="0.15"/><stop offset="0.74" stop-color="#fab042" stop-opacity="0"/></linearGradient><linearGradient id="linear-gradient-4" x1="149.97" y1="195.16" x2="198.29" y2="195.16" gradientUnits="userSpaceOnUse"><stop offset="0" stop-color="#d9a528"/><stop offset="0.07" stop-color="#daa529" stop-opacity="0.97"/><stop offset="0.18" stop-color="#dda62b" stop-opacity="0.88"/><stop offset="0.31" stop-color="#e2a82f" stop-opacity="0.73"/><stop offset="0.45" stop-color="#e9aa34" stop-opacity="0.53"/><stop offset="0.6" stop-color="#f1ad3b" stop-opacity="0.27"/><stop offset="0.74" stop-color="#fab042" stop-opacity="0"/></linearGradient><linearGradient id="linear-gradient-5" x1="137.8" y1="143.32" x2="118.31" y2="123.83" gradientUnits="userSpaceOnUse"><stop offset="0" stop-color="#e0a328"/><stop offset="0.16" stop-color="#e0a328" stop-opacity="0.99"/><stop offset="0.29" stop-color="#e2a42a" stop-opacity="0.94"/><stop offset="0.42" stop-color="#e4a52c" stop-opacity="0.86"/><stop offset="0.53" stop-color="#e6a62e" stop-opacity="0.76"/><stop offset="0.64" stop-color="#eaa832" stop-opacity="0.62"/><stop offset="0.75" stop-color="#eeaa36" stop-opacity="0.45"/><stop offset="0.85" stop-color="#f4ad3c" stop-opacity="0.25"/><stop offset="0.95" stop-color="#f9b041" stop-opacity="0.02"/><stop offset="0.96" stop-color="#fab042" stop-opacity="0"/></linearGradient><linearGradient id="linear-gradient-6" x1="114.31" y1="112.16" x2="110.63" y2="118.54" gradientUnits="userSpaceOnUse"><stop offset="0" stop-color="#e0a328"/><stop offset="0.1" stop-color="#e1a329" stop-opacity="0.98"/><stop offset="0.23" stop-color="#e2a42a" stop-opacity="0.91"/><stop offset="0.37" stop-color="#e5a62d" stop-opacity="0.79"/><stop offset="0.53" stop-color="#e9a831" stop-opacity="0.64"/><stop offset="0.69" stop-color="#efaa37" stop-opacity="0.43"/><stop offset="0.85" stop-color="#f5ae3d" stop-opacity="0.19"/><stop offset="0.96" stop-color="#fab042" stop-opacity="0"/></linearGradient><linearGradient id="linear-gradient-7" x1="95.57" y1="296.71" x2="198.98" y2="324.42" gradientUnits="userSpaceOnUse"><stop offset="0.45" stop-color="#e0c822" stop-opacity="0"/><stop offset="0.5" stop-color="#e0bf23" stop-opacity="0.19"/><stop offset="0.55" stop-color="#dfb524" stop-opacity="0.41"/><stop offset="0.61" stop-color="#dfac25" stop-opacity="0.59"/><stop offset="0.67" stop-color="#dfa526" stop-opacity="0.74"/><stop offset="0.73" stop-color="#de9f26" stop-opacity="0.85"/><stop offset="0.79" stop-color="#de9b27" stop-opacity="0.94"/><stop offset="0.86" stop-color="#de9927" stop-opacity="0.98"/><stop offset="0.93" stop-color="#de9827"/></linearGradient></defs><g id="Layer_2" data-name="Layer 2"><g id="Layer_1-2" data-name="Layer 1"><path class="cls-1" d="M588.61,284.67V260.28H466l1.22,27-21,8.36-5.67-58.48h25.66c24.61-30.13,32.07-67.47,39.28-111.81L502.25,102H591l7,135.15h13.79l-4.16,47.52Zm-11.56-47.52L567.38,122.2l-38.78,3.14c-4,34.16-13,81.26-34.2,111.81Z"/><path class="cls-1" d="M1220.1,295.63V260.28H1083.29l1.21,27-21,8.36-5.67-58.48h25.66c24.61-30.13,32.07-67.47,39.28-111.81L1119.57,102h88.71l7,135.15h28l-5.82,61.31Zm-25.74-58.48-9.67-117.52-38.78,5.71c-4,34.16-13,81.26-34.19,111.81Z"/><path class="cls-1" d="M844,101.75l71.6,161H889.71l-19.93-44.32s-28.15-2.82-40.17-.73c-22.76,4-32.92,15.35-36.53,21.92l-13.91,23.13h-25L823.81,104.5ZM861.49,201l-26.63-65.26-34.33,86.47c5.73-4.88,9.73-13.27,31.76-19.56C844.71,199.09,861.49,201,861.49,201Z"/><path class="cls-1" d="M670.83,261.29H647.7V103H759.09v23.34H670.83Z"/><path class="cls-1" d="M938.82,261.29V103h81.26c28,0,46.25,17,46.25,45.19,0,28-18.24,45.83-46.25,45.83h-28c-10.18,0-20.58-.32-30.12,4.77v62.48Zm81.26-90.59c15.06,0,23.34-7.21,23.34-22.49,0-15.91-8.06-21.85-23.34-21.85H962v50.7c9.54-5.51,19.73-6.36,30.12-6.36Z"/><path class="cls-1" d="M360.55,94.81C346,94.81,331,96.89,318,102l6.13,23.79c11.7-7.34,21.84-7.68,36.64-7.68,28.26,0,41.39,12,46.57,32.78h.06c3.17,12.21,3.75,28.53,2.28,44.39a56.1,56.1,0,0,1-1.7,13.19v0h0C402.9,228.17,387,240,365.05,240c-19.58,0-42.07-1.08-54.62-14.39l-5.52,27.78c17.67,8,41.6,9.74,60.35,9.74,47.95,0,67.17-37.34,67.17-85.08C432.43,131.34,414.44,94.81,360.55,94.81Z"/><path class="cls-1" d="M422.7,190.82c-2.86,2.11-30.86,6.26-46.15-1.54-11.95-6.17-19.95-14-26.12-18.2-4.86-3.28-16.76-3.76-18.53-3.73s-2.71-.36-3.32-2.47c-.37-1.28-.21-2.12,1.33-3.47s19.19-4.79,36,1c13,4.55,20.79,10.63,31,17.05,5.41,3.37,11.36,6.85,16.76,6.59a64.52,64.52,0,0,0,7.08-1.37c2.17-.43,3.82.37,4.15,1.49S425.56,188.71,422.7,190.82Z"/><g class="cls-2"><path class="cls-1" d="M237.45,195.49a44,44,0,0,0,3.56-2.74c6.73-5.77,10.47-20.79,10.63-21.42l1.39-5.7-5.1,2.9-.84.47a26.46,26.46,0,0,0,5.71-8.59c2.13-5.47,3-18.87,3-19.44l.51-8.18-1.83,2.35c4.85-11.22,3.14-22.49,0-33.35l-2.41-8.19-2.44,8.18-.56,1.82a64.62,64.62,0,0,0-4.81-30,48.35,48.35,0,0,0-12-16.82c-6.14-5.39-13.25-8.24-20.57-8.25a32.68,32.68,0,0,0-12.48,2.61c-9.62,4-11.87,13.73-12,14.14l-2.26,10.3,6.69-8.15c0-.07,6-7.19,14.07-7.52l.78,0a15.67,15.67,0,0,1,12.3,5.66c5.78,6.82,7.56,19,5,34.31-1.71,10.25-8.59,19.46-21,28.17-11.8,8.26-28.24,15.81-50.29,23.08a14.6,14.6,0,0,0-7.53,5.22c-.11-4.12.79-8.24,3.78-11.22,2-2,5.34-2.88,8.53-3.7,2.74-.71,5.58-1.44,7.83-3,4-2.7,5.81-6.88,4.86-11.17-1.18-5.3-6.38-6.9-9-7l-8.42-.35a12.84,12.84,0,0,0-2-3.32c-2-2.27-8.56-6.12-15.57-7.46a19.93,19.93,0,0,0-3.72-.36,15.74,15.74,0,0,0-7.36,1.71A85.37,85.37,0,0,0,112.3,107a12.79,12.79,0,0,0-2.67-.27c-6.12,0-12,4-12.25,4.13l-2.07,1.41,1.39,2.09,1.67,2.51c.57,1.84,3,7.28,12,10.1,7,2.2,7.11,4.55,7.1,5.5a9.63,9.63,0,0,1-.68,2.75v0l0,.13-.06.12c0,.13-.11.25-.16.37h0l0,.06c0,.06-.06.14-.1.21l0,.06a13.13,13.13,0,0,1-1.67,2.5c-1.45,1.36-4,2.62-7.57,4.36-1,.48-2.1,1-3.29,1.63-.59.28-1,.48-1.28.65l-.15.08-.42.21A29.83,29.83,0,0,0,98.06,148l-3,1.81.6,0A16.47,16.47,0,0,0,92,154.06a33.09,33.09,0,0,0-3.21-5.75,29.37,29.37,0,0,0-18.59-12.06l-5.5-1.14C49.07,132,41.23,130.38,32,113.85c-3.88-6.92-4.67-16.06-2.11-24.45,2-6.64,5.9-12,10.38-14.22a12.81,12.81,0,0,1,5.81-1.38c7.11,0,13.32,5.52,13.38,5.57l7.5,6.75-3.42-9.48C63.28,76,57.9,61.53,44.62,61.53h-.46c-6.65.17-15.48,1.72-24.77,12.27A49.77,49.77,0,0,0,6.4,108v0l-4,8.15c-5.92,12.06.59,31.62,4.06,37a10.7,10.7,0,0,0,1.21,1.48l0,2.83c0,.53-.07,13.08,4.85,23.17a16.44,16.44,0,0,0,4.59,5.45l.4,2.79c.08.53,2,13.08,11.18,18.81a31.75,31.75,0,0,0,4.21,2.15v1c0,.29,0,7,6.08,13.14,6.66,6.74,17.72,10.16,32.86,10.16,2.82,0,5.8-.12,8.89-.36l1,0c.86,0,1.75,0,2.64-.12,1.8-.16,3.62-.24,5.4-.24,1,0,1.9,0,2.84.07a63.08,63.08,0,0,1,10,1.34l.68.16.1,0,.08,0a58.17,58.17,0,0,1,23.94,12.22c3,3.08,9.31,11.52,18.42,24.45,3.35,6.26,6.13,11.87,8.26,16.66a46.62,46.62,0,0,1,2.41,13.28,49.32,49.32,0,0,1-3.7,15.91A25,25,0,0,1,136,330.17a10.72,10.72,0,0,1-2,.2,7.79,7.79,0,0,1-7.52-5c-2.22-5.84,1.71-14,10.52-21.87l9.43-8.41-11.94,4.13c-5.05,1.75-10.25,5.94-14.28,11.52s-6.39,12.06-6.21,17.43a14.36,14.36,0,0,0,6,11.63,22.68,22.68,0,0,1-4,.41c-4.51,0-5.72-1.82-6.39-5.18-.55-2.82.15-5.31.9-7.95a25.63,25.63,0,0,0,1.23-6.54,9.15,9.15,0,0,0-3.07-7.46,3.85,3.85,0,0,1-1.48-3.67c.15-3.08,5.12-6.2,6.85-7.05L129.24,295l-16.65,2.67c-.38.06-9.35,1.58-12.94,8.64-2.66,5.25-1.4,8.36-.48,10.64.55,1.34.76,1.92.46,2.79-1,3.14-4.25,3.8-6.75,3.8a12.8,12.8,0,0,1-3.72-.54,9.1,9.1,0,0,1-5.82-5.32,12,12,0,0,1,.09-9.34,17.28,17.28,0,0,1,3.16-3.9c3.12-3.26,7.4-7.71,7.82-16.5.44-9.32-8-15.72-8.36-16L75.9,264.34l6.47,10.89c0,.07,4.48,7.76,1.32,14-1.06,2.08-2.81,3.67-4.85,5.51a38.77,38.77,0,0,0-6.89,7.6A25,25,0,0,0,71.38,328a20.15,20.15,0,0,0,7.72,7.61l-1.42,5.31c-1.61,6,0,13,4.38,19.2a35.72,35.72,0,0,0,18.2,13.13l.68.22c6.8,2.18,17.07,5.48,29.65,5.48A76,76,0,0,0,163,371.44c10-4.69,17.33-10.66,22.15-18.1l6.09-.94c7.42-1.15,12.8-4.11,16-8.81,2.84-4.19,3.48-9.08,3.71-12.87a56,56,0,0,0-7.73-32c-3.39-5.64-7.34-9.67-11.53-13.94-6.37-6.5-13.59-13.86-20.84-29.13a21.35,21.35,0,0,1-1.71-11.79,29.93,29.93,0,0,1,2.16-7.2,19.17,19.17,0,0,1,9.73-9.59,38,38,0,0,1,7.19-2.24,89.83,89.83,0,0,1,8.9-1.34c2.87-.28,5.51-.42,7.63-.53,1.29-.07,2.4-.13,3.25-.21,4.82-.42,10.81-3.35,16.43-8S234,204.81,235.79,200Zm-77.56-70.38a3,3,0,0,1,1.38,1.12s0,.11-.09.37-.27.55-1.13.55a7.84,7.84,0,0,1-4-1.56,7.41,7.41,0,0,1-2.32-3Zm-57.2,224.28a6.5,6.5,0,0,1-5,4.72,8.52,8.52,0,0,1-2.13.27A11,11,0,0,1,88.12,351a21.23,21.23,0,0,1-5.55-10.13l-1.07-4.18A49.3,49.3,0,0,0,90,339.16c3.63.8,7,1.55,9.42,3.41C102,344.56,103.18,347,102.69,349.39Zm86.83-5.14a39.79,39.79,0,0,0,1.5-8.51c.64-5.86,1.28-10.05,3.78-10.51a4.88,4.88,0,0,1,.89-.09,2.36,2.36,0,0,1,1.91.82c1.4,1.55,2,5.23,1.59,9.37-.53,5-5.06,9-9.88,12.54l-1.88,1.39A42.6,42.6,0,0,0,189.52,344.25ZM11,127.79a19.89,19.89,0,0,1-3.84-10.54l-.05-1.16A43.53,43.53,0,0,0,11,127.79Z"/><path class="cls-1" d="M100.33,285.36a5.94,5.94,0,0,0,3.89,4.17,6.4,6.4,0,0,0,2.5.55,4.6,4.6,0,0,0,3.9-2.06c1.64-2.38,1.56-6.58-.22-11.23-1.89-4.92-8.7-7.86-12.6-9.17l-2,4.61c2.9,1.62,4.64,3.26,5.17,4.87a7.23,7.23,0,0,1-.24,4A9.27,9.27,0,0,0,100.33,285.36Z"/></g><path class="cls-3" d="M80.39,228.29c-46.53,4-46.24-20.3-46.24-20.3,5,2.36,16.41,3.71,21.19,2.75,0,0-18.35-2.92-26.57-8.05s-10-17-10-17c5,2.42,14,5.15,19.19,4.48,0,0-20-4.46-24.4-13.46-4.72-9.67-4.6-22-4.6-22,5.9,4.8,14.88,9.07,20.4,10.21,0,0-19.13-11.48-22-15.91s-9.45-23.27-3.92-34.53c.82,18.56,27.41,28.91,27.41,28.91s-23-11.68-23.14-38.26A47.23,47.23,0,0,1,20.07,72.53C29,62.42,37.16,61.26,43,61.11,55,60.8,59.91,74.54,59.91,74.54S48.79,64.45,37.87,70C26.52,75.72,20,96.83,28.54,112.14c10.92,19.48,20.66,19.53,39.9,23.63,21.16,4.5,22.65,26.09,22.65,26.09s-2.42-10.12,10.77-16.92c8.45-4.36,12.86-5.79,14.8-9.25,3.3-5.89,3.73-10.78-6.79-14.09-9.35-2.93-10.39-8.75-10.39-8.75L97.58,110s7-4.75,13-3.48a86,86,0,0,1,12.35,3.8s3.7-2.94,10.35-1.68,12.64,5,14.16,6.66c2.13,2.39,2.5,7,6,9.42,3.82,2.61,7.5,2.71,8.81,0,1.59-3.24-2.6-5-2.6-5s5.55.23,6.61,5c.79,3.56-1,6.63-3.81,8.53-4.4,3-12.3,2.56-16.72,7-10.07,10-.2,29.76-.2,29.76S138.61,155,152,150.52c42.23-13.94,69.26-30.74,73-53.23,4.84-29-5.9-43.51-20.69-42.9-9.31.38-15.92,8.44-15.92,8.44s1.94-8.85,10.45-12.35c20.79-8.55,35.84,7.36,41.81,21.13,9.67,22.34,2.91,49-4.77,53.27,7.32-3.57,11.76-14.88,14.88-25.33,5.3,18.1,6,36.09-19.95,53.51,8.41-3.87,16-8.48,21.22-15.2,0,0-.85,13.52-2.85,18.68-4.44,11.43-20.9,18.64-21.53,18,4.47.69,11.36-1.75,20.26-6.81,0,0-3.62,14.8-9.81,20.11-10.63,9.12-30.42,14.85-30.42,14.85,4.44-.18,17.92-3.39,24.46-6.56-3.37,9.12-16.51,20.35-25.7,21.15-5.76.51-25.38.34-33.61,8.25s-9.57,19.92-5.61,28.25c12.18,25.64,24.19,29.46,32.49,43.29a53.38,53.38,0,0,1,7.38,30.49c-.47,7.52-2.43,17-17.54,19.35,5.21-3.87,10.25-8.29,10.88-14.31s-.58-14.11-7.36-12.85-4.89,14-7.21,20.68c-2.69,7.81-8.74,18-25.24,25.73-27.35,12.8-49,5.44-60.85,1.64C85.54,363.27,76,349.66,78.9,338.57c2.85,11.09,11,16.93,18.24,15s9.94-10.28,2.66-16-20.53-2.14-27.46-13.91a22.61,22.61,0,0,1,.5-22.93c4.16-6.3,9.38-8.42,11.88-13.35,3.86-7.61-1.4-16.45-1.4-16.45s7.72,5.75,7.34,13.84c-.55,11.53-8.18,14.32-10.72,19.39s-1.71,15.28,7.22,18.19c3.82,1.24,11.57,1.32,13.65-4.85,1.46-4.36-3.77-5.92-.12-13.1,3-6,11.08-7.28,11.08-7.28s-8,3.9-8.27,9.19c-.32,6.28,4.66,4.79,4.55,11.21-.09,5-3.22,9.25-2.08,15,1,5.13,4,10.34,20.22,4.94-21.73-5.94-6.57-33.83,7.91-38.84-20.6,18.38-10.76,33.41,1.21,31,17.88-3.6,33.21-26.66,12.74-60.35C143.41,261.71,127.53,224.24,80.39,228.29Z"/><path class="cls-4" d="M104,284.25c4.22,1.78,5.12-3.52,2.83-9.51-1.28-3.33-6.13-6-11-7.67C109.42,274.7,96.63,281.15,104,284.25Z"/><path class="cls-5" d="M132.32,246.55c-12.2-14.31-12.72-9.29-22.56-23.37-3-4.29-12.05-18.81-16.56-40.4-2.65-12.63-7-34.85-29.89-34-13.26.48-19-3-35.43-24.11-8.52-10.91,12.62,53.2,12.62,53.2L57,208.12s4.81,22,25.94,20.16C112.64,225.7,129.53,244,132.32,246.55Z"/><path class="cls-6" d="M145.73,191.75c0-5.81-4.51-40.4-31.38-46.61-6.58-1.52-20.42-.51-23.22,11.92s5.13,41.68,12.3,55.3,18.8,25.16,23.68,29.4c5.54,4.8,28.84,39,28.84,39Z"/><path class="cls-7" d="M196.4,218s-12,1-17.72,3.88-11.27,7.12-13.33,18.72S152,216.92,150.74,208.84c-.76-4.8-8.43-45.87,47.55-61.42"/><path class="cls-8" d="M130.27,108.78c15,2.28,16.64,6.54,17.9,10.82,1,3.41,1.6,8.38-7,17.25s-38.66,7.75-38.66,7.75c1.71-1,10.29-4.27,12.73-7.09a13.83,13.83,0,0,0,3.49-7.89"/><path class="cls-9" d="M97.58,110s15.13,3.4,22.42,6.36,6.86,6.72,4.86,8.09a13.25,13.25,0,0,1-2.52,1.52"/><path class="cls-10" d="M142.9,255.53s25.59,25.5,35.54,44.91c5.54,10.8,3.23,30.39-1,40.83-6.85,17.05-45.15,32.15-64.47,6.18l21.27-11.21s15.53-10.69,18.84-18.59,7.56-20.77,2.13-33-13.59-26.29-13.59-26.29Z"/><path class="cls-1" d="M1798.36,4c1.46,3.94-3.07,37-16.93,51.76-10.91,11.5-22.41,18-29.19,23.59-5.31,4.42-9.77,17.74-10.32,19.76s-1.29,3-3.89,3c-1.56,0-2.47-.46-3.49-2.66s.89-23.29,13-40.4c9.44-13.27,18.87-20,29.49-29.49,5.6-5,11.5-10.62,13-16.81a73.91,73.91,0,0,0,.77-8.48c.23-2.59,1.69-4.2,3.06-4.2S1796.91.05,1798.36,4Z"/><path class="cls-1" d="M1564.7,101.75l71.6,161h-25.89l-19.92-44.32s-28.15-2.82-40.18-.73c-22.75,4-32.92,15.35-36.53,21.92l-13.91,23.13h-25l69.67-158.28ZM1582.2,201l-26.63-65.26-34.34,86.47c5.73-4.88,9.74-13.27,31.77-19.56C1565.41,199.09,1582.2,201,1582.2,201Z"/><polygon class="cls-1" points="1820.26 103.02 1843.17 103.02 1843.17 261.3 1820.26 261.3 1820.26 124.43 1686.29 261.3 1663.37 261.3 1663.37 103.02 1686.29 103.02 1686.29 225.01 1820.26 103.02"/><path class="cls-1" d="M2043,238.17l-25.46,56.44h-16.91l6.09-33.32H1881.58V103h22.91l-4.79,135.15h89.45V103h23.12V238.17Z"/><path class="cls-1" d="M2365,264.57H2228V106.29h137c26.73,0,46.68,15.49,46.68,43.28,0,13.58-4.88,25.25-14.22,31.19,11,5.09,21.85,18.67,21.85,40.53C2419.26,252.69,2391.26,264.57,2365,264.57ZM2250.87,178c9.55-5.51,34.66-6.36,45.06-6.36h69c14.21,0,23.55-7.22,23.55-21.86,0-15.06-9.76-20.15-23.55-20.15H2250.87Zm0,63.44h116.41c12.94,0,29.07-7.21,29.07-23.13,0-18.45-15.69-26.78-31-26.78l-70.74-2c-10.19,0-34.22,1.84-43.77,6.93Z"/><path class="cls-1" d="M1441.17,177.06c10.18-7,14.21-15.7,14.21-29.91,0-18.25-10.49-50.61-54.19-50.61-16.88,0-29.28,4-39.55,10.17l6.55,24.33c10.75-10.48,21.81-15.58,33-15.59,13.79,0,35,11.37,35,28.77,0,14.64-5.19,26.91-27.54,23.93l-28.52-2.48-.65,17.9,33.76,1.49c18.57,2.17,26.81,11.31,26.81,29.77,0,14.43-10.6,26.95-41.58,26.95-19.44,0-35.74-5.94-47.74-19.76l-5.41,27.59a105.13,105.13,0,0,0,53.15,15.29c47.1,0,64.5-24.19,64.5-49.86C1463,196.37,1455,185.13,1441.17,177.06Z"/><path class="cls-1" d="M2092.81,246.2V190.85h0v-65.6l99.17,4.5V106.4h-122.3V264.67h131.64V241.55Z"/><path class="cls-1" d="M2082.62,190.09c.33-1.13,2-1.94,4.19-1.51A63.25,63.25,0,0,0,2094,190c5.44.26,11.45-3.24,16.9-6.65,10.28-6.47,18.1-12.6,31.25-17.18,16.92-5.85,34.7-2.38,36.26-1s1.73,2.21,1.35,3.49c-.62,2.13-1.56,2.51-3.35,2.49s-13.78.46-18.68,3.76c-6.22,4.24-14.29,12.13-26.34,18.35-15.41,7.87-43.64,3.69-46.53,1.56S2082.3,191.22,2082.62,190.09Z"/><path class="cls-1" d="M305.38,330.52c0-4.51-.13-9-.47-13.45h5.66v29.07c0,4.44.14,8.88.48,13.31H305q.42-8.59.41-13.31Zm33.3,28.73a7.59,7.59,0,0,1-1.56.34,9.83,9.83,0,0,1-4.37-.41c-3.35-1.64-5.39-5.53-8.4-12.9-2.25-5-4.36-8.26-6.41-9.69a10.42,10.42,0,0,0-4.5-1.71l-.62-2.18,5.6-6.89a76.83,76.83,0,0,0,6.34-8.74h5.39q-2,2.06-5.93,6.55l-8,9.63a15.35,15.35,0,0,1,6.35,2.59,21.78,21.78,0,0,1,4.44,4.64,20.52,20.52,0,0,1,1.63,2.73,23.89,23.89,0,0,1,1.23,2.52c.27.55.68,1.37,1.16,2.53s.82,1.84.89,2.11c1.16,3.55,2.32,5.74,3.68,6.83a6.76,6.76,0,0,0,3.14,1.5Z"/><path class="cls-1" d="M418.19,352.42a35.72,35.72,0,0,0,2.11-6.89c1.3-5.53,2.12-14.74,2.12-26-2,0-3.82.2-3.82.2v-2.66h29.82c-.27,2.73-.41,8.12-.41,16.24V346a128.69,128.69,0,0,0,.48,13.44h-5.67V330.38c0-.95-.07-4.5-.27-10.71-2.39-.14-8.12-.21-17.06-.21,0,22.86-3.69,41.15-12,41a5.38,5.38,0,0,1-3.75-1.3l.75-2.53.34.21a5.51,5.51,0,0,0,2.32.61C415,357.34,416.55,356,418.19,352.42Z"/><path class="cls-1" d="M561.91,346.14q0,9.63.4,13.31h-6.07a126.59,126.59,0,0,0,.48-13.31V322.4c-2.39,3.75-5.66,8.73-9.83,15.08s-7.5,11.53-10.23,15.69-4,6.21-4,6.28H527a129.36,129.36,0,0,0,.47-13.44V330.38q0-9.63-.41-13.31h6.08a126.59,126.59,0,0,0-.48,13.31v23.68l10.92-16.38c1.57-2.52,3.48-5.39,5.59-8.73,4.3-6.76,7.24-11.26,7.58-11.88h5.66c-.34,1.91-.47,6.42-.47,13.45Z"/><path class="cls-1" d="M675.8,346c0,4.5.14,9,.48,13.44h-5.8c0-1.09,0-3.14.07-6.21s.07-5.12.07-6.28V338.5q-2.67-.21-12.08-.2c-4.85,0-11.88.13-12,.13v7.71c0,4.44.13,8.88.47,13.31h-6.07q.41-8.59.41-13.31V330.52c0-4.51-.14-9-.48-13.45h5.8c0,1.09,0,3.21-.06,6.28s-.07,5.19-.07,6.35v6c1.91.14,5.93.21,12,.21q9.42,0,12.08-.21v-5.32c0-4.44-.14-8.87-.48-13.31h6.07q-.4,5.74-.41,13.31Z"/><path class="cls-1" d="M789.7,346.14q0,9.63.41,13.31H784a123.86,123.86,0,0,0,.48-13.31V322.4c-2.39,3.75-5.66,8.73-9.82,15.08s-7.51,11.53-10.24,15.69-4,6.21-4,6.28h-5.66a128.69,128.69,0,0,0,.48-13.44V330.38q0-9.63-.41-13.31h6.07a126.59,126.59,0,0,0-.48,13.31v23.68l10.92-16.38c1.57-2.52,3.48-5.39,5.6-8.73,4.3-6.76,7.23-11.26,7.57-11.88h5.67c-.34,1.91-.48,6.42-.48,13.45Z"/><path class="cls-1" d="M890.63,342.25a26.38,26.38,0,0,1-6.14,1.51,56.49,56.49,0,0,1-7,.54c-4.16,0-7.37-1.64-8.8-4a14,14,0,0,1-2-7.44V328.4c0-5.12-.21-9.28-.27-10.44l-.07-1h5.59c-.2,2.53-.34,6.42-.34,11.81v2.66c0,6.49,2.6,9.76,7.85,9.76a29.84,29.84,0,0,0,11.26-2v-8.73c0-6.49-.14-11-.41-13.45h6c-.28,2.46-.41,7-.41,13.45v15.62q0,9.63.41,13.31h-6q.4-3.69.41-13.31Z"/><path class="cls-1" d="M974.7,359.45c.35-7.16.48-11.67.48-13.37V330.52c0-4.51-.13-9-.48-13.45H994v3.35c-4.71-.48-9.22-.69-13.65-.75v16.85c5.53-.07,9.35-.2,11.6-.41v3.35c-1.37-.14-5.26-.28-11.6-.41v17.81c4.3-.07,8.8-.28,13.65-.75v3.34Z"/><path class="cls-1" d="M1099.59,358.43c-2.32,1.29-5.73,1.91-10.31,1.91-6.62,0-12.07-2-16.24-6.08s-6.28-9.41-6.28-16.17c0-14.6,10.79-22.25,23-22a24.75,24.75,0,0,1,10,1.7l-.82,3.55a15.43,15.43,0,0,0-8.73-2.66c-7.85,0-17.81,5.19-17.81,19.45a21.23,21.23,0,0,0,4.57,13.92,15.28,15.28,0,0,0,12.28,5.66,15.48,15.48,0,0,0,9.63-2.72Z"/><path class="cls-1" d="M1176,330.52c0-4.51-.13-9-.48-13.45h5.67v29.07c0,4.44.13,8.88.48,13.31h-6.08q.42-8.59.41-13.31Zm33.3,28.73a7.53,7.53,0,0,1-1.57.34,9.8,9.8,0,0,1-4.36-.41c-3.35-1.64-5.39-5.53-8.4-12.9-2.25-5-4.37-8.26-6.41-9.69a10.46,10.46,0,0,0-4.51-1.71l-.61-2.18,5.6-6.89a76.83,76.83,0,0,0,6.34-8.74h5.39q-2,2.06-5.93,6.55l-8,9.63a15.35,15.35,0,0,1,6.35,2.59,21.48,21.48,0,0,1,4.43,4.64,19.4,19.4,0,0,1,1.64,2.73,26.13,26.13,0,0,1,1.23,2.52c.27.55.68,1.37,1.16,2.53s.82,1.84.89,2.11c1.16,3.55,2.32,5.74,3.68,6.83a6.76,6.76,0,0,0,3.14,1.5Z"/><path class="cls-1" d="M1319,346.14q0,9.63.41,13.31h-6.08a126.59,126.59,0,0,0,.48-13.31V322.4c-2.39,3.75-5.66,8.73-9.83,15.08s-7.5,11.53-10.23,15.69-4,6.21-4,6.28h-5.66a128.69,128.69,0,0,0,.48-13.44V330.38q0-9.63-.41-13.31h6.07a126.59,126.59,0,0,0-.48,13.31v23.68l10.92-16.38c1.57-2.52,3.48-5.39,5.6-8.73,4.29-6.76,7.23-11.26,7.57-11.88h5.66c-.34,1.91-.47,6.42-.47,13.45Z"/><path class="cls-1" d="M1432.88,346.14q0,9.63.41,13.31h-6.07a126.59,126.59,0,0,0,.48-13.31V322.4c-2.39,3.75-5.67,8.73-9.83,15.08s-7.51,11.53-10.24,15.69-4,6.21-4,6.28h-5.67a128.69,128.69,0,0,0,.48-13.44V330.38q0-9.63-.41-13.31h6.08a123.86,123.86,0,0,0-.48,13.31v23.68l10.92-16.38c1.57-2.52,3.48-5.39,5.59-8.73,4.3-6.76,7.24-11.26,7.58-11.88h5.66c-.34,1.91-.48,6.42-.48,13.45Zm-23.54-41.42,2.12-.14c0,2.39,1.91,4.3,4.91,4.3s4.64-1.43,5-4.3l2.12.14c-.07,4.1-2.73,7.17-7.1,7.17S1409.41,308.82,1409.34,304.72Z"/><path class="cls-1" d="M1598.17,330.52c0-4.51-.14-9-.48-13.45h35.42c-.34,4.44-.48,8.94-.48,13.45v15.62q0,7.58.41,13.31H1627c.35-2.11.48-7.51.48-16.17V320.42c-2-.48-5.87-.75-11.67-.75H1615c-6.07,0-9.89.27-11.6.75v25.72c0,4.44.14,8.88.48,13.31h-6.07q.4-8.59.41-13.31Z"/><path class="cls-1" d="M1741.61,358.43c-2.32,1.29-5.73,1.91-10.3,1.91-6.62,0-12.08-2-16.24-6.08s-6.28-9.41-6.28-16.17c0-14.6,10.78-22.25,23-22a24.82,24.82,0,0,1,10,1.7l-.82,3.55a15.49,15.49,0,0,0-8.74-2.66c-7.84,0-17.81,5.19-17.81,19.45a21.23,21.23,0,0,0,4.57,13.92,15.3,15.3,0,0,0,12.29,5.66,15.45,15.45,0,0,0,9.62-2.72Z"/><path class="cls-1" d="M1852.44,346.14q0,9.63.41,13.31h-6.08a126.59,126.59,0,0,0,.48-13.31V322.4c-2.39,3.75-5.66,8.73-9.83,15.08s-7.5,11.53-10.23,15.69-4,6.21-4,6.28h-5.66A128.69,128.69,0,0,0,1818,346V330.38q0-9.63-.41-13.31h6.07a126.59,126.59,0,0,0-.48,13.31v23.68l10.92-16.38c1.57-2.52,3.48-5.39,5.6-8.73,4.29-6.76,7.23-11.26,7.57-11.88h5.66c-.34,1.91-.47,6.42-.47,13.45Z"/><path class="cls-1" d="M1952.75,346.08c3.07,5.11,6,9.55,8.67,13.37h-7c-.2-1-3.07-6.14-8.53-15.22l-2-3.41-3.54,5.32-8.47,13.31h-4.16l9.35-13.31,5.19-7.91-4.78-7.85c-3.75-6.14-6.69-10.58-8.74-13.31h7.1c2,3.89,4.37,8.33,7.3,13.31l2.39,3.82,2.53-3.82,8.53-13.38h4.16c-2,2.6-5.12,7-9.35,13.38l-4.23,6.48Z"/><path class="cls-1" d="M2040,354.2a20.67,20.67,0,0,1-6.62-15.77c0-6.75,2.25-12.14,6.69-16.17a22.93,22.93,0,0,1,16.17-6.14c6.62,0,12.08,2,16.51,6.21a20.44,20.44,0,0,1,6.62,15.76c0,6.76-2.25,12.15-6.68,16.24a24.81,24.81,0,0,1-32.69-.13Zm4.16-1.91a15.55,15.55,0,0,0,12.35,5.52,16.1,16.1,0,0,0,12.22-5.66,20.07,20.07,0,0,0,4.91-14.13,20.3,20.3,0,0,0-5.12-13.78,15.32,15.32,0,0,0-12.28-5.53,16.2,16.2,0,0,0-12.35,5.73c-3.28,3.69-4.85,8.4-4.78,14.06A20.82,20.82,0,0,0,2044.13,352.29Z"/><path class="cls-1" d="M2159.6,352.42a36.44,36.44,0,0,0,2.11-6.89c1.3-5.53,2.12-14.74,2.12-26-2,0-3.82.2-3.82.2v-2.66h29.82c-.28,2.73-.41,8.12-.41,16.24V346a129.36,129.36,0,0,0,.47,13.44h-5.66V330.38c0-.95-.07-4.5-.27-10.71-2.39-.14-8.12-.21-17.06-.21,0,22.86-3.69,41.15-12,41a5.36,5.36,0,0,1-3.75-1.3l.74-2.53.35.21a5.51,5.51,0,0,0,2.32.61C2156.39,357.34,2158,356,2159.6,352.42Z"/><path class="cls-1" d="M2272.2,354.2a20.67,20.67,0,0,1-6.62-15.77c0-6.75,2.25-12.14,6.68-16.17a23,23,0,0,1,16.18-6.14c6.62,0,12.08,2,16.51,6.21a20.44,20.44,0,0,1,6.62,15.76c0,6.76-2.25,12.15-6.69,16.24a24.8,24.8,0,0,1-32.68-.13Zm4.16-1.91a15.55,15.55,0,0,0,12.35,5.52,16.1,16.1,0,0,0,12.22-5.66,20.07,20.07,0,0,0,4.91-14.13,20.35,20.35,0,0,0-5.12-13.78,15.32,15.32,0,0,0-12.28-5.53,16.18,16.18,0,0,0-12.35,5.73c-3.28,3.69-4.85,8.4-4.78,14.06A20.77,20.77,0,0,0,2276.36,352.29Z"/><path class="cls-1" d="M2387.53,330.38q0-9.63-.41-13.31h19.58v3.35c-1.16-.41-5.73-.69-13.78-.82-.14,2.32-.21,5.93-.21,10.78v13.24c0,2.25,0,4.71.07,7.3.21,5.19.27,8.53.34,8.53h-6c.27-2.46.41-7,.41-13.44Z"/></g></g></svg>