<svg id="Layer_1" data-name="Layer 1" xmlns="http://www.w3.org/2000/svg" xmlns:xlink="http://www.w3.org/1999/xlink" viewBox="0 0 250.17 41.21"><defs><style>.cls-1{opacity:0.5;}.cls-2{fill:#232020;}.cls-3{fill:url(#linear-gradient);}.cls-4{fill:#fecf0c;}.cls-5{fill:none;stroke:#a7782b;stroke-miterlimit:10;stroke-width:0.27px;}.cls-6{opacity:0.62;fill:url(#linear-gradient-2);}.cls-7{fill:url(#linear-gradient-3);}.cls-8{fill:url(#linear-gradient-4);}.cls-9{fill:url(#linear-gradient-5);}.cls-10{fill:url(#linear-gradient-6);}.cls-11{fill:url(#linear-gradient-7);}</style><linearGradient id="linear-gradient" x1="0.31" y1="23.78" x2="27.26" y2="23.78" gradientUnits="userSpaceOnUse"><stop offset="0" stop-color="#fff140"/><stop offset="0.16" stop-color="#fce93e"/><stop offset="0.4" stop-color="#f3d53a"/><stop offset="0.69" stop-color="#e4b333"/><stop offset="1" stop-color="#d1872a"/></linearGradient><linearGradient id="linear-gradient-2" x1="5.67" y1="22.74" x2="10.28" y2="20.08" gradientUnits="userSpaceOnUse"><stop offset="0" stop-color="#fff140" stop-opacity="0"/><stop offset="0.1" stop-color="#fded3f" stop-opacity="0.04"/><stop offset="0.25" stop-color="#f9e33d" stop-opacity="0.14"/><stop offset="0.43" stop-color="#f1d139" stop-opacity="0.3"/><stop offset="0.64" stop-color="#e7b934" stop-opacity="0.53"/><stop offset="0.87" stop-color="#da9b2e" stop-opacity="0.81"/><stop offset="1" stop-color="#d1872a"/></linearGradient><linearGradient id="linear-gradient-3" x1="7.59" y1="19.88" x2="18.57" y2="26.22" gradientUnits="userSpaceOnUse"><stop offset="0" stop-color="#f7ec32"/><stop offset="0.13" stop-color="#f7eb32" stop-opacity="0.99"/><stop offset="0.23" stop-color="#f7e933" stop-opacity="0.95"/><stop offset="0.32" stop-color="#f7e534" stop-opacity="0.88"/><stop offset="0.4" stop-color="#f8df35" stop-opacity="0.79"/><stop offset="0.48" stop-color="#f8d837" stop-opacity="0.67"/><stop offset="0.56" stop-color="#f8cf3a" stop-opacity="0.52"/><stop offset="0.63" stop-color="#f9c53c" stop-opacity="0.35"/><stop offset="0.7" stop-color="#fab940" stop-opacity="0.15"/><stop offset="0.74" stop-color="#fab042" stop-opacity="0"/></linearGradient><linearGradient id="linear-gradient-4" x1="16.18" y1="22.12" x2="21.34" y2="22.12" gradientUnits="userSpaceOnUse"><stop offset="0" stop-color="#d9a528"/><stop offset="0.07" stop-color="#daa529" stop-opacity="0.97"/><stop offset="0.18" stop-color="#dda62b" stop-opacity="0.88"/><stop offset="0.31" stop-color="#e2a82f" stop-opacity="0.73"/><stop offset="0.45" stop-color="#e9aa34" stop-opacity="0.53"/><stop offset="0.6" stop-color="#f1ad3b" stop-opacity="0.27"/><stop offset="0.74" stop-color="#fab042" stop-opacity="0"/></linearGradient><linearGradient id="linear-gradient-5" x1="14.88" y1="16.58" x2="12.8" y2="14.5" gradientUnits="userSpaceOnUse"><stop offset="0" stop-color="#e0a328"/><stop offset="0.16" stop-color="#e0a328" stop-opacity="0.99"/><stop offset="0.29" stop-color="#e2a42a" stop-opacity="0.94"/><stop offset="0.42" stop-color="#e4a52c" stop-opacity="0.86"/><stop offset="0.53" stop-color="#e6a62e" stop-opacity="0.76"/><stop offset="0.64" stop-color="#eaa832" stop-opacity="0.62"/><stop offset="0.75" stop-color="#eeaa36" stop-opacity="0.45"/><stop offset="0.85" stop-color="#f4ad3c" stop-opacity="0.25"/><stop offset="0.95" stop-color="#f9b041" stop-opacity="0.02"/><stop offset="0.96" stop-color="#fab042" stop-opacity="0"/></linearGradient><linearGradient id="linear-gradient-6" x1="12.37" y1="13.25" x2="11.98" y2="13.94" gradientUnits="userSpaceOnUse"><stop offset="0" stop-color="#e0a328"/><stop offset="0.1" stop-color="#e1a329" stop-opacity="0.98"/><stop offset="0.23" stop-color="#e2a42a" stop-opacity="0.91"/><stop offset="0.37" stop-color="#e5a62d" stop-opacity="0.79"/><stop offset="0.53" stop-color="#e9a831" stop-opacity="0.64"/><stop offset="0.69" stop-color="#efaa37" stop-opacity="0.43"/><stop offset="0.85" stop-color="#f5ae3d" stop-opacity="0.19"/><stop offset="0.96" stop-color="#fab042" stop-opacity="0"/></linearGradient><linearGradient id="linear-gradient-7" x1="10.37" y1="32.96" x2="21.41" y2="35.92" gradientUnits="userSpaceOnUse"><stop offset="0.45" stop-color="#e0c822" stop-opacity="0"/><stop offset="0.5" stop-color="#e0bf23" stop-opacity="0.19"/><stop offset="0.55" stop-color="#dfb524" stop-opacity="0.41"/><stop offset="0.61" stop-color="#dfac25" stop-opacity="0.59"/><stop offset="0.67" stop-color="#dfa526" stop-opacity="0.74"/><stop offset="0.73" stop-color="#de9f26" stop-opacity="0.85"/><stop offset="0.79" stop-color="#de9b27" stop-opacity="0.94"/><stop offset="0.86" stop-color="#de9927" stop-opacity="0.98"/><stop offset="0.93" stop-color="#de9827"/></linearGradient></defs><g class="cls-1"><path class="cls-2" d="M25.52,22.15a3.8,3.8,0,0,0,.38-.29A5.48,5.48,0,0,0,27,19.57l.15-.61-.55.31-.09.05a2.7,2.7,0,0,0,.61-.91,9.69,9.69,0,0,0,.32-2.08l.06-.87-.2.25a5.07,5.07,0,0,0,0-3.56l-.26-.88-.26.88-.06.19a6.92,6.92,0,0,0-.51-3.21A5.11,5.11,0,0,0,25,7.34a3.27,3.27,0,0,0-2.19-.88,3.6,3.6,0,0,0-1.34.27,2.29,2.29,0,0,0-1.27,1.51l-.25,1.1.72-.87a2.39,2.39,0,0,1,1.5-.8h.08a1.7,1.7,0,0,1,1.32.6,4.66,4.66,0,0,1,.53,3.67,4.73,4.73,0,0,1-2.24,3,20.77,20.77,0,0,1-5.37,2.47,1.56,1.56,0,0,0-.81.56,1.59,1.59,0,0,1,.41-1.2,2,2,0,0,1,.91-.4,2.59,2.59,0,0,0,.83-.31,1.13,1.13,0,0,0,.52-1.2,1,1,0,0,0-1-.74l-.89,0a1.38,1.38,0,0,0-.22-.35,3.4,3.4,0,0,0-1.66-.8,1.87,1.87,0,0,0-.4,0,1.69,1.69,0,0,0-.79.18,11,11,0,0,0-1.23-.37,1.36,1.36,0,0,0-.29,0,2.57,2.57,0,0,0-1.3.45l-.22.15.14.22.18.27A1.8,1.8,0,0,0,12,14.84c.75.23.76.48.76.58a1,1,0,0,1-.08.3h0v0l0,0h0v0h0a1.27,1.27,0,0,1-.18.27,3.82,3.82,0,0,1-.81.46l-.35.18-.14.07h0l0,0a3.18,3.18,0,0,0-.41.25l-.33.19h.07a1.67,1.67,0,0,0-.39.45,4.27,4.27,0,0,0-.34-.62,3.14,3.14,0,0,0-2-1.28l-.58-.12c-1.67-.34-2.51-.51-3.5-2.27a3.42,3.42,0,0,1-.22-2.62,2.46,2.46,0,0,1,1.1-1.51,1.39,1.39,0,0,1,.63-.15,2.45,2.45,0,0,1,1.42.59l.81.72L7,9.46c0-.06-.6-1.61-2-1.61h0A3.38,3.38,0,0,0,2.24,9.16,5.35,5.35,0,0,0,.85,12.81h0l-.43.87c-.63,1.29.07,3.38.44,4A.83.83,0,0,0,1,17.8v.3a6.45,6.45,0,0,0,.52,2.48,1.85,1.85,0,0,0,.49.58l0,.3a3.16,3.16,0,0,0,1.2,2,3.15,3.15,0,0,0,.45.22v.11a2.06,2.06,0,0,0,.65,1.4,4.79,4.79,0,0,0,3.5,1.09c.3,0,.62,0,.95,0h.4a5.44,5.44,0,0,1,.57,0h.31a7.64,7.64,0,0,1,1.07.14l.07,0h0a6.28,6.28,0,0,1,2.55,1.31,28.86,28.86,0,0,1,2,2.61c.36.67.65,1.27.88,1.78a5,5,0,0,1,.26,1.42,5,5,0,0,1-.4,1.69,2.66,2.66,0,0,1-1.79,1.34.75.75,0,0,1-.21,0,.84.84,0,0,1-.81-.53c-.23-.62.19-1.49,1.13-2.33l1-.9-1.27.44A3.41,3.41,0,0,0,13,34.46a3.1,3.1,0,0,0-.67,1.86A1.52,1.52,0,0,0,13,37.56a2.37,2.37,0,0,1-.43,0c-.48,0-.61-.2-.68-.56a1.71,1.71,0,0,1,.09-.84,2.64,2.64,0,0,0,.14-.7,1,1,0,0,0-.33-.8.41.41,0,0,1-.16-.39c0-.33.55-.66.73-.75l1.62-.8-1.78.29a2,2,0,0,0-1.38.92,1.18,1.18,0,0,0-.05,1.14c.06.14.08.2.05.29a.69.69,0,0,1-.72.41,1.25,1.25,0,0,1-.4-.06,1,1,0,0,1-.62-.57,1.2,1.2,0,0,1,0-1,1.68,1.68,0,0,1,.33-.42A2.5,2.5,0,0,0,10.25,32a2.23,2.23,0,0,0-.89-1.71L8.27,29.5,9,30.67a1.73,1.73,0,0,1,.14,1.49,2.3,2.3,0,0,1-.51.59,4,4,0,0,0-.74.81,2.69,2.69,0,0,0-.06,2.74,2.18,2.18,0,0,0,.82.81l-.15.57a2.46,2.46,0,0,0,.47,2,3.8,3.8,0,0,0,1.94,1.41l.08,0a10,10,0,0,0,3.16.59,8.1,8.1,0,0,0,3.46-.8A5.44,5.44,0,0,0,19.93,39l.65-.1A2.41,2.41,0,0,0,22.29,38a2.81,2.81,0,0,0,.4-1.38,6,6,0,0,0-.83-3.41,7.88,7.88,0,0,0-1.23-1.49,10.29,10.29,0,0,1-2.23-3.11,2.32,2.32,0,0,1-.18-1.26,3.17,3.17,0,0,1,.23-.77,2.4,2.4,0,0,1,.41-.59,2.47,2.47,0,0,1,.63-.43,3.5,3.5,0,0,1,.77-.24,9,9,0,0,1,.95-.14l.81-.06.35,0a3.5,3.5,0,0,0,1.76-.86,4.06,4.06,0,0,0,1.21-1.58Zm-8.28-7.51a.31.31,0,0,1,.15.12v0s0,0-.12,0a.88.88,0,0,1-.43-.16.89.89,0,0,1-.25-.32Zm-6.11,24a.69.69,0,0,1-.53.5.83.83,0,0,1-.22,0,1.17,1.17,0,0,1-.8-.36A2.18,2.18,0,0,1,9,37.68l-.12-.45a4.63,4.63,0,0,0,.91.26,2.56,2.56,0,0,1,1,.37A.73.73,0,0,1,11.13,38.59ZM20.4,38a4.32,4.32,0,0,0,.17-.91c.06-.63.13-1.08.4-1.13h.09a.26.26,0,0,1,.21.08,1.48,1.48,0,0,1,.17,1,2.22,2.22,0,0,1-1.06,1.34l-.2.15A3.49,3.49,0,0,0,20.4,38Zm-19-23.12A2,2,0,0,1,.94,13.8v-.13A4.49,4.49,0,0,0,1.35,14.92Z" transform="translate(-0.17 -0.52)"/><path class="cls-2" d="M10.88,31.75a.61.61,0,0,0,.42.44.65.65,0,0,0,.26.06A.5.5,0,0,0,12,32a1.35,1.35,0,0,0,0-1.2c-.2-.52-.93-.84-1.35-1l-.22.5a1.1,1.1,0,0,1,.56.52.77.77,0,0,1,0,.42A1,1,0,0,0,10.88,31.75Z" transform="translate(-0.17 -0.52)"/></g><path class="cls-3" d="M8.75,25.65c-5,.43-4.93-2.16-4.93-2.16a5.08,5.08,0,0,0,2.26.29,10.18,10.18,0,0,1-2.84-.86A2.83,2.83,0,0,1,2.17,21.1a4.59,4.59,0,0,0,2.05.48s-2.14-.48-2.61-1.44a6.12,6.12,0,0,1-.49-2.35A6,6,0,0,0,3.3,18.88,13.86,13.86,0,0,1,1,17.18c-.3-.47-1-2.48-.41-3.69.08,2,2.92,3.09,2.92,3.09A4.83,4.83,0,0,1,1,12.5,5.09,5.09,0,0,1,2.31,9,3.14,3.14,0,0,1,4.76,7.8C6,7.77,6.57,9.24,6.57,9.24a2.32,2.32,0,0,0-2.36-.49c-1.21.61-1.91,2.87-1,4.5,1.16,2.08,2.2,2.09,4.26,2.52a3.14,3.14,0,0,1,2.41,2.79S9.64,17.48,11,16.75c.91-.46,1.38-.61,1.58-1,.36-.63.4-1.15-.72-1.51s-1.11-.93-1.11-.93l-.2-.31A2.18,2.18,0,0,1,12,12.65a9.4,9.4,0,0,1,1.32.41,1.4,1.4,0,0,1,1.11-.18,3.23,3.23,0,0,1,1.51.71c.23.25.27.75.64,1s.8.28.94,0-.28-.53-.28-.53.6,0,.71.54a.87.87,0,0,1-.41.91c-.47.32-1.31.27-1.78.74-1.08,1.07,0,3.18,0,3.18s-.74-1.62.69-2.09c4.51-1.49,7.4-3.28,7.8-5.68C24.72,8.57,23.57,7,22,7.09a2.63,2.63,0,0,0-1.7.9,2,2,0,0,1,1.12-1.32c2.21-.91,3.82.78,4.46,2.25,1,2.39.31,5.24-.51,5.69.78-.38,1.26-1.59,1.59-2.7.57,1.93.64,3.85-2.13,5.71A5.73,5.73,0,0,0,27.08,16a10.28,10.28,0,0,1-.3,2,4,4,0,0,1-2.3,1.93,4,4,0,0,0,2.16-.73,5.22,5.22,0,0,1-1,2.15,10.67,10.67,0,0,1-3.25,1.58,9.37,9.37,0,0,0,2.61-.7,4.06,4.06,0,0,1-2.74,2.26c-.62.06-2.71,0-3.59.88a2.7,2.7,0,0,0-.6,3c1.3,2.74,2.58,3.15,3.47,4.62a5.78,5.78,0,0,1,.79,3.26,1.94,1.94,0,0,1-1.88,2.06,2.41,2.41,0,0,0,1.17-1.52c.06-.65-.07-1.51-.79-1.38s-.52,1.49-.77,2.21a4.69,4.69,0,0,1-2.7,2.75,8.13,8.13,0,0,1-6.49.17c-1.53-.48-2.55-1.94-2.24-3.12.31,1.18,1.17,1.81,1.95,1.6a.92.92,0,0,0,.28-1.7c-.77-.61-2.19-.23-2.93-1.49A2.41,2.41,0,0,1,8,33.39c.44-.67,1-.9,1.26-1.42a2,2,0,0,0-.14-1.76,2,2,0,0,1,.78,1.48C9.79,32.92,9,33.22,8.7,33.76a1.41,1.41,0,0,0,.77,1.94c.41.14,1.24.14,1.46-.52.16-.46-.4-.63,0-1.39A1.75,1.75,0,0,1,12.1,33s-.85.41-.88,1,.5.51.49,1.2c0,.53-.35,1-.23,1.6s.43,1.11,2.16.53c-2.32-.64-.7-3.61.85-4.15-2.2,2-1.15,3.57.13,3.31C16.53,36.1,18.16,33.63,16,30,15.48,29.22,13.79,25.22,8.75,25.65Z" transform="translate(-0.17 -0.52)"/><path class="cls-4" d="M11.27,31.63c.45.19.55-.38.3-1a1.92,1.92,0,0,0-1.17-.82C11.85,30.61,10.49,31.3,11.27,31.63Z" transform="translate(-0.17 -0.52)"/><path class="cls-5" d="M20,35.5" transform="translate(-0.17 -0.52)"/><path class="cls-6" d="M14.3,27.6c-1.31-1.52-1.36-1-2.41-2.49a12.19,12.19,0,0,1-1.77-4.32c-.28-1.34-.74-3.72-3.19-3.63-1.42.05-2-.32-3.78-2.57-.91-1.17,1.34,5.68,1.34,5.68L6.25,23.5A2.69,2.69,0,0,0,9,25.65,6.62,6.62,0,0,1,14.3,27.6Z" transform="translate(-0.17 -0.52)"/><path class="cls-7" d="M15.73,21.75c0-.62-.48-4.31-3.35-5A2,2,0,0,0,9.9,18.05c-.3,1.33.55,4.45,1.31,5.9a12.05,12.05,0,0,0,2.53,3.14,51.61,51.61,0,0,1,3.08,4.17Z" transform="translate(-0.17 -0.52)"/><path class="cls-8" d="M21.14,24.55a6.89,6.89,0,0,0-1.89.42,2.46,2.46,0,0,0-1.43,2c-.22,1.23-1.42-2.53-1.56-3.39-.08-.51-.9-4.9,5.08-6.56" transform="translate(-0.17 -0.52)"/><path class="cls-9" d="M14.08,12.89c1.6.25,1.77.7,1.91,1.16s.17.89-.75,1.84-4.13.83-4.13.83A6.13,6.13,0,0,0,12.47,16a1.46,1.46,0,0,0,.38-.84" transform="translate(-0.17 -0.52)"/><path class="cls-10" d="M10.59,13A22.77,22.77,0,0,1,13,13.7c.78.32.73.72.52.87a1.57,1.57,0,0,1-.27.16" transform="translate(-0.17 -0.52)"/><path class="cls-11" d="M15.43,28.56a25.59,25.59,0,0,1,3.79,4.8,6.29,6.29,0,0,1-.1,4.36c-.73,1.82-4.82,3.43-6.89.66l2.27-1.2a7.35,7.35,0,0,0,2-2,4.51,4.51,0,0,0,.22-3.53c-.58-1.31-1.45-2.81-1.45-2.81Z" transform="translate(-0.17 -0.52)"/><path class="cls-2" d="M35.36,35.51c0-.46,0-.92,0-1.38h.58v3c0,.45,0,.91,0,1.36h-.62c0-.59,0-1,0-1.36Zm3.4,2.94a.45.45,0,0,1-.16,0,1,1,0,0,1-.44,0c-.35-.17-.55-.56-.86-1.32a2.52,2.52,0,0,0-.66-1,1,1,0,0,0-.46-.17l-.06-.23.57-.7a7.41,7.41,0,0,0,.65-.9h.55c-.14.14-.34.37-.61.67l-.81,1a1.53,1.53,0,0,1,.65.26,2.38,2.38,0,0,1,.62.76,2.36,2.36,0,0,1,.12.26s.07.14.12.25a1.39,1.39,0,0,1,.09.22,1.51,1.51,0,0,0,.38.7.72.72,0,0,0,.32.15Z" transform="translate(-0.17 -0.52)"/><path class="cls-2" d="M46.9,37.75a3.94,3.94,0,0,0,.21-.7,12.39,12.39,0,0,0,.22-2.66c-.2,0-.39,0-.39,0v-.28H50c0,.28,0,.83,0,1.67v1.29a11.76,11.76,0,0,0,0,1.38h-.58v-3c0-.1,0-.47,0-1.1-.24,0-.83,0-1.75,0,0,2.34-.37,4.21-1.22,4.19a.56.56,0,0,1-.39-.14l.08-.25,0,0a.57.57,0,0,0,.24.06C46.57,38.25,46.73,38.12,46.9,37.75Z" transform="translate(-0.17 -0.52)"/><path class="cls-2" d="M61.6,37.11c0,.65,0,1.11,0,1.36H61a11.58,11.58,0,0,0,0-1.36V34.68c-.24.38-.58.89-1,1.54l-1,1.61-.41.64H58c0-.29,0-.75,0-1.38V35.5a13.4,13.4,0,0,0,0-1.37h.63a11.77,11.77,0,0,0,0,1.37v2.42l1.11-1.68c.16-.26.36-.55.58-.89.44-.69.74-1.15.77-1.22h.58a12,12,0,0,0,0,1.38Z" transform="translate(-0.17 -0.52)"/><path class="cls-2" d="M73.25,37.09c0,.46,0,.93,0,1.38h-.59c0-.11,0-.32,0-.64v-1.5c-.18,0-.59,0-1.23,0H70.26v.79c0,.45,0,.91,0,1.36h-.62c0-.59,0-1,0-1.36v-1.6c0-.46,0-.92,0-1.38h.59v.65c0,.31,0,.53,0,.65V36c.19,0,.61,0,1.23,0s1.05,0,1.23,0V35.5c0-.46,0-.91,0-1.37h.63c0,.39,0,.85,0,1.37Z" transform="translate(-0.17 -0.52)"/><path class="cls-2" d="M84.91,37.11c0,.65,0,1.11,0,1.36h-.62c0-.29,0-.75,0-1.36V34.68l-1,1.54-1.05,1.61-.41.64h-.58a11.76,11.76,0,0,0,0-1.38V35.5c0-.66,0-1.11,0-1.37H82c0,.3,0,.75,0,1.37v2.42L83,36.24c.16-.26.35-.55.57-.89l.78-1.22H85a10,10,0,0,0,0,1.38Z" transform="translate(-0.17 -0.52)"/><path class="cls-2" d="M95.23,36.71a2.64,2.64,0,0,1-.63.15,5,5,0,0,1-.71.06,1,1,0,0,1-.91-.41,1.49,1.49,0,0,1-.2-.76v-.46c0-.52,0-.95,0-1.07v-.09h.57c0,.26,0,.65,0,1.2v.28c0,.66.26,1,.8,1a2.91,2.91,0,0,0,1.15-.21v-.89c0-.66,0-1.12,0-1.38h.62a13.63,13.63,0,0,0,0,1.38v1.6a13.16,13.16,0,0,0,0,1.36h-.62c0-.25,0-.71,0-1.36Z" transform="translate(-0.17 -0.52)"/><path class="cls-2" d="M103.83,38.47c0-.73,0-1.19,0-1.37V35.51c0-.46,0-.92,0-1.38h2v.35c-.48,0-.94-.07-1.4-.08v1.72c.57,0,1,0,1.19,0v.34l-1.19,0V38.2a14,14,0,0,0,1.4-.07v.34Z" transform="translate(-0.17 -0.52)"/><path class="cls-2" d="M116.61,38.36a2.13,2.13,0,0,1-1,.2,2.29,2.29,0,0,1-1.66-.62,2.3,2.3,0,0,1,1.71-3.9,2.5,2.5,0,0,1,1,.17l-.08.36a1.6,1.6,0,0,0-.9-.27,1.81,1.81,0,0,0-1.82,2,2.22,2.22,0,0,0,.47,1.43,1.54,1.54,0,0,0,1.26.57,1.62,1.62,0,0,0,1-.27Z" transform="translate(-0.17 -0.52)"/><path class="cls-2" d="M124.42,35.51c0-.46,0-.92,0-1.38H125v3c0,.45,0,.91,0,1.36h-.62c0-.59,0-1,0-1.36Zm3.41,2.94-.16,0a1,1,0,0,1-.45,0c-.34-.17-.55-.56-.86-1.32a2.52,2.52,0,0,0-.65-1,1,1,0,0,0-.46-.17l-.07-.23.58-.7a8.68,8.68,0,0,0,.65-.9H127c-.14.14-.34.37-.61.67l-.82,1a1.53,1.53,0,0,1,.65.26,2.59,2.59,0,0,1,.46.48,1.62,1.62,0,0,1,.16.28,1.52,1.52,0,0,1,.13.26s.07.14.12.25l.09.22a1.51,1.51,0,0,0,.38.7.67.67,0,0,0,.32.15Z" transform="translate(-0.17 -0.52)"/><path class="cls-2" d="M139.06,37.11c0,.65,0,1.11,0,1.36h-.62c0-.29.05-.75.05-1.36V34.68l-1,1.54-1.05,1.61-.41.64h-.58a11.76,11.76,0,0,0,.05-1.38V35.5c0-.66,0-1.11,0-1.37h.62c0,.3-.05.75-.05,1.37v2.42l1.12-1.68c.16-.26.36-.55.57-.89l.78-1.22h.58a10,10,0,0,0-.05,1.38Z" transform="translate(-0.17 -0.52)"/><path class="cls-2" d="M150.71,37.11c0,.65,0,1.11,0,1.36h-.62a11.58,11.58,0,0,0,.05-1.36V34.68l-1,1.54-1,1.61-.42.64h-.57c0-.29,0-.75,0-1.38V35.5c0-.66,0-1.11,0-1.37h.62c0,.3,0,.75,0,1.37v2.42l1.12-1.68c.16-.26.36-.55.57-.89l.78-1.22h.58a10,10,0,0,0,0,1.38Zm-2.41-4.24h.22a.51.51,0,0,0,1,0h.22a.73.73,0,1,1-1.45,0Z" transform="translate(-0.17 -0.52)"/><path class="cls-2" d="M167.62,35.51c0-.46,0-.92-.05-1.38h3.62c0,.46,0,.92,0,1.38v1.6c0,.51,0,1,0,1.36h-.62c0-.22,0-.77,0-1.66V34.48a5.88,5.88,0,0,0-1.19-.08h-.08a5.47,5.47,0,0,0-1.19.08v2.63c0,.45,0,.91,0,1.36h-.62c0-.59,0-1,0-1.36Z" transform="translate(-0.17 -0.52)"/><path class="cls-2" d="M182.3,38.36a2.15,2.15,0,0,1-1.06.2,2.3,2.3,0,0,1-1.66-.62,2.31,2.31,0,0,1,1.71-3.9,2.55,2.55,0,0,1,1,.17l-.09.36a1.54,1.54,0,0,0-.89-.27,1.81,1.81,0,0,0-1.82,2,2.21,2.21,0,0,0,.46,1.43,1.57,1.57,0,0,0,1.26.57,1.63,1.63,0,0,0,1-.27Z" transform="translate(-0.17 -0.52)"/><path class="cls-2" d="M193.63,37.11a13.16,13.16,0,0,0,.05,1.36h-.63a11.58,11.58,0,0,0,0-1.36V34.68c-.24.38-.58.89-1,1.54l-1,1.61-.41.64h-.58c0-.29.05-.75.05-1.38V35.5c0-.66,0-1.11,0-1.37h.62a11.77,11.77,0,0,0-.05,1.37v2.42l1.12-1.68c.16-.26.35-.55.57-.89.44-.69.74-1.15.77-1.22h.58a12,12,0,0,0-.05,1.38Z" transform="translate(-0.17 -0.52)"/><path class="cls-2" d="M203.9,37.1c.31.52.61,1,.88,1.37h-.72a12.26,12.26,0,0,0-.87-1.56l-.21-.35-.36.55-.87,1.36h-.42l.95-1.36.53-.81-.48-.8c-.39-.63-.69-1.09-.9-1.37h.73c.2.4.45.86.75,1.37l.24.39.26-.39.87-1.37h.43c-.21.26-.53.72-1,1.37l-.43.66Z" transform="translate(-0.17 -0.52)"/><path class="cls-2" d="M212.82,37.93a2.11,2.11,0,0,1-.68-1.61,2.14,2.14,0,0,1,.69-1.66,2.54,2.54,0,0,1,3.34,0,2.11,2.11,0,0,1,.68,1.61,2.14,2.14,0,0,1-.69,1.67,2.36,2.36,0,0,1-1.65.62A2.34,2.34,0,0,1,212.82,37.93Zm.43-.19a1.58,1.58,0,0,0,1.26.56,1.65,1.65,0,0,0,1.25-.58,2,2,0,0,0,.5-1.44,2.09,2.09,0,0,0-.52-1.41,1.56,1.56,0,0,0-1.26-.57,1.64,1.64,0,0,0-1.26.59,2,2,0,0,0-.49,1.44A2.13,2.13,0,0,0,213.25,37.74Z" transform="translate(-0.17 -0.52)"/><path class="cls-2" d="M225.06,37.75a4.89,4.89,0,0,0,.22-.7,13.23,13.23,0,0,0,.21-2.66c-.2,0-.39,0-.39,0v-.28h3.05c0,.28,0,.83,0,1.67v1.29a11.76,11.76,0,0,0,0,1.38h-.58v-3c0-.1,0-.47,0-1.1-.24,0-.83,0-1.74,0,0,2.34-.38,4.21-1.23,4.19a.56.56,0,0,1-.39-.14l.08-.25,0,0a.57.57,0,0,0,.24.06C224.73,38.25,224.89,38.12,225.06,37.75Z" transform="translate(-0.17 -0.52)"/><path class="cls-2" d="M236.58,37.93a2.11,2.11,0,0,1-.68-1.61,2.14,2.14,0,0,1,.69-1.66,2.54,2.54,0,0,1,3.34,0,2.11,2.11,0,0,1,.68,1.61,2.14,2.14,0,0,1-.69,1.67,2.36,2.36,0,0,1-1.65.62A2.34,2.34,0,0,1,236.58,37.93Zm.42-.19a1.62,1.62,0,0,0,1.27.56,1.66,1.66,0,0,0,1.25-.58,2,2,0,0,0,.5-1.44,2.09,2.09,0,0,0-.52-1.41,1.56,1.56,0,0,0-1.26-.57,1.64,1.64,0,0,0-1.26.59,2,2,0,0,0-.49,1.44A2.17,2.17,0,0,0,237,37.74Z" transform="translate(-0.17 -0.52)"/><path class="cls-2" d="M248.38,35.5c0-.66,0-1.11,0-1.37h2v.35a7.73,7.73,0,0,0-1.41-.09c0,.24,0,.61,0,1.11v1.35c0,.23,0,.48,0,.75,0,.53,0,.87,0,.87h-.61c0-.25,0-.71,0-1.38Z" transform="translate(-0.17 -0.52)"/><path class="cls-2" d="M187.39.93a8.82,8.82,0,0,1-1.72,5.24,23.6,23.6,0,0,1-3,2.4,5.3,5.3,0,0,0-1.05,2,.33.33,0,0,1-.39.3c-.16,0-.25,0-.35-.27a7.06,7.06,0,0,1,1.31-4.1,16.91,16.91,0,0,1,3-3,3.87,3.87,0,0,0,1.32-1.7c.06-.3.05-.6.08-.86s.17-.43.31-.43S187.24.53,187.39.93Z" transform="translate(-0.17 -0.52)"/><path class="cls-2" d="M62.64,29.39V26.91H50.21l.12,2.74-2.13.85-.57-5.93h2.6c2.5-3.06,3.25-6.84,4-11.34l-.32-2.37h9l.71,13.71H65l-.43,4.82Zm-1.17-4.82-1-11.66-3.93.32c-.41,3.46-1.32,8.24-3.47,11.34Z" transform="translate(-0.17 -0.52)"/><path class="cls-2" d="M126.67,30.5V26.91H112.8l.12,2.74-2.13.85-.57-5.93h2.6c2.5-3.06,3.25-6.84,4-11.34l-.32-2.37h9l.71,13.71H129l-.59,6.21Zm-2.61-5.93-1-11.92-3.93.58c-.41,3.46-1.32,8.24-3.47,11.34Z" transform="translate(-0.17 -0.52)"/><path class="cls-2" d="M163.69,10.84,171,27.17h-2.62l-2-4.5a22.8,22.8,0,0,0-4.07-.07,5,5,0,0,0-3.71,2.22l-1.41,2.35h-2.54l7.07-16.05Zm1.78,10.06-2.7-6.62-3.48,8.77a6,6,0,0,1,3.22-2A9.2,9.2,0,0,1,165.47,20.9Z" transform="translate(-0.17 -0.52)"/><path class="cls-2" d="M88.54,10.84,95.8,27.17H93.17l-2-4.5a22.76,22.76,0,0,0-4.07-.07,5,5,0,0,0-3.71,2.22L82,27.17H79.43l7.06-16.05ZM90.31,20.9l-2.7-6.62-3.48,8.77a6,6,0,0,1,3.22-2A9.2,9.2,0,0,1,90.31,20.9Z" transform="translate(-0.17 -0.52)"/><path class="cls-2" d="M71,27H68.63V11h11.3v2.36H71Z" transform="translate(-0.17 -0.52)"/><path class="cls-2" d="M98.15,27V11h8.24c2.84,0,4.69,1.72,4.69,4.58a4.37,4.37,0,0,1-4.69,4.65h-2.84a6.16,6.16,0,0,0-3,.48V27Zm8.24-9.18a2.06,2.06,0,0,0,2.37-2.28c0-1.61-.82-2.22-2.37-2.22H100.5v5.14a5.92,5.92,0,0,1,3-.64Z" transform="translate(-0.17 -0.52)"/><polygon class="cls-2" points="189.44 10.45 191.76 10.45 191.76 26.49 189.44 26.49 189.44 12.62 175.85 26.49 173.53 26.49 173.53 10.45 175.85 10.45 175.85 22.82 189.44 10.45"/><path class="cls-2" d="M212.19,24.67l-2.58,5.72H207.9l.62-3.38h-12.7V11h2.33l-.49,13.7h9.07V11h2.34v13.7Z" transform="translate(-0.17 -0.52)"/><path class="cls-2" d="M244.83,27.35H230.94v-16h13.89c2.71,0,4.74,1.57,4.74,4.39a3.61,3.61,0,0,1-1.45,3.16A4.31,4.31,0,0,1,250.34,23C250.34,26.14,247.5,27.35,244.83,27.35Zm-11.56-8.78c1-.56,3.51-.65,4.57-.65h7a2.1,2.1,0,0,0,2.39-2.21c0-1.53-1-2-2.39-2H233.27Zm0,6.43h11.8c1.31,0,3-.73,3-2.34,0-1.87-1.59-2.72-3.14-2.72l-7.18-.2a12.88,12.88,0,0,0-4.43.7Z" transform="translate(-0.17 -0.52)"/><path class="cls-2" d="M39.52,10.13a12,12,0,0,0-4.32.74l.63,2.41a6.21,6.21,0,0,1,3.71-.78c2.87,0,4.2,1.22,4.72,3.33h0a13.89,13.89,0,0,1,.23,4.5,6.2,6.2,0,0,1-.17,1.33h0A4.2,4.2,0,0,1,40,24.85c-2,0-4.27-.11-5.54-1.46l-.56,2.82a15.83,15.83,0,0,0,6.12,1c4.86,0,6.81-3.79,6.81-8.63S45,10.13,39.52,10.13Z" transform="translate(-0.17 -0.52)"/><path class="cls-2" d="M151.17,18.47a3.24,3.24,0,0,0,1.44-3c0-1.85-1.06-5.13-5.49-5.13a7.51,7.51,0,0,0-4,1l.66,2.47a4.82,4.82,0,0,1,3.35-1.58c1.4,0,3.55,1.15,3.55,2.91,0,1.49-.53,2.73-2.79,2.43L145,17.32l-.07,1.81,3.42.16c1.89.22,2.72,1.14,2.72,3,0,1.47-1.07,2.74-4.21,2.74A6.09,6.09,0,0,1,142,23l-.54,2.8a10.64,10.64,0,0,0,5.39,1.55c4.77,0,6.54-2.45,6.54-5.05A4.1,4.1,0,0,0,151.17,18.47Z" transform="translate(-0.17 -0.52)"/><path class="cls-2" d="M45.82,19.87a7.51,7.51,0,0,1-4.68-.16,20.48,20.48,0,0,1-2.65-1.84,4.63,4.63,0,0,0-1.88-.38.28.28,0,0,1-.33-.25c0-.13,0-.22.13-.35a6,6,0,0,1,3.65.1,14,14,0,0,1,3.14,1.73,3.41,3.41,0,0,0,1.7.67c.26,0,.5-.1.72-.14s.39,0,.42.15S46.11,19.66,45.82,19.87Z" transform="translate(-0.17 -0.52)"/><polygon class="cls-2" points="217.07 24.96 217.07 19.35 217.07 19.35 217.07 18.2 217.07 18.21 217.07 12.7 227.13 13.15 227.13 10.79 214.73 10.79 214.73 26.84 228.07 26.84 228.07 24.49 217.07 24.96"/><path class="cls-2" d="M216.21,19.8c0-.12.2-.2.42-.16a5,5,0,0,0,.73.14,3.32,3.32,0,0,0,1.71-.67,13.68,13.68,0,0,1,3.17-1.74,6.05,6.05,0,0,1,3.67-.11c.16.14.18.23.14.36a.29.29,0,0,1-.34.25,4.67,4.67,0,0,0-1.89.38,20,20,0,0,1-2.67,1.86,7.48,7.48,0,0,1-4.72.16C216.14,20.05,216.17,19.91,216.21,19.8Z" transform="translate(-0.17 -0.52)"/></svg>