<?xml version="1.0" encoding="UTF-8"?> <svg xmlns="http://www.w3.org/2000/svg" width="573" height="187" viewBox="0 0 573 187" fill="none"> <path opacity="0.4" d="M23.6732 80.1481C23.715 80.1415 23.7326 80.1173 23.7261 80.0755C23.7326 80.1173 23.715 80.1415 23.6732 80.1481ZM16.189 99.6323C16.1472 99.6389 16.1231 99.6213 16.1165 99.5795L16.189 99.6323ZM32.6241 76.1755C31.4788 77.3401 30.3178 78.6786 29.1412 80.1908C27.8876 81.7579 26.8233 83.1669 25.9485 84.4176C25.0252 85.6331 24.4755 86.3618 24.2992 86.6036C23.649 87.6478 22.957 88.6986 22.2231 89.7559C21.108 91.387 20.0413 93.0534 19.0229 94.755C19.5889 92.3533 19.9761 90.4507 20.1846 89.0474C20.8966 85.9374 21.4799 82.8262 21.9346 79.7137C22.0635 78.6227 21.7476 77.8369 20.987 77.3564C20.2263 76.8759 19.4169 76.7672 18.5586 77.0302C17.7002 77.2932 17.1616 77.9558 16.9425 79.0182C16.7185 80.5953 16.4252 82.1405 16.0626 83.6536L16.0724 83.7163L15.2393 87.8305C14.3706 91.3076 13.6933 94.7762 13.2075 98.2363C13.0877 99.1117 13.3035 99.8061 13.8551 100.319C14.4133 100.874 15.0752 101.135 15.8408 101.1C16.6065 101.066 17.2361 100.71 17.7297 100.033C18.2807 99.1761 19.2671 97.5438 20.6889 95.1364C23.2989 90.7439 26.1493 86.6564 29.2404 82.8738C30.3218 81.8477 31.3294 80.8974 32.2632 80.0229C32.275 83.1051 32.9197 85.8525 34.1972 88.2652C35.8305 91.3075 38.8374 92.5925 43.2182 92.1203C47.1073 90.697 50.5452 88.445 53.532 85.3641C56.5188 82.2832 59.2814 79.0019 61.8199 75.52L64.1665 72.4538C64.4486 72.0669 64.5007 71.7161 64.3228 71.4013C64.1516 71.1283 63.8921 70.9762 63.5446 70.945C63.197 70.9138 62.8822 71.0916 62.6002 71.4785C61.4186 73.5055 60.1194 75.4652 58.7026 77.3578C55.882 81.2265 52.6275 84.6491 48.939 87.6258C46.6312 89.5723 44.1935 90.5539 41.6261 90.5707C39.1005 90.5809 37.1936 89.2092 35.9055 86.4555C35.0394 83.9355 34.9501 81.3152 35.6375 78.5946C35.8762 77.6577 36.1632 76.756 36.4986 75.8896C37.3423 74.9864 38.0769 74.2074 38.7025 73.5525C39.7184 72.1083 39.7994 70.575 38.9455 68.9526C38.9324 68.869 38.8984 68.7887 38.8435 68.7116C38.446 68.0885 37.8513 67.7105 37.0595 67.5776C36.3095 67.4381 35.627 67.8663 35.012 68.8622C34.0928 70.3769 33.2969 72.8147 32.6241 76.1755ZM107.584 64.3655C107.706 64.0466 107.916 63.8852 108.215 63.8811C108.515 63.8771 108.767 63.9874 108.974 64.212C109.174 64.3949 109.213 64.6457 109.092 64.9646C108.148 66.8687 106.987 68.6141 105.608 70.2009C104.222 71.7458 102.764 73.2379 101.233 74.6771C100.973 74.932 100.731 75.1627 100.506 75.3693C96.8128 78.8607 93.1641 81.6812 89.5602 83.8308C85.9497 85.9386 82.651 86.7553 79.6639 86.281C76.7122 85.7583 74.3083 83.2651 72.4523 78.8014C70.335 83.3309 67.9858 87.7468 65.4045 92.0491C63.9943 93.9835 62.3555 94.7329 60.4882 94.2973C58.5725 93.8264 57.6129 92.3491 57.6092 89.8653C58.131 81.9877 60.6705 74.822 65.2277 68.3682C66.7019 66.2953 68.629 64.5156 71.0089 63.029C71.9534 62.4955 72.7883 62.4932 73.5136 63.022C74.2808 63.5443 74.7156 64.2686 74.8179 65.195C74.9137 66.0795 74.4926 66.8094 73.5547 67.3847C70.6681 69.4647 68.388 72.135 66.7144 75.3956C65.076 78.6079 63.9368 81.999 63.2968 85.5688C66.0306 80.6 68.5083 75.5 70.7299 70.2689C71.0784 69.4861 71.6256 69.0148 72.3716 68.8551C73.1594 68.6888 73.8644 68.8139 74.4865 69.2305C75.1504 69.6404 75.5269 70.2668 75.6162 71.1095C75.1796 73.7908 75.3624 76.4607 76.1645 79.1192C77.0018 81.7294 78.8853 83.3618 81.8149 84.0164C85.9473 83.3261 89.9446 81.5004 93.8069 78.5393C97.6692 75.5782 101.052 72.5638 103.955 69.496C105.473 67.9732 106.682 66.263 107.584 64.3655ZM128.634 77.13C130.676 80.3224 133.682 81.3291 137.652 80.1502C141.224 79.1622 145.048 77.3209 149.123 74.6263C153.198 71.9316 156.892 69.1255 160.204 66.2078C163.517 63.2901 165.856 60.996 167.222 59.3256C167.391 59.042 167.694 58.6519 168.131 58.1552C168.75 57.4585 169.282 56.7541 169.727 56.0418C170.13 55.336 170.084 54.7651 169.587 54.3289C169.4 54.2297 169.205 54.2174 169.003 54.2919C168.752 54.3312 168.559 54.4685 168.425 54.7038C166.939 57.2496 165.136 59.5454 163.015 61.5911C161.911 62.7492 159.855 64.5277 156.847 66.9265C153.839 69.3254 150.558 71.6172 147.002 73.8021C143.398 75.9516 140.181 77.291 137.352 77.82C134.48 78.3557 132.755 77.5979 132.177 75.5469C131.895 73.7491 131.948 71.899 132.335 69.9965C132.881 67.4693 133.69 65.1152 134.762 62.934C135.252 61.9578 135.228 61.1262 134.692 60.4392C134.15 59.7103 133.444 59.3069 132.575 59.2289C131.658 59.1156 130.906 59.5118 130.32 60.4175L128.152 63.3916C125.771 65.6922 123.417 64.8831 121.089 60.9644C120.443 60.1232 119.711 58.8673 118.892 57.1965C118.241 55.4996 117.032 55.3035 115.266 56.6082C114.3 57.2736 112.961 58.7043 111.249 60.9001C110.235 62.0869 109.633 62.8881 109.441 63.3036L108.922 64.0917L107.533 66.3011C107.277 66.8552 107.399 67.2216 107.898 67.4004C108.397 67.5792 108.785 67.4543 109.06 67.0256L109.546 66.4354L110.277 65.3572C112.048 62.7237 113.549 60.8181 114.778 59.6403C115.683 58.856 116.285 58.4618 116.584 58.4577C116.925 58.4471 117.259 58.8017 117.586 59.5215C120.034 63.9354 122.147 66.3457 123.924 66.7526C125.666 67.2079 127.137 66.8917 128.337 65.8041C127.857 67.9353 127.665 70.1285 127.762 72.3836C127.744 74.1854 128.035 75.7675 128.634 77.13ZM177.155 56.0985C177.197 56.092 177.215 56.0678 177.208 56.026C177.215 56.0678 177.197 56.092 177.155 56.0985ZM169.671 75.5828C169.63 75.5894 169.605 75.5717 169.599 75.5299L169.671 75.5828ZM186.106 52.1259C184.961 53.2906 183.8 54.629 182.624 56.1413C181.37 57.7084 180.306 59.1173 179.431 60.3681C178.508 61.5836 177.958 62.3123 177.782 62.5541C177.131 63.5983 176.439 64.6491 175.705 65.7064C174.59 67.3375 173.524 69.0038 172.505 70.7054C173.071 68.3037 173.458 66.4012 173.667 64.9978C174.379 61.8879 174.962 58.7767 175.417 55.6642C175.546 54.5732 175.23 53.7874 174.469 53.3069C173.709 52.8264 172.899 52.7177 172.041 52.9806C171.183 53.2436 170.644 53.9063 170.425 54.9686C170.201 56.5458 169.907 58.0909 169.545 59.6041L169.555 59.6668L168.722 63.7809C167.853 67.2581 167.176 70.7267 166.69 74.1867C166.57 75.0622 166.786 75.7565 167.337 76.2698C167.896 76.8248 168.557 77.0852 169.323 77.0509C170.089 77.0166 170.718 76.6609 171.212 75.9839C171.763 75.1266 172.749 73.4942 174.171 71.0869C176.781 66.6944 179.632 62.6068 182.723 58.8243C183.804 57.7981 184.812 56.8478 185.746 55.9733C185.757 59.0555 186.402 61.803 187.68 64.2157C189.313 67.258 192.32 68.543 196.7 68.0707C200.59 66.6475 204.027 64.3954 207.014 61.3146C210.001 58.2337 212.764 54.9523 215.302 51.4705L217.649 48.4043C217.931 48.0174 217.983 47.6666 217.805 47.3517C217.634 47.0787 217.374 46.9266 217.027 46.8954C216.679 46.8642 216.365 47.0421 216.082 47.4289C214.901 49.4559 213.602 51.4157 212.185 53.3082C209.364 57.1769 206.11 60.5996 202.421 63.5763C200.113 65.5227 197.676 66.5044 195.108 66.5212C192.583 66.5314 190.676 65.1597 189.388 62.406C188.522 59.886 188.432 57.2657 189.12 54.5451C189.358 53.6082 189.646 52.7065 189.981 51.8401C190.825 50.9369 191.559 50.1579 192.185 49.503C193.201 48.0588 193.282 46.5255 192.428 44.9031C192.415 44.8195 192.381 44.7391 192.326 44.6621C191.928 44.039 191.334 43.661 190.542 43.5281C189.792 43.3886 189.109 43.8168 188.494 44.8127C187.575 46.3274 186.779 48.7651 186.106 52.1259ZM221.611 49.711C221.618 49.7528 221.6 49.7769 221.558 49.7835C221.6 49.7769 221.618 49.7528 221.611 49.711ZM265.123 39.5518C266.36 38.9725 266.927 39.0336 266.823 39.7353C266.712 40.3952 266.19 41.4407 265.258 42.8718C264.319 44.2611 263.223 45.7393 261.969 47.3064C260.709 48.8317 259.572 50.1878 258.559 51.3746C257.581 52.513 256.98 53.1855 256.755 53.3921C255.905 54.2535 255.04 55.16 254.161 56.1115C251.967 58.5113 249.642 60.7603 247.187 62.8584C244.725 64.9147 241.935 66.38 238.816 67.2541C236.387 67.3348 234.624 66.6046 233.526 65.0633C232.428 63.522 231.768 61.6336 231.546 59.3982C231.324 57.1627 231.31 55.0232 231.504 52.9797C229.848 55.8091 227.903 58.427 225.667 60.8334C223.394 62.7315 221.454 63.3353 219.847 62.6449C218.239 61.9544 217.081 60.5725 216.37 58.4993C215.66 56.4261 215.514 54.2644 215.932 52.0143C216.202 49.3592 216.776 47.5559 217.655 46.6043C218.575 45.6462 219.48 45.2689 220.369 45.4723C221.299 45.6692 221.92 46.2144 222.231 47.108C222.578 47.9532 222.297 48.8967 221.39 49.9384C221.431 49.9318 221.473 49.9253 221.515 49.9187C221.55 49.8704 221.565 49.8253 221.558 49.7835C221.523 49.8319 221.491 49.9011 221.462 49.9913C220.877 51.4536 220.43 53.1086 220.12 54.9562C219.845 56.7555 220.136 58.3376 220.992 59.7026C222.019 59.97 223.078 59.4829 224.168 58.2411C225.252 56.9576 226.273 55.4056 227.23 53.5851C228.18 51.7229 228.989 50.054 229.658 48.5786C230.041 47.7475 230.347 47.0999 230.574 46.636C230.836 46.1237 231.089 45.5487 231.332 44.911C231.826 43.42 232.576 42.1888 233.58 41.2176C234.261 40.6398 234.961 40.4657 235.683 40.6954C236.439 40.8767 237.002 41.3239 237.371 42.0372C237.733 42.7086 237.695 43.4213 237.256 44.1754C237.122 44.4107 237.005 44.6217 236.906 44.8086C236.864 44.8152 236.843 44.8184 236.843 44.8184L236.915 44.8713C236.88 44.9197 236.827 44.9922 236.757 45.0889C236.721 45.1373 236.707 45.1824 236.714 45.2242C236.246 46.0684 235.866 46.9205 235.572 47.7803C234.276 51.5386 233.745 55.3913 233.978 59.3383C234.602 63.8667 236.357 65.7761 239.245 65.0667C242.174 64.3507 245.485 62.247 249.178 58.7556C252.914 55.2576 256.303 51.5996 259.345 47.7818C262.388 43.964 264.314 41.2207 265.123 39.5518ZM307.59 41.186C308.615 37.3417 308.759 34.0209 308.021 31.2239C307.331 28.4621 305.496 26.8649 302.515 26.4324C300.591 26.1772 298.564 26.3662 296.436 26.9995C294.746 27.6927 293.286 28.6282 292.057 29.8059C290.879 30.7616 289.87 31.8406 289.03 33.043C288.543 33.7618 288.042 34.5257 287.526 35.3347L286.829 36.215L285.315 38.444C285.059 38.9981 285.024 39.3248 285.211 39.424C285.508 39.6773 285.867 39.6426 286.287 39.3197L286.922 38.4492L288.062 37.114C289.607 34.9445 291.112 33.2093 292.579 31.9087C293.892 30.7178 294.898 29.8962 295.598 29.4438C297.249 28.4997 299.277 28.182 301.681 28.4906C303.342 28.7016 304.253 29.4584 304.414 30.7609C304.582 32.1053 304.523 33.5067 304.238 34.9649L304.068 36.3408C303.658 38.3753 302.911 40.8484 301.825 43.7599C301.392 45.3698 300.811 46.853 300.081 48.2095C298.433 51.6374 296.549 53.2819 294.429 53.143C291.61 53.1991 289.4 51.9392 287.797 49.3633C287.209 47.5278 286.236 47.0592 284.878 47.9574C283.453 49.2515 283.385 50.8684 284.674 52.8081C287.625 56.3294 290.868 58.0272 294.403 57.9015C297.706 57.384 299.903 56.5044 300.993 55.2627C301.821 54.5332 302.614 53.4452 303.373 51.9985C303.735 51.2993 304.075 50.6034 304.395 49.9108C307.097 46.1035 309.342 43.0746 311.131 40.8239C311.027 41.5256 310.905 42.2514 310.766 43.0015C310.677 43.5294 310.606 44.0331 310.553 44.5126C310.302 45.9225 310.102 47.9243 309.952 50.5179C309.915 51.3802 309.898 52.0897 309.9 52.6463C309.895 53.1611 310.17 53.4177 310.727 53.4162C311.325 53.4081 311.847 53.0479 312.292 52.3356C313.288 49.3954 315.155 45.5905 317.893 40.9209C318.158 45.077 319.336 48.0836 321.426 49.9407C323.046 51.5287 325.81 52.0809 329.717 51.5971C334.101 50.8674 337.657 49.6462 340.387 47.9334C342.989 46.4977 346.554 43.4119 351.08 38.6763C355.607 33.9406 359.325 29.6528 362.236 25.8128C362.364 25.5357 362.37 25.2992 362.253 25.1033C362.137 24.9074 361.968 24.784 361.746 24.7331C361.482 24.6888 361.261 24.7875 361.085 25.0293C360.054 26.6473 358.925 28.1948 357.701 29.6718C354.116 34.1313 350.141 38.288 345.776 42.1416C345.475 42.4031 345.155 42.6887 344.818 42.9985C342.616 44.7999 341.067 45.985 340.171 46.5537C335.727 48.5351 332.2 49.5375 329.591 49.5608C327.336 49.6572 325.48 49.1556 324.022 48.0561C321.906 46.0318 321.068 43.5503 321.507 40.6117C322.592 37.7001 323.947 35.0034 325.572 32.5216C327.154 30.0462 328.93 28.3972 330.9 27.5745C331.892 27.8903 332.725 27.7384 333.399 27.1188C334.038 26.5475 334.351 25.8131 334.339 24.9155C334.333 24.0597 333.863 23.3837 332.929 22.8876C331.46 22.2611 330.02 22.2297 328.609 22.7934C327.157 23.3637 325.931 24.1554 324.934 25.1684C323.396 26.5658 321.735 28.9465 319.949 32.3104C319.523 33.1481 319.119 33.9825 318.735 34.8136C316.9 38.9563 315.093 42.3234 313.314 44.9151C313.381 44.5192 313.433 44.1684 313.471 43.8626C314.066 40.5567 314.413 38.1251 314.512 36.5676C314.915 34.4913 314.737 33.4911 313.978 33.5673C313.219 33.6434 312.616 34.0376 312.171 34.7498C311.133 36.326 309.483 38.919 307.222 42.5287C307.365 42.0779 307.488 41.6303 307.59 41.186ZM241.77 56.1898L241.718 56.2623C241.759 56.2558 241.784 56.2734 241.79 56.3152L241.77 56.1898ZM366.314 27.0371C366.32 27.0789 366.303 27.1031 366.261 27.1097C366.303 27.1031 366.32 27.0789 366.314 27.0371ZM409.826 16.878C411.063 16.2986 411.63 16.3598 411.525 17.0615C411.415 17.7213 410.893 18.7668 409.961 20.1979C409.022 21.5872 407.926 23.0654 406.672 24.6326C405.412 26.1579 404.275 27.5139 403.262 28.7008C402.284 29.8392 401.682 30.5117 401.458 30.7182C400.607 31.5796 399.743 32.4861 398.864 33.4377C396.67 35.8375 394.345 38.0865 391.89 40.1846C389.428 42.2409 386.637 43.7061 383.519 44.5803C381.09 44.661 379.327 43.9307 378.228 42.3895C377.13 40.8482 376.47 38.9598 376.249 36.7243C376.027 34.4889 376.013 32.3494 376.207 30.3058C374.551 33.1353 372.605 35.7532 370.37 38.1595C368.097 40.0577 366.157 40.6615 364.55 39.971C362.942 39.2805 361.783 37.8987 361.073 35.8254C360.363 33.7522 360.217 31.5905 360.635 29.3404C360.904 26.6854 361.478 24.882 362.357 23.9305C363.278 22.9724 364.183 22.595 365.071 22.7985C366.002 22.9954 366.623 23.5406 366.934 24.4341C367.28 25.2794 367 26.2228 366.092 27.2646C366.134 27.258 366.176 27.2515 366.218 27.2449C366.253 27.1965 366.267 27.1515 366.261 27.1097C366.226 27.158 366.194 27.2273 366.165 27.3174C365.58 28.7797 365.133 30.4347 364.823 32.2824C364.548 34.0816 364.838 35.6638 365.695 37.0288C366.722 37.2962 367.781 36.809 368.871 35.5673C369.955 34.2838 370.975 32.7318 371.932 30.9113C372.883 29.049 373.692 27.3802 374.36 25.9048C374.744 25.0736 375.05 24.4261 375.277 23.9621C375.539 23.4498 375.792 22.8748 376.035 22.2371C376.529 20.7461 377.278 19.515 378.283 18.5438C378.963 17.966 379.664 17.7919 380.386 18.0215C381.142 18.2028 381.705 18.6501 382.074 19.3633C382.436 20.0347 382.398 20.7475 381.959 21.5016C381.824 21.7368 381.708 21.9479 381.608 22.1348C381.567 22.1413 381.546 22.1446 381.546 22.1446L381.618 22.1975C381.583 22.2458 381.53 22.3184 381.459 22.4151C381.424 22.4635 381.41 22.5085 381.416 22.5503C380.949 23.3946 380.569 24.2466 380.275 25.1065C378.979 28.8648 378.448 32.7174 378.681 36.6645C379.305 41.1928 381.06 43.1023 383.947 42.3929C386.876 41.6769 390.188 39.5732 393.881 36.0817C397.616 32.5837 401.005 28.9258 404.048 25.108C407.091 21.2902 409.017 18.5468 409.826 16.878ZM474.951 6.67346C475.169 6.42512 475.392 6.34728 475.621 6.43995C475.885 6.48426 476.078 6.62528 476.201 6.86303C476.317 7.05896 476.287 7.27783 476.111 7.51962C471.183 13.5176 464.999 17.6563 457.561 19.9355C456.619 20.2116 455.643 20.4074 454.633 20.5228C453.623 20.6382 452.654 20.4688 451.726 20.0145C449.983 19.0026 448.517 17.7117 447.328 16.1417C447.122 15.9171 446.888 15.6539 446.626 15.3522C446.097 14.707 445.508 14.0925 444.86 13.5087C444.253 12.9184 443.627 12.6097 442.98 12.5825C441.696 13.6832 440.674 15.0856 439.913 16.7897C439.721 17.2053 439.526 17.6 439.327 17.9737C438.796 18.9565 438.289 19.9569 437.806 20.9749C436.974 22.7758 436.056 24.5688 435.05 26.354C434.199 28.0294 433.206 28.9346 432.071 29.0697C430.929 29.163 429.897 28.3181 428.975 26.535C427.319 22.254 426.242 17.8396 425.743 13.2916C423.186 18.0186 420.722 22.7952 418.351 27.6214C417.266 29.7189 416.202 31.8132 415.159 33.9041C415.002 34.2714 414.822 34.621 414.617 34.9529C413.772 36.6701 412.882 38.373 411.948 40.0615C411.884 40.2 411.816 40.3176 411.746 40.4143C411.554 40.8299 411.248 41.1991 410.827 41.522C410.435 41.7548 410.052 41.7719 409.679 41.5735C409.305 41.3751 409.103 41.0426 409.073 40.5762C409.056 39.3794 409.037 38.1617 409.014 36.923C408.985 35.6426 408.977 34.3589 408.989 33.0719C409.051 31.0062 409.175 28.9306 409.363 26.8453C409.451 26.3174 409.516 25.7718 409.556 25.2087C409.574 24.7775 409.61 24.3222 409.663 23.8426C409.901 21.5351 410.145 19.3981 410.393 17.4316C410.599 16.2856 411.132 15.5812 411.99 15.3182C412.848 15.0552 413.658 15.1639 414.418 15.6444C415.179 16.1249 415.501 16.9525 415.386 18.1272C414.825 21.3847 414.194 24.7389 413.493 28.1899C413.404 28.7178 413.312 29.2248 413.217 29.7109C413.009 31.1142 412.696 32.534 412.278 33.9701C412.256 34.102 412.234 34.234 412.212 34.366C412.426 33.8184 412.643 33.2918 412.864 32.7861C415.705 26.0442 418.527 19.1769 421.329 12.1842C421.479 11.7752 421.629 11.3662 421.779 10.9572C421.965 10.4998 422.168 10.0182 422.388 9.51249C423.216 7.41247 424.06 5.41696 424.92 3.52598C425.458 2.58501 426.148 2.06992 426.991 1.98071C427.827 1.84969 428.59 2.07279 429.28 2.64999C429.964 3.18539 430.321 3.96461 430.353 4.98765C429.902 7.02871 429.855 9.73465 430.212 13.1055C430.562 16.4345 431.218 19.3942 432.181 21.9847C432.915 20.9274 433.607 19.8766 434.257 18.8324C435.481 16.7988 436.864 14.826 438.406 12.9138C439.618 11.3532 440.904 10.4021 442.264 10.0605C443.617 9.6771 444.928 10.3925 446.198 12.2068C446.576 12.7045 447.002 13.2374 447.476 13.8055C448.416 15.1574 449.493 16.4237 450.706 17.6043C451.912 18.7431 453.215 19.2671 454.615 19.1764C457.464 18.7727 460.179 17.919 462.759 16.6152C465.38 15.3049 467.792 13.749 469.994 11.9476C471.888 10.3659 473.54 8.6078 474.951 6.67346ZM419.75 11.3394L419.697 11.412C419.739 11.4054 419.763 11.4231 419.77 11.4649L419.75 11.3394ZM484.208 11.8408C484.852 12.1253 485.291 12.4635 485.524 12.8554C485.705 13.4694 485.723 14.1305 485.577 14.8388C485.139 16.9634 484.207 19.0798 482.781 21.188C481.314 23.3026 479.368 25.2352 476.943 26.9858C476.666 25.4873 476.639 23.9494 476.863 22.3723C477.087 20.7952 477.433 19.1775 477.902 17.5192L478.708 14.0519C478.876 13.2117 479.065 12.3682 479.275 11.5215C480.243 11.4126 481.266 11.3808 482.344 11.4261L482.407 11.4162C482.999 11.3663 483.599 11.5078 484.208 11.8408ZM485.192 22.2237C486.53 20.6435 487.642 18.9915 488.528 17.2677C489.683 15.0735 490.065 13.0004 489.674 11.0486C489.208 10.2648 488.457 9.56874 487.419 8.96033L487.482 8.9505L484.589 8.11881C483.24 7.98743 481.804 8.25524 480.281 8.92225L479.977 9.0341C480.172 8.36113 480.508 7.08773 480.985 5.21389C481.144 4.58928 481.294 3.90196 481.433 3.15192C481.555 2.01907 481.239 1.2333 480.485 0.794615C479.725 0.314124 478.894 0.20865 477.994 0.478193C477.136 0.741186 476.597 1.40385 476.378 2.46619C476.227 3.68921 475.831 5.80734 475.189 8.82058C474.148 12.8388 473.462 16.5229 473.13 19.8731C472.683 24.398 473.37 27.4172 475.192 28.9307C476.052 29.2243 477.031 29.0495 478.13 28.4062C479.109 27.8243 480.073 27.138 481.02 26.3471C482.706 25.3547 483.668 24.797 483.906 24.6741C483.989 24.661 484.049 24.6302 484.084 24.5819C487.034 23.1773 489.819 21.5416 492.439 19.6747C495.473 17.4431 498.404 15.0991 501.232 12.6428C501.463 12.4781 502.087 11.9519 503.105 11.0643C504.116 10.1349 505.253 9.05715 506.517 7.83104C507.733 6.56967 508.851 5.36648 509.871 4.22148C510.891 3.07648 511.522 2.18512 511.765 1.54741C511.973 0.958054 511.564 0.807974 510.538 1.09717C507.647 5.06257 504.332 8.64467 500.592 11.8435C496.811 15.0488 492.828 17.9218 488.643 20.4622C488.161 20.6663 487.605 20.9461 486.976 21.3018C486.388 21.6509 485.793 21.9582 485.192 22.2237ZM523.818 22.9176C523.839 22.2291 523.583 21.6909 523.051 21.303C522.561 20.9087 521.988 20.8057 521.332 20.9941C520.606 21.2793 520.174 21.6682 520.038 22.1608C519.936 22.6051 519.928 23.099 520.013 23.6425C520.117 24.3114 520.097 25 519.951 25.7082C519.811 26.4582 519.31 27.2221 518.447 27.9999C518.026 28.3228 517.828 28.6966 517.851 29.1212C517.917 29.5393 518.119 29.8717 518.457 30.1185C518.838 30.3588 519.269 30.3769 519.751 30.1729C520.387 29.859 520.965 29.4472 521.485 28.9374C523.108 27.2695 523.886 25.2629 523.818 22.9176ZM50.734 156.274C50.8554 155.955 51.0657 155.794 51.3649 155.79C51.6641 155.786 51.9169 155.896 52.1235 156.121C52.3235 156.303 52.3628 156.554 52.2414 156.873C51.2976 158.777 50.1361 160.523 48.7571 162.109C47.3714 163.654 45.9133 165.147 44.3826 166.586C44.1227 166.841 43.8804 167.071 43.6558 167.278C39.9623 170.769 36.3136 173.59 32.7097 175.739C29.0992 177.847 25.8005 178.664 22.8135 178.19C19.8617 177.667 17.4578 175.174 15.6019 170.71C13.4845 175.239 11.1353 179.655 8.55403 183.958C7.14376 185.892 5.50499 186.641 3.6377 186.206C1.72206 185.735 0.762396 184.258 0.75871 181.774C1.28055 173.896 3.82005 166.731 8.37721 160.277C9.85144 158.204 11.7785 156.424 14.1585 154.938C15.1029 154.404 15.9378 154.402 16.6632 154.931C17.4303 155.453 17.8651 156.177 17.9674 157.104C18.0632 157.988 17.6421 158.718 16.7042 159.293C13.8176 161.373 11.5375 164.044 9.86386 167.304C8.2255 170.516 7.08632 173.908 6.44634 177.477C9.18016 172.509 11.6578 167.409 13.8794 162.177C14.2279 161.395 14.7751 160.923 15.5211 160.764C16.3089 160.597 17.0139 160.723 17.636 161.139C18.2999 161.549 18.6765 162.175 18.7657 163.018C18.3291 165.699 18.5119 168.369 19.314 171.028C20.1513 173.638 22.0348 175.27 24.9644 175.925C29.0968 175.235 33.0941 173.409 36.9564 170.448C40.8187 167.487 44.2014 164.472 47.1046 161.405C48.6222 159.882 49.832 158.172 50.734 156.274ZM79.668 154.375C79.7099 154.368 79.7275 154.344 79.7209 154.302C79.7275 154.344 79.7099 154.368 79.668 154.375ZM72.1839 173.859C72.1421 173.865 72.1179 173.848 72.1114 173.806L72.1839 173.859ZM88.619 150.402C87.4736 151.567 86.3127 152.905 85.1361 154.417C83.8824 155.984 82.8182 157.393 81.9433 158.644C81.0201 159.86 80.4704 160.588 80.2941 160.83C79.6438 161.874 78.9518 162.925 78.218 163.983C77.1029 165.614 76.0361 167.28 75.0177 168.982C75.5837 166.58 75.971 164.677 76.1794 163.274C76.8915 160.164 77.4748 157.053 77.9295 153.94C78.0583 152.849 77.7425 152.063 76.9818 151.583C76.2212 151.103 75.4117 150.994 74.5534 151.257C73.6951 151.52 73.1564 152.182 72.9374 153.245C72.7133 154.822 72.42 156.367 72.0575 157.88L72.0673 157.943L71.2342 162.057C70.3655 165.534 69.6882 169.003 69.2023 172.463C69.0825 173.338 69.2984 174.033 69.85 174.546C70.4082 175.101 71.07 175.361 71.8357 175.327C72.6013 175.293 73.2309 174.937 73.7245 174.26C74.2755 173.403 75.2619 171.77 76.6838 169.363C79.2937 164.97 82.1442 160.883 85.2352 157.1C86.3166 156.074 87.3242 155.124 88.2581 154.249C88.2699 157.332 88.9145 160.079 90.1921 162.492C91.8253 165.534 94.8323 166.819 99.213 166.347C103.102 164.924 106.54 162.672 109.527 159.591C112.514 156.51 115.276 153.228 117.815 149.747L120.161 146.68C120.443 146.294 120.496 145.943 120.318 145.628C120.146 145.355 119.887 145.203 119.539 145.172C119.192 145.14 118.877 145.318 118.595 145.705C117.413 147.732 116.114 149.692 114.697 151.584C111.877 155.453 108.622 158.876 104.934 161.852C102.626 163.799 100.188 164.78 97.621 164.797C95.0954 164.808 93.1885 163.436 91.9003 160.682C91.0343 158.162 90.9449 155.542 91.6323 152.821C91.871 151.884 92.1581 150.983 92.4935 150.116C93.3372 149.213 94.0718 148.434 94.6973 147.779C95.7132 146.335 95.7942 144.802 94.9403 143.179C94.9272 143.096 94.8932 143.015 94.8383 142.938C94.4409 142.315 93.8462 141.937 93.0544 141.804C92.3043 141.665 91.6218 142.093 91.0069 143.089C90.0877 144.603 89.2917 147.041 88.619 150.402ZM160.771 138.711C161.268 139.147 161.293 139.721 160.848 140.434C160.445 141.139 159.933 141.84 159.314 142.537C158.878 143.034 158.575 143.424 158.406 143.708C157.04 145.378 154.701 147.672 151.388 150.59C148.076 153.507 144.382 156.314 140.307 159.008C136.232 161.703 132.408 163.544 128.836 164.532C125.265 165.52 122.56 164.937 120.724 162.784C118.794 159.488 117.928 155.876 118.126 151.947C118.276 147.982 119.247 144.339 121.04 141.017C122.129 139.219 123.601 138.089 125.456 137.627C127.311 137.165 128.658 138.11 129.498 140.463C129.981 141.629 129.835 143.023 129.061 144.643C128.28 146.222 127.232 147.736 125.917 149.184C124.644 150.625 123.5 151.661 122.485 152.292C122.396 155.004 122.6 157.264 123.097 159.071C123.851 161.694 125.643 162.741 128.473 162.212C131.344 161.676 134.561 160.337 138.123 158.194C141.721 156.002 145.023 153.707 148.031 151.309C151.039 148.91 153.095 147.131 154.199 145.973C156.32 143.927 158.123 141.632 159.609 139.086C159.743 138.85 159.915 138.716 160.124 138.684C160.368 138.603 160.584 138.612 160.771 138.711ZM125.816 142.389C124.138 143.98 123.113 146.325 122.742 149.424C123.637 148.299 124.431 147.082 125.126 145.774C125.814 144.424 126.044 143.296 125.816 142.389ZM216.35 130.131C216.527 129.889 216.726 129.793 216.948 129.844C217.17 129.895 217.318 130.022 217.393 130.224C217.509 130.42 217.476 130.618 217.293 130.818C213.941 134.299 210.32 137.436 206.432 140.23C202.543 143.024 198.556 145.598 194.47 147.951C193.561 148.436 192.617 148.97 191.637 149.552C191.595 149.558 191.574 149.561 191.574 149.561C192.607 150.685 193.36 151.937 193.834 153.32C194.29 156.503 193.932 159.686 192.76 162.868C191.63 166.044 190.143 168.997 188.301 171.727C188.266 171.775 188.213 171.848 188.142 171.945C187.543 172.767 186.719 173.795 185.67 175.03C184.58 176.272 183.474 177.281 182.354 178.056C181.191 178.838 180.196 178.908 179.367 178.267C177.487 175.563 176.745 170.689 177.14 163.645C177.536 156.601 178.596 148.747 180.323 140.081C182.007 131.421 183.842 123.316 185.829 115.766C187.858 108.209 189.502 102.576 190.763 98.8661C191.041 98.18 191.298 97.4972 191.534 96.8177C192.15 95.0078 192.859 93.2475 193.662 91.5369C194.458 89.7844 195.538 88.2017 196.902 86.7887C197.604 86.0789 198.364 85.8741 199.183 86.1743C200.001 86.4744 200.44 87.0909 200.5 88.0238C200.301 92.7668 199.814 97.4478 199.038 102.067C197.332 110.858 194.574 119.365 190.765 127.586C190.736 127.676 190.655 127.839 190.52 128.074C190.165 128.815 189.583 130.02 188.774 131.689C188 133.309 187.16 134.919 186.254 136.517C185.444 140.37 184.679 144.238 183.96 148.12C184.078 148.059 184.197 147.997 184.316 147.936C185.833 147.227 187.274 147.13 188.64 147.644C193.331 146.695 198.488 144.345 204.112 140.594C209.728 136.801 213.808 133.313 216.35 130.131ZM197.528 95.3001C196.046 98.9592 194.813 102.708 193.829 106.545C193.383 108.072 192.916 109.601 192.428 111.134C190.552 118.024 188.85 124.93 187.322 131.852C192.472 122.35 195.748 112.37 197.151 101.913C197.182 101.565 197.21 101.197 197.235 100.807C197.503 98.9664 197.601 97.1306 197.528 95.3001ZM186.486 152.351L186.413 152.298C186.092 152.434 185.75 152.573 185.386 152.716C184.454 152.776 183.764 152.477 183.318 151.819C183.09 153.097 182.886 154.392 182.707 155.706C182.467 157.456 182.206 159.211 181.925 160.968C181.497 163.434 181.174 165.883 180.956 168.316C180.744 170.791 180.804 173.223 181.136 175.613C183.565 173.347 185.507 170.708 186.963 167.696C188.418 164.684 189.346 161.583 189.746 158.393C189.875 157.302 189.839 156.258 189.64 155.262C189.41 154.612 188.968 153.975 188.313 153.349C187.7 152.717 187.091 152.384 186.486 152.351ZM161.034 134.879L160.981 134.951C161.023 134.945 161.047 134.962 161.054 135.004L161.034 134.879ZM222.762 125.335C222.755 125.293 222.731 125.276 222.689 125.282L222.742 125.21L222.762 125.335ZM226.307 135.252C226.952 135.537 227.39 135.875 227.623 136.267C227.805 136.881 227.823 137.542 227.677 138.25C227.239 140.375 226.307 142.491 224.881 144.6C223.413 146.714 221.467 148.647 219.043 150.397C218.765 148.899 218.738 147.361 218.962 145.784C219.187 144.207 219.533 142.589 220.001 140.931L220.807 137.464L221.374 134.933C222.342 134.824 223.365 134.792 224.443 134.838L224.506 134.828C225.098 134.778 225.698 134.92 226.307 135.252ZM236.177 138.782C236.264 139.068 236.373 139.351 236.503 139.63C236.897 140.511 237.398 141.246 238.005 141.836C239.73 143.279 242.174 143.839 245.335 143.515C249.046 142.591 252.484 140.339 255.649 136.759C258.636 133.678 261.399 130.396 263.937 126.915L266.284 123.848C266.566 123.461 266.618 123.111 266.44 122.796C266.269 122.523 266.009 122.371 265.662 122.34C265.314 122.308 264.999 122.486 264.717 122.873C263.536 124.9 262.237 126.86 260.82 128.752C257.999 132.621 254.745 136.044 251.056 139.02C248.748 140.967 246.311 141.948 243.743 141.965C242.199 141.95 240.878 141.45 239.782 140.466C239.094 139.631 238.612 138.743 238.336 137.801C237.679 135.248 237.799 132.595 238.695 129.842C239.634 127.082 240.925 124.524 242.569 122.167C242.988 121.288 243.037 120.509 242.717 119.831C242.361 119.201 241.808 118.817 241.058 118.677C240.308 118.538 239.612 118.882 238.971 119.711C237.421 122.395 236.307 125.397 235.628 128.716C235.229 131.092 235.142 133.268 235.366 135.247C234.364 139.516 232.623 142.616 230.141 144.546C229.511 144.902 228.878 145.237 228.242 145.551C227.606 145.865 227.106 146.093 226.743 146.235C228.446 144.255 229.741 142.403 230.627 140.679C231.783 138.485 232.165 136.412 231.773 134.46C231.308 133.676 230.556 132.98 229.518 132.372L229.581 132.362L226.688 131.53C225.34 131.399 223.904 131.667 222.381 132.334L222.077 132.446C222.271 131.773 222.607 130.499 223.084 128.626C223.244 128.001 223.393 127.314 223.532 126.564C223.655 125.431 223.336 124.624 222.575 124.144C221.821 123.705 220.994 123.62 220.094 123.89C219.235 124.153 218.697 124.816 218.478 125.878C218.327 127.101 217.93 129.219 217.289 132.232C216.248 136.25 215.562 139.935 215.23 143.285C214.782 147.81 215.47 150.829 217.292 152.342C218.151 152.636 219.131 152.461 220.229 151.818C221.209 151.236 222.172 150.55 223.119 149.759C224.163 149.038 225.368 148.528 226.734 148.228C231.341 146.736 234.488 143.587 236.177 138.782ZM287.047 127.406C288.072 123.561 288.216 120.24 287.478 117.443C286.788 114.682 284.953 113.084 281.972 112.652C280.047 112.397 278.021 112.586 275.893 113.219C274.203 113.912 272.743 114.848 271.514 116.025C270.336 116.981 269.327 118.06 268.487 119.262C268 119.981 267.499 120.745 266.983 121.554L266.286 122.434L264.772 124.664C264.516 125.218 264.481 125.544 264.668 125.643C264.965 125.897 265.324 125.862 265.744 125.539L266.379 124.669L267.519 123.334C269.064 121.164 270.569 119.429 272.036 118.128C273.349 116.937 274.355 116.116 275.055 115.663C276.706 114.719 278.734 114.402 281.138 114.71C282.799 114.921 283.71 115.678 283.871 116.98C284.039 118.325 283.98 119.726 283.695 121.184L283.525 122.56C283.115 124.595 282.368 127.068 281.282 129.979C280.849 131.589 280.267 133.072 279.538 134.429C277.89 137.857 276.006 139.501 273.886 139.362C271.067 139.419 268.857 138.159 267.254 135.583C266.666 133.747 265.693 133.279 264.335 134.177C262.91 135.471 262.842 137.088 264.131 139.028C267.082 142.549 270.325 144.247 273.86 144.121C277.163 143.604 279.36 142.724 280.45 141.482C281.278 140.753 282.071 139.665 282.83 138.218C283.191 137.519 283.532 136.823 283.852 136.13C286.554 132.323 288.799 129.294 290.588 127.043C290.484 127.745 290.362 128.471 290.223 129.221C290.134 129.749 290.063 130.253 290.01 130.732C289.759 132.142 289.559 134.144 289.408 136.737C289.372 137.6 289.355 138.309 289.356 138.866C289.351 139.381 289.627 139.637 290.184 139.636C290.782 139.628 291.304 139.267 291.749 138.555C292.745 135.615 294.612 131.81 297.35 127.14C297.615 131.297 298.793 134.303 300.883 136.16C302.503 137.748 305.266 138.3 309.174 137.817C313.557 137.087 317.114 135.866 319.844 134.153C322.446 132.717 326.01 129.631 330.537 124.896C335.064 120.16 338.782 115.872 341.693 112.032C341.821 111.755 341.827 111.519 341.71 111.323C341.594 111.127 341.425 111.003 341.202 110.953C340.938 110.908 340.718 111.007 340.542 111.249C339.511 112.867 338.382 114.414 337.157 115.891C333.573 120.351 329.598 124.507 325.233 128.361C324.931 128.623 324.612 128.908 324.275 129.218C322.073 131.019 320.524 132.205 319.628 132.773C315.184 134.755 311.657 135.757 309.048 135.78C306.793 135.877 304.937 135.375 303.479 134.276C301.363 132.251 300.524 129.77 300.963 126.831C302.049 123.92 303.404 121.223 305.029 118.741C306.611 116.266 308.387 114.617 310.357 113.794C311.349 114.11 312.182 113.958 312.856 113.338C313.495 112.767 313.808 112.033 313.796 111.135C313.79 110.279 313.32 109.603 312.386 109.107C310.917 108.481 309.477 108.449 308.066 109.013C306.614 109.583 305.388 110.375 304.39 111.388C302.853 112.785 301.192 115.166 299.406 118.53C298.98 119.368 298.575 120.202 298.192 121.033C296.356 125.176 294.55 128.543 292.771 131.135C292.838 130.739 292.89 130.388 292.927 130.082C293.523 126.776 293.87 124.345 293.969 122.787C294.372 120.711 294.194 119.711 293.435 119.787C292.675 119.863 292.073 120.257 291.628 120.969C290.59 122.546 288.94 125.138 286.679 128.748C286.822 128.297 286.945 127.85 287.047 127.406ZM221.227 142.409L221.174 142.482C221.216 142.475 221.24 142.493 221.247 142.535L221.227 142.409ZM345.771 113.257C345.777 113.298 345.76 113.323 345.718 113.329C345.76 113.323 345.777 113.298 345.771 113.257ZM389.283 103.097C390.52 102.518 391.086 102.579 390.982 103.281C390.871 103.941 390.35 104.986 389.418 106.417C388.479 107.807 387.383 109.285 386.129 110.852C384.869 112.377 383.732 113.733 382.719 114.92C381.74 116.059 381.139 116.731 380.914 116.938C380.064 117.799 379.2 118.706 378.321 119.657C376.127 122.057 373.802 124.306 371.347 126.404C368.885 128.46 366.094 129.926 362.976 130.8C360.547 130.881 358.784 130.15 357.685 128.609C356.587 127.068 355.927 125.179 355.705 122.944C355.484 120.708 355.47 118.569 355.663 116.525C354.008 119.355 352.062 121.973 349.826 124.379C347.554 126.277 345.614 126.881 344.006 126.191C342.399 125.5 341.24 124.118 340.53 122.045C339.819 119.972 339.673 117.81 340.092 115.56C340.361 112.905 340.935 111.102 341.814 110.15C342.735 109.192 343.64 108.815 344.528 109.018C345.459 109.215 346.079 109.76 346.391 110.654C346.737 111.499 346.457 112.442 345.549 113.484C345.591 113.478 345.633 113.471 345.675 113.464C345.71 113.416 345.724 113.371 345.718 113.329C345.682 113.378 345.65 113.447 345.622 113.537C345.037 114.999 344.59 116.654 344.279 118.502C344.005 120.301 344.295 121.883 345.152 123.248C346.179 123.516 347.238 123.029 348.328 121.787C349.412 120.503 350.432 118.951 351.389 117.131C352.34 115.269 353.149 113.6 353.817 112.124C354.201 111.293 354.507 110.646 354.734 110.182C354.996 109.669 355.249 109.094 355.491 108.457C355.986 106.966 356.735 105.735 357.74 104.763C358.42 104.185 359.121 104.011 359.842 104.241C360.599 104.422 361.162 104.87 361.53 105.583C361.893 106.254 361.854 106.967 361.416 107.721C361.281 107.956 361.164 108.167 361.065 108.354C361.023 108.361 361.002 108.364 361.002 108.364L361.075 108.417C361.04 108.465 360.987 108.538 360.916 108.635C360.881 108.683 360.867 108.728 360.873 108.77C360.406 109.614 360.025 110.466 359.732 111.326C358.436 115.084 357.905 118.937 358.138 122.884C358.761 127.412 360.517 129.322 363.404 128.612C366.333 127.896 369.645 125.793 373.338 122.301C377.073 118.803 380.462 115.145 383.505 111.327C386.548 107.51 388.474 104.766 389.283 103.097ZM425.801 97.3111C425.978 97.0693 426.177 96.9738 426.399 97.0247C426.621 97.0756 426.769 97.2022 426.844 97.4047C426.96 97.6007 426.927 97.7986 426.744 97.9986C423.392 101.479 419.771 104.617 415.883 107.411C411.994 110.204 408.007 112.778 403.921 115.132C403.012 115.617 402.068 116.15 401.088 116.732C401.046 116.739 401.025 116.742 401.025 116.742C402.058 117.865 402.811 119.118 403.285 120.5C403.741 123.684 403.383 126.867 402.211 130.049C401.081 133.225 399.594 136.177 397.752 138.908C397.717 138.956 397.664 139.028 397.593 139.125C396.994 139.947 396.17 140.976 395.121 142.211C394.031 143.453 392.925 144.461 391.805 145.237C390.642 146.018 389.647 146.089 388.818 145.448C386.938 142.744 386.196 137.87 386.591 130.826C386.987 123.782 388.047 115.927 389.774 107.261C391.458 98.6018 393.293 90.497 395.28 82.9467C397.308 75.3899 398.953 69.7566 400.214 66.0467C400.492 65.3606 400.749 64.6778 400.985 63.9983C401.601 62.1884 402.31 60.4281 403.113 58.7175C403.909 56.965 404.989 55.3823 406.352 53.9693C407.055 53.2595 407.815 53.0547 408.634 53.3549C409.452 53.655 409.891 54.2715 409.951 55.2044C409.752 59.9474 409.265 64.6284 408.489 69.2475C406.783 78.0388 404.025 86.5452 400.216 94.7665C400.187 94.8567 400.106 95.0194 399.971 95.2546C399.616 95.9956 399.034 97.2005 398.225 98.8693C397.451 100.49 396.611 102.099 395.704 103.698C394.895 107.551 394.13 111.419 393.411 115.301C393.529 115.239 393.648 115.178 393.767 115.117C395.284 114.408 396.725 114.31 398.091 114.825C402.782 113.875 407.939 111.525 413.563 107.774C419.179 103.981 423.259 100.494 425.801 97.3111ZM406.979 62.4807C405.497 66.1398 404.264 69.8882 403.28 73.726C402.834 75.2523 402.367 76.7819 401.879 78.3147C400.003 85.2051 398.301 92.111 396.773 99.0326C401.923 89.5303 405.199 79.5506 406.602 69.0934C406.633 68.7459 406.661 68.3774 406.686 67.988C406.954 66.147 407.052 64.3112 406.979 62.4807ZM395.937 119.531L395.864 119.478C395.543 119.614 395.201 119.754 394.837 119.896C393.905 119.957 393.215 119.658 392.769 118.999C392.541 120.277 392.337 121.573 392.158 122.886C391.918 124.637 391.657 126.391 391.376 128.149C390.948 130.614 390.625 133.064 390.407 135.497C390.195 137.971 390.255 140.404 390.587 142.793C393.016 140.528 394.958 137.889 396.414 134.877C397.869 131.864 398.797 128.764 399.197 125.574C399.325 124.483 399.29 123.439 399.091 122.442C398.861 121.793 398.419 121.156 397.764 120.53C397.151 119.898 396.542 119.565 395.937 119.531ZM470.198 90.5472C470.319 90.2284 470.529 90.0669 470.829 90.0629C471.128 90.0588 471.381 90.1691 471.587 90.3938C471.787 90.5766 471.827 90.8275 471.705 91.1463C470.761 93.0504 469.6 94.7958 468.221 96.3826C466.835 97.9276 465.377 99.4197 463.846 100.859C463.587 101.114 463.344 101.344 463.12 101.551C459.426 105.042 455.777 107.863 452.174 110.013C448.563 112.12 445.264 112.937 442.277 112.463C439.325 111.94 436.922 109.447 435.066 104.983C432.948 109.513 430.599 113.929 428.018 118.231C426.608 120.165 424.969 120.915 423.102 120.479C421.186 120.008 420.226 118.531 420.223 116.047C420.744 108.169 423.284 101.004 427.841 94.5499C429.315 92.4771 431.242 90.6973 433.622 89.2107C434.567 88.6772 435.402 88.6749 436.127 89.2038C436.894 89.7261 437.329 90.4504 437.431 91.3767C437.527 92.2612 437.106 92.9911 436.168 93.5664C433.281 95.6464 431.001 98.3167 429.328 101.577C427.689 104.79 426.55 108.181 425.91 111.751C428.644 106.782 431.122 101.682 433.343 96.4506C433.692 95.6678 434.239 95.1965 434.985 95.0368C435.773 94.8705 436.478 94.9957 437.1 95.4122C437.764 95.8222 438.14 96.4485 438.229 97.2912C437.793 99.9725 437.976 102.642 438.778 105.301C439.615 107.911 441.499 109.544 444.428 110.198C448.561 109.508 452.558 107.682 456.42 104.721C460.282 101.76 463.665 98.7456 466.568 95.6778C468.086 94.155 469.296 92.4448 470.198 90.5472ZM535.491 80.1878C535.709 79.9395 535.932 79.8616 536.161 79.9543C536.425 79.9986 536.618 80.1396 536.741 80.3774C536.858 80.5733 536.828 80.7922 536.651 81.034C531.723 87.032 525.539 91.1706 518.101 93.4499C517.159 93.726 516.183 93.9217 515.173 94.0371C514.163 94.1526 513.194 93.9831 512.266 93.5288C510.523 92.517 509.057 91.2261 507.869 89.6561C507.662 89.4314 507.428 89.1683 507.167 88.8666C506.637 88.2213 506.048 87.6069 505.4 87.0231C504.794 86.4328 504.167 86.1241 503.52 86.0969C502.236 87.1976 501.214 88.6 500.453 90.3041C500.261 90.7197 500.066 91.1143 499.867 91.4881C499.336 92.4709 498.829 93.4713 498.346 94.4893C497.514 96.2901 496.596 98.0831 495.591 99.8684C494.739 101.544 493.746 102.449 492.611 102.584C491.469 102.677 490.437 101.832 489.515 100.049C487.859 95.7684 486.782 91.3539 486.283 86.806C483.726 91.533 481.262 96.3096 478.891 101.136C477.806 103.233 476.742 105.328 475.699 107.419C475.543 107.786 475.362 108.135 475.157 108.467C474.312 110.184 473.423 111.887 472.488 113.576C472.424 113.714 472.357 113.832 472.286 113.929C472.094 114.344 471.788 114.713 471.367 115.036C470.975 115.269 470.593 115.286 470.219 115.088C469.845 114.889 469.643 114.557 469.613 114.091C469.597 112.894 469.577 111.676 469.554 110.437C469.525 109.157 469.517 107.873 469.529 106.586C469.591 104.521 469.716 102.445 469.903 100.36C469.991 99.8317 470.056 99.2862 470.096 98.7231C470.114 98.2919 470.15 97.8365 470.203 97.357C470.442 95.0495 470.685 92.9125 470.934 90.946C471.14 89.8 471.672 89.0955 472.53 88.8325C473.388 88.5695 474.198 88.6783 474.958 89.1588C475.719 89.6393 476.041 90.4668 475.926 91.6415C475.365 94.899 474.734 98.2533 474.033 101.704C473.944 102.232 473.852 102.739 473.757 103.225C473.549 104.629 473.236 106.048 472.818 107.484C472.796 107.616 472.774 107.748 472.752 107.88C472.966 107.333 473.183 106.806 473.404 106.3C476.245 99.5586 479.067 92.6913 481.869 85.6986C482.019 85.2896 482.17 84.8806 482.32 84.4715C482.505 84.0141 482.708 83.5326 482.928 83.0268C483.756 80.9268 484.6 78.9313 485.46 77.0403C485.998 76.0994 486.688 75.5843 487.531 75.4951C488.367 75.364 489.13 75.5871 489.82 76.1643C490.504 76.6998 490.862 77.479 490.893 78.502C490.442 80.5431 490.395 83.249 490.752 86.6198C491.102 89.9488 491.759 92.9086 492.721 95.4991C493.455 94.4418 494.147 93.391 494.798 92.3467C496.021 90.3132 497.404 88.3403 498.946 86.4281C500.158 84.8676 501.444 83.9165 502.804 83.5749C504.157 83.1915 505.469 83.9069 506.738 85.7212C507.116 86.2188 507.542 86.7517 508.017 87.3199C508.957 88.6718 510.033 89.938 511.246 91.1186C512.453 92.2575 513.755 92.7815 515.155 92.6907C518.004 92.2871 520.719 91.4334 523.299 90.1296C525.921 88.8193 528.332 87.2634 530.535 85.462C532.428 83.8802 534.081 82.1222 535.491 80.1878ZM480.29 84.8538L480.237 84.9263C480.279 84.9198 480.303 84.9374 480.31 84.9792L480.29 84.8538ZM544.748 85.3551C545.392 85.6397 545.831 85.9779 546.064 86.3698C546.246 86.9838 546.263 87.6449 546.117 88.3531C545.679 90.4778 544.747 92.5942 543.322 94.7023C541.854 96.817 539.908 98.7496 537.484 100.5C537.206 99.0016 537.179 97.4638 537.403 95.8867C537.627 94.3095 537.973 92.6918 538.442 91.0336L539.248 87.5663C539.416 86.7261 539.605 85.8826 539.815 85.0358C540.783 84.927 541.806 84.8952 542.884 84.9404L542.947 84.9306C543.539 84.8807 544.139 85.0222 544.748 85.3551ZM545.733 95.738C547.07 94.1578 548.182 92.5058 549.068 90.7821C550.223 88.5878 550.605 86.5148 550.214 84.5629C549.748 83.7792 548.997 83.0831 547.959 82.4747L548.022 82.4649L545.129 81.6332C543.78 81.5018 542.344 81.7696 540.821 82.4366L540.518 82.5485C540.712 81.8755 541.048 80.6021 541.525 78.7283C541.684 78.1036 541.834 77.4163 541.973 76.6663C542.096 75.5334 541.78 74.7477 541.026 74.309C540.265 73.8285 539.435 73.723 538.534 73.9926C537.676 74.2555 537.137 74.9182 536.918 75.9806C536.767 77.2036 536.371 79.3217 535.73 82.3349C534.689 86.3531 534.002 90.0373 533.671 93.3875C533.223 97.9124 533.91 100.932 535.732 102.445C536.592 102.739 537.571 102.564 538.67 101.921C539.65 101.339 540.613 100.652 541.56 99.8614C543.246 98.869 544.208 98.3113 544.446 98.1884C544.53 98.1753 544.589 98.1446 544.624 98.0962C547.574 96.6917 550.359 95.056 552.979 93.1891C556.013 90.9574 558.944 88.6135 561.772 86.1572C562.003 85.9925 562.627 85.4663 563.645 84.5787C564.656 83.6493 565.793 82.5715 567.058 81.3454C568.273 80.084 569.391 78.8808 570.411 77.7358C571.431 76.5908 572.063 75.6995 572.305 75.0618C572.513 74.4724 572.104 74.3223 571.078 74.6115C568.187 78.5769 564.872 82.159 561.133 85.3578C557.351 88.5632 553.368 91.4361 549.183 93.9766C548.701 94.1806 548.145 94.4605 547.516 94.8161C546.928 95.1652 546.333 95.4725 545.733 95.738Z" fill="white"></path> </svg> 