<svg id="Capa_1" enable-background="new 0 0 512 512" height="512" viewBox="0 0 512 512" width="512" xmlns="http://www.w3.org/2000/svg"><g><path d="m369.167 69.341c-24.237 0-43.955 19.718-43.955 43.955s19.718 43.955 43.955 43.955 43.955-19.718 43.955-43.955-19.718-43.955-43.955-43.955zm0 57.884c-7.68 0-13.929-6.249-13.929-13.929s6.248-13.929 13.929-13.929 13.929 6.249 13.929 13.929-6.249 13.929-13.929 13.929z"/><path d="m458.493 76.3-9.213-43.115-43.115-9.214-36.998-23.971-36.997 23.97-43.116 9.214-.003.013h-193.635c-36.326 0-65.879 29.553-65.879 65.879v348.661l.267-.329c3.021 36.118 33.363 64.592 70.249 64.592h299.329v-30.026h-2.526c-22.326 0-40.49-18.164-40.49-40.49s18.164-40.49 40.49-40.49h.004l.452-70.609 26.919 12.659v-144.282l25.048-5.353 9.214-43.115 23.97-36.997zm-178.652 73.993 9.213 43.115 25.049 5.353v144.283l53.183-25.01v52.934h-217.188v-307.745h132.538l-2.795 13.077-23.971 36.997zm89.326 133.676-25.038 11.775v-85.374l25.038 16.223 25.038-16.222v85.373zm-273.751-220.746h24.656v307.745h-20.019c-15.061 0-29.022 4.761-40.49 12.836v-284.728c0-19.77 16.084-35.853 35.853-35.853zm232.58 363.11h-222.371v30.026h222.308c2.019 9.362 5.905 18.033 11.243 25.615h-239.123c-22.326 0-40.49-18.164-40.49-40.49s18.164-40.49 40.49-40.49h239.123c-5.286 7.507-9.144 16.083-11.18 25.339zm102.29-287.724-6.304 29.502-29.502 6.303-25.313 16.401-25.312-16.4-29.503-6.305-6.304-29.501-16.4-25.313 16.4-25.313 6.304-29.502 29.502-6.303 25.312-16.401 25.312 16.4 29.502 6.305 6.304 29.501 16.4 25.313z"/></g></svg>