<?xml version="1.0" encoding="utf-8"?>
<!-- Generator: Adobe Illustrator 24.1.0, SVG Export Plug-In . SVG Version: 6.00 Build 0)  -->
<svg version="1.1" id="Capa_1" xmlns="http://www.w3.org/2000/svg" xmlns:xlink="http://www.w3.org/1999/xlink" x="0px" y="0px"
	 viewBox="0 0 512 512" style="enable-background:new 0 0 512 512;" xml:space="preserve">
<style type="text/css">
	.st0{display:none;fill:#F0F0F0;}
	.st1{fill:#D60A2E;}
	.st2{fill:#FED953;}
</style>
<rect y="85.3" class="st0" width="512" height="341.3"/>
<g>
	<path class="st1" d="M0,85.3h512v341.7H0V85.3z"/>
	<g>
		<path class="st2" d="M85.3,147.7l17.9,34.8l40.1,5.6l-29,27.1l6.9,38.3l-35.9-18.1l-35.9,18.1l6.9-38.3l-29-27.1l40.1-5.6
			L85.3,147.7z"/>
		<path class="st2" d="M191.6,214.5l7.2,13.9l16,2.2l-11.6,10.8l2.7,15.3l-14.3-7.2l-14.3,7.2l2.7-15.3l-11.6-10.8l16-2.2
			L191.6,214.5z"/>
		<path class="st2" d="M183.1,153.7l13.1,9.1l15.3-5.2l-5,14.8l9.9,12.3l-16.2,0l-9.2,12.8l-5-14.8l-15.5-4.4l13.1-9.1L183.1,153.7z
			"/>
		<path class="st2" d="M162.1,111.7l-3.1,15.2l11.4,11.1l-16.1,1.9l-7.5,13.8l-6.9-14l-16-2.5l11.8-10.6l-2.4-15.3l14.2,7.5
			L162.1,111.7z"/>
		<path class="st2" d="M162.1,267.8L159,283l11.4,11l-16.1,1.9l-7.5,13.8l-6.9-14l-16-2.5l11.8-10.6l-2.4-15.3l14.2,7.5L162.1,267.8
			z"/>
	</g>
</g>
</svg>
