<svg id="Layer_1" enable-background="new 0 0 511.997 511.997" height="512" viewBox="0 0 511.997 511.997" width="512" xmlns="http://www.w3.org/2000/svg"><g><path d="m407.696 53.303c-34.373-34.373-79.901-53.303-128.198-53.303s-93.824 18.93-128.197 53.303-53.303 79.901-53.303 128.197v37.537l-45.238 84.91c-2.477 4.649-2.334 10.257.378 14.773 2.711 4.517 7.593 7.28 12.86 7.28h32v36.997c0 51.833 42.17 94.003 94.003 94.003h55.997v39.998c0 8.284 6.716 15 15 15s15-6.716 15-15v-54.998c0-8.284-6.716-15-15-15h-70.997c-35.291 0-64.003-28.711-64.003-64.003v-51.997c0-8.284-6.716-15-15-15h-22.012l35.251-66.163c1.156-2.171 1.762-4.593 1.762-7.053v-41.284c0-83.538 67.963-151.5 151.5-151.5s151.5 67.962 151.5 151.5v315.497c0 8.284 6.716 15 15 15s15-6.716 15-15v-315.497c-.001-48.296-18.93-93.825-53.303-128.197z"/><path d="m278.998 60.499c-66.995 0-121.5 54.505-121.5 121.5s54.505 121.5 121.5 121.5 121.5-54.504 121.5-121.5-54.504-121.5-121.5-121.5zm0 213c-50.453 0-91.5-41.046-91.5-91.5s41.047-91.5 91.5-91.5 91.5 41.047 91.5 91.5-41.046 91.5-91.5 91.5z"/><circle cx="247.998" cy="152.499" r="15"/><path d="m309.998 167.498c8.262 0 15-6.738 15-15 0-8.261-6.738-15-15-15s-15 6.738-15 15 6.739 15 15 15z"/><path d="m320.464 197.19c-6.842-4.675-16.174-2.921-20.849 3.917-4.662 6.82-12.378 10.891-20.64 10.891-8.351 0-16.112-4.141-20.765-11.076-4.616-6.88-13.935-8.716-20.813-4.101-6.88 4.615-8.717 13.933-4.102 20.813 10.233 15.256 27.31 24.364 45.679 24.364 18.175 0 35.148-8.957 45.405-23.96 4.678-6.838 2.924-16.172-3.915-20.848z"/></g></svg>