<svg xmlns="http://www.w3.org/2000/svg" viewBox="0 0 25 17"><defs><style>.cls-1{opacity:0.26;}.cls-2{fill:#fff;}</style></defs><g id="Layer_2" data-name="Layer 2"><g id="Layer_1-2" data-name="Layer 1"><g class="cls-1"><path class="cls-2" d="M0,16.73v-.25A30.83,30.83,0,0,1,3.22,15c1.2-.45,2.41-.79,3.63-1.13.52-.15,1.05-.31,1.57-.51a3.08,3.08,0,0,0,1.49-1.16,5.92,5.92,0,0,0,.67-1.33c.23-.6.4-1.23.57-1.85.23-.79.47-1.59.64-2.4s.31-1.51.48-2.25a10.57,10.57,0,0,1,.63-2,3.16,3.16,0,0,1,2.26-2A5.52,5.52,0,0,1,16.57.3c.85,0,1.69.08,2.55.12a17.15,17.15,0,0,0,4-.29L23.69,0h1.08l-.42.14a15.48,15.48,0,0,1-4,.6c-.85,0-1.71,0-2.57,0A12,12,0,0,0,15.9.82a3.36,3.36,0,0,0-1.39.49,3.81,3.81,0,0,0-1.32,1.58,9.91,9.91,0,0,0-.68,1.94c-.18.74-.33,1.49-.51,2.22-.27,1.06-.56,2.12-.85,3.17a9.42,9.42,0,0,1-.58,1.67A3.28,3.28,0,0,1,9,13.55a4.16,4.16,0,0,1-.74.28c-.74.2-1.49.39-2.24.57a25.44,25.44,0,0,0-4.33,1.48C1.15,16.15.58,16.45,0,16.73Z"/><path class="cls-2" d="M.42,17H0S0,17,0,17l.06,0A22.2,22.2,0,0,1,4.76,15c1-.3,2.09-.51,3.13-.73a6.29,6.29,0,0,0,1.33-.38,3,3,0,0,0,1.53-1.55,6.13,6.13,0,0,0,.43-1.13c.17-.6.32-1.21.48-1.82.23-.89.47-1.77.69-2.66.16-.61.3-1.21.47-1.81a7.62,7.62,0,0,1,.71-1.77,3.49,3.49,0,0,1,2.25-1.83,5.76,5.76,0,0,1,1-.17c.66,0,1.32-.06,2-.07a29,29,0,0,0,3.6-.23A14.15,14.15,0,0,0,25,.22V.55l-.08,0a17.2,17.2,0,0,1-3.75.69c-.89.07-1.79.11-2.68.16a13.87,13.87,0,0,0-1.92.19,4.24,4.24,0,0,0-1.4.52,4.23,4.23,0,0,0-1.46,1.61,8.78,8.78,0,0,0-.77,2c-.22.82-.43,1.63-.64,2.45S11.83,10,11.6,11A9.78,9.78,0,0,1,11,12.69a2.88,2.88,0,0,1-1.41,1.48,4.68,4.68,0,0,1-1.16.34c-.8.14-1.59.26-2.39.41A20.31,20.31,0,0,0,.49,17,.18.18,0,0,0,.42,17Z"/><path class="cls-2" d="M1.3,17H.83L.9,17a19.51,19.51,0,0,1,2.49-1.08,20.29,20.29,0,0,1,4.72-1,7.13,7.13,0,0,0,1.37-.23,2.65,2.65,0,0,0,1-.51,3.07,3.07,0,0,0,.88-1.3,10.22,10.22,0,0,0,.48-1.66c.34-1.67.79-3.29,1.24-4.92a9.39,9.39,0,0,1,.8-2,4.72,4.72,0,0,1,1.33-1.56A4.15,4.15,0,0,1,16.57,2a12.42,12.42,0,0,1,2.08-.3c1-.08,2-.14,3-.24a18,18,0,0,0,2.53-.42L25,.85v.31l-.05,0A23.68,23.68,0,0,1,21,1.85c-.9.1-1.81.18-2.72.27a8.14,8.14,0,0,0-1.67.35,4,4,0,0,0-1.88,1.25A6.31,6.31,0,0,0,13.61,5.8a37.26,37.26,0,0,0-1,3.65c-.18.73-.31,1.49-.46,2.23a11.09,11.09,0,0,1-.45,1.62,2.52,2.52,0,0,1-1.56,1.62,5.4,5.4,0,0,1-1.26.24l-1.64.12a16.64,16.64,0,0,0-5.31,1.44Z"/><path class="cls-2" d="M25,1.46v.32h-.06a28.47,28.47,0,0,1-2.88.51c-1,.12-1.95.24-2.92.38a9.55,9.55,0,0,0-1.89.42,5,5,0,0,0-3,2.95c-.22.52-.4,1.06-.58,1.61a19.38,19.38,0,0,0-.7,2.72c-.13.77-.25,1.54-.37,2.31a9.2,9.2,0,0,1-.37,1.57,2.24,2.24,0,0,1-1,1.24,2.45,2.45,0,0,1-.62.23,5.83,5.83,0,0,1-1.44.11c-.69,0-1.38-.05-2.08,0A13.87,13.87,0,0,0,2.35,17s0,0-.06,0H1.76l.05,0,.73-.32a14.91,14.91,0,0,1,3.74-1,15.92,15.92,0,0,1,2.29-.15,8.16,8.16,0,0,0,1.56-.14,2.34,2.34,0,0,0,1-.45A2.79,2.79,0,0,0,12,13.64,10.93,10.93,0,0,0,12.34,12c.14-.72.26-1.45.41-2.17a28,28,0,0,1,.74-2.72,12.8,12.8,0,0,1,.6-1.64A4.68,4.68,0,0,1,17,2.77a9.36,9.36,0,0,1,1.73-.37L21.83,2a25.62,25.62,0,0,0,2.6-.43Z"/><path class="cls-2" d="M25,2.06v.33h-.06l-3.32.51c-.81.13-1.63.25-2.44.4a8,8,0,0,0-1.77.53,5.07,5.07,0,0,0-2.6,2.6A16.09,16.09,0,0,0,14.2,8a14.4,14.4,0,0,0-.68,2.54c-.13.78-.2,1.58-.28,2.37-.06.6-.11,1.2-.22,1.79a4.62,4.62,0,0,1-.25.92,1.48,1.48,0,0,1-1.08,1,3.07,3.07,0,0,1-.53.07,10.17,10.17,0,0,1-1.82-.16,17,17,0,0,0-1.89-.17A11.85,11.85,0,0,0,4,16.83L3.45,17H2.8l.06,0c.36-.12.72-.26,1.08-.37a12.74,12.74,0,0,1,4.63-.49c.57.05,1.15.08,1.73.1a3.06,3.06,0,0,0,.95-.12,1.79,1.79,0,0,0,1.2-1.17,5.63,5.63,0,0,0,.3-1.14c.1-.69.2-1.38.28-2.07a18.3,18.3,0,0,1,.77-3.54,18.14,18.14,0,0,1,.77-2.06,5.1,5.1,0,0,1,1.95-2.26,6.15,6.15,0,0,1,1.67-.67,26,26,0,0,1,2.64-.46l3.4-.5C24.49,2.18,24.74,2.11,25,2.06Z"/><path class="cls-2" d="M14.53,0l0,0a3,3,0,0,0-1.82,1.81,9.45,9.45,0,0,0-.54,1.76c-.18.83-.35,1.67-.52,2.52a26.43,26.43,0,0,1-.71,2.82c-.19.62-.37,1.24-.61,1.83a5.24,5.24,0,0,1-.76,1.35,3.57,3.57,0,0,1-1.4,1,19.19,19.19,0,0,1-1.89.65c-1.32.41-2.63.84-3.92,1.37-.76.32-1.52.67-2.26,1l-.07,0V16l.06,0c.55-.26,1.11-.53,1.67-.78,1.33-.59,2.69-1.07,4.05-1.53a19.93,19.93,0,0,0,2.07-.78A4.3,4.3,0,0,0,9,12.15,4.75,4.75,0,0,0,10,10.54c.23-.53.41-1.09.59-1.65a21.17,21.17,0,0,0,.69-2.63c.16-.92.33-1.85.5-2.77a14.21,14.21,0,0,1,.47-1.95A3.7,3.7,0,0,1,13.11,0l0,0Z"/><path class="cls-2" d="M12.59,17l.11-.09a1.46,1.46,0,0,0,.36-.54,4.2,4.2,0,0,0,.3-1.22c.07-.66.12-1.31.17-2,.06-.82.12-1.65.24-2.47A13.53,13.53,0,0,1,14.5,8a15.3,15.3,0,0,1,.63-1.5,5,5,0,0,1,2.4-2.34,8,8,0,0,1,1.95-.61c.85-.16,1.7-.3,2.56-.43l2.9-.44H25V3h-.06l-2,.29c-1.06.15-2.11.29-3.15.52a9.7,9.7,0,0,0-2,.64A5,5,0,0,0,15.43,6.7a14.22,14.22,0,0,0-1.16,3.06,14.16,14.16,0,0,0-.36,2.69c-.05.88-.07,1.76-.11,2.64A8.69,8.69,0,0,1,13.56,17Z"/><path class="cls-2" d="M11.75,0h.63c-.08.18-.17.35-.25.53A8.07,8.07,0,0,0,11.73,2c-.17,1-.34,2-.49,3a19.78,19.78,0,0,1-.81,3.52c-.2.58-.38,1.17-.63,1.72a4.88,4.88,0,0,1-1.08,1.64,4.55,4.55,0,0,1-1.17.79,18.09,18.09,0,0,1-2.1.85c-1.53.56-3.07,1.13-4.57,1.83L0,15.77V15.5l.07,0c.59-.26,1.16-.55,1.75-.79l3.63-1.45a19.46,19.46,0,0,0,2-.9A4.7,4.7,0,0,0,9.59,9.88c.17-.41.33-.82.48-1.24a15,15,0,0,0,.64-2.23c.19-1,.32-2.1.46-3.16A20.66,20.66,0,0,1,11.75,0Z"/><path class="cls-2" d="M25,3.29V3.6l-1.61.19a31.9,31.9,0,0,0-3.2.54,9.34,9.34,0,0,0-2,.66,5,5,0,0,0-1.82,1.43,6.62,6.62,0,0,0-.87,1.48,11.39,11.39,0,0,0-.83,2.47,14.44,14.44,0,0,0-.24,2.46c0,1.1,0,2.2.08,3.29,0,.29,0,.59,0,.88h-.5c0-.57,0-1.14.05-1.71,0-1,0-2,0-3a13.65,13.65,0,0,1,.3-2.31,12.46,12.46,0,0,1,.95-2.65A5.41,5.41,0,0,1,17,5.31a6.05,6.05,0,0,1,1.8-.93,16.05,16.05,0,0,1,2.79-.63c1-.15,2-.27,2.94-.41Z"/><path class="cls-2" d="M15.38,17H15c-.05-.51-.1-1-.14-1.54A24.7,24.7,0,0,1,14.78,12a9.78,9.78,0,0,1,.37-2.29,11.65,11.65,0,0,1,.82-2,5.43,5.43,0,0,1,1.61-1.95,6.18,6.18,0,0,1,1.68-.85,14.87,14.87,0,0,1,3.06-.69C23,4.11,23.69,4,24.37,4c.21,0,.42,0,.63-.06v.33l-.25,0a26.8,26.8,0,0,0-3.78.5,10,10,0,0,0-2.23.73,5.18,5.18,0,0,0-1.87,1.45,7.77,7.77,0,0,0-1,1.66,8.72,8.72,0,0,0-.78,2.88,18.17,18.17,0,0,0,0,2.66C15.14,15.09,15.25,16.05,15.38,17Z"/><path class="cls-2" d="M10.83,0h.45a.17.17,0,0,0,0,.07c-.08.54-.16,1.08-.23,1.63l-.39,3.48A15.21,15.21,0,0,1,9.32,9.74,4.88,4.88,0,0,1,8,11.6a7.3,7.3,0,0,1-1.32.83c-.76.39-1.54.7-2.32,1C2.86,14,1.42,14.62,0,15.28V15l.07,0,1.62-.71c1.2-.51,2.39-1,3.58-1.53a12.14,12.14,0,0,0,1.88-1A5.28,5.28,0,0,0,9,9.59c.15-.31.28-.62.42-.93a13.43,13.43,0,0,0,1-3.75c.12-1,.2-2.09.28-3.13C10.72,1.18,10.78.59,10.83,0Z"/><path class="cls-2" d="M16,17H15.7l-.12-.77a23.77,23.77,0,0,1-.27-3.58,11.2,11.2,0,0,1,.19-2,8.87,8.87,0,0,1,1.22-3,4.85,4.85,0,0,1,1.4-1.48,6.25,6.25,0,0,1,1.3-.69,12.82,12.82,0,0,1,2.77-.71A24.07,24.07,0,0,1,25,4.53v.35a17.58,17.58,0,0,0-3.54.37,9.66,9.66,0,0,0-2.14.67,5.11,5.11,0,0,0-1.74,1.21,7.76,7.76,0,0,0-1.63,3,8.69,8.69,0,0,0-.35,2.45,17,17,0,0,0,.16,2.67C15.84,15.81,16,16.41,16,17Z"/><path class="cls-2" d="M10.1,0h.37V.13c0,.38-.05.76-.07,1.14-.05,1.1-.09,2.21-.22,3.3a14.17,14.17,0,0,1-.39,2.27,14.89,14.89,0,0,1-.88,2.31A5.77,5.77,0,0,1,7,11.45a9,9,0,0,1-1.57.93c-1,.46-2,.89-3,1.33L0,14.8v-.27l.71-.3c1.27-.56,2.55-1.12,3.81-1.69a11.69,11.69,0,0,0,2-1.1A6.32,6.32,0,0,0,8.19,9.75a12.07,12.07,0,0,0,.86-1.68A10,10,0,0,0,9.78,5.5a25.24,25.24,0,0,0,.27-3.37C10.07,1.42,10.09.71,10.1,0Z"/><path class="cls-2" d="M16.63,17h-.3v0a23.51,23.51,0,0,1-.44-3.25,12.27,12.27,0,0,1,0-2A7.46,7.46,0,0,1,16.68,9,5.78,5.78,0,0,1,18.8,6.53a8,8,0,0,1,1.93-.82A15.1,15.1,0,0,1,25,5.19v.37a12.56,12.56,0,0,0-2.6.12,10.2,10.2,0,0,0-2.58.71A5.43,5.43,0,0,0,17,9a7.43,7.43,0,0,0-.7,1.86,10.18,10.18,0,0,0-.16,2.81,22.25,22.25,0,0,0,.44,3.16S16.62,17,16.63,17Z"/><path class="cls-2" d="M9.47,0h.32s0,.05,0,.08c0,.4,0,.81,0,1.21a28.55,28.55,0,0,1-.12,3.07,14,14,0,0,1-.32,2.06,11.28,11.28,0,0,1-.64,1.74,7.06,7.06,0,0,1-2.4,3.07,13.75,13.75,0,0,1-2,1.16C3,13,1.61,13.62.24,14.2L0,14.29V14l.08,0c.82-.35,1.64-.69,2.45-1.05a26.1,26.1,0,0,0,2.59-1.3,8.66,8.66,0,0,0,1.8-1.37A8.13,8.13,0,0,0,8.48,7.91a9.06,9.06,0,0,0,.79-2.54,17.25,17.25,0,0,0,.21-2.28c0-1,0-1.92,0-2.88Z"/><path class="cls-2" d="M25,5.9v.4l-.37,0A9.15,9.15,0,0,0,22,6.38a8.08,8.08,0,0,0-2.21.73,5.9,5.9,0,0,0-2.89,3.8,7.76,7.76,0,0,0-.24,2.26A17.76,17.76,0,0,0,17,16.08c.06.31.13.61.19.92h-.3a.43.43,0,0,0,0-.11c-.08-.46-.18-.93-.26-1.39a15,15,0,0,1-.21-3.14A6.87,6.87,0,0,1,17,9.74a6.48,6.48,0,0,1,1.41-2.08,5.4,5.4,0,0,1,1.77-1.1,10.63,10.63,0,0,1,4.38-.69Z"/><path class="cls-2" d="M25,9.7v.59L24.49,10a3.48,3.48,0,0,0-2.24-.46c-1.93.25-3.17,2.24-3.25,4.06a12.25,12.25,0,0,0,.1,2c.06.46.14.93.21,1.39H19c-.05-.31-.11-.63-.16-.94a13,13,0,0,1-.2-2.41,4.8,4.8,0,0,1,1.83-3.89,3.57,3.57,0,0,1,3.91-.4C24.61,9.46,24.8,9.58,25,9.7Z"/><path class="cls-2" d="M25,7.56v.53a4.07,4.07,0,0,0-1.12-.36A5.38,5.38,0,0,0,21.19,8a5,5,0,0,0-3,3.1,5.8,5.8,0,0,0-.37,2A12,12,0,0,0,18,15.39c.09.54.2,1.08.3,1.61H18c0-.22-.09-.44-.13-.66a15.85,15.85,0,0,1-.35-2.93,6.47,6.47,0,0,1,.2-2,5.43,5.43,0,0,1,2.4-3.34,6.23,6.23,0,0,1,3.75-.83A4.29,4.29,0,0,1,25,7.56Z"/><path class="cls-2" d="M25,8.58v.58a4,4,0,0,0-3-.55,4.1,4.1,0,0,0-2.62,1.74,5.27,5.27,0,0,0-1,2.66,10.85,10.85,0,0,0,0,1.89c.08.71.2,1.41.34,2.1H18.5a21.7,21.7,0,0,1-.42-2.91,7.5,7.5,0,0,1,.11-1.95A5.26,5.26,0,0,1,20,9.1a4.4,4.4,0,0,1,1.94-.92A4.31,4.31,0,0,1,25,8.58Z"/><path class="cls-2" d="M17.73,17h-.28c-.07-.36-.15-.72-.22-1.09A16.12,16.12,0,0,1,16.94,13a6.8,6.8,0,0,1,.31-2.16,5.66,5.66,0,0,1,2.82-3.47,8.09,8.09,0,0,1,2.16-.68,7.87,7.87,0,0,1,2.47,0l.3,0v.45L24.62,7a6.41,6.41,0,0,0-2.14,0,6.91,6.91,0,0,0-2.36.74,5.55,5.55,0,0,0-2.63,3.41,6.6,6.6,0,0,0-.26,2.08A14.83,14.83,0,0,0,17.52,16Z"/><path class="cls-2" d="M8.91,0h.28c0,.37,0,.75,0,1.12A28.4,28.4,0,0,1,9.18,4c0,.55-.12,1.09-.21,1.62A8.89,8.89,0,0,1,8.18,7.9a7.93,7.93,0,0,1-2.43,3,12,12,0,0,1-1.55,1C3.12,12.46,2,13,.89,13.43L0,13.79v-.27c.79-.33,1.58-.66,2.37-1a18.23,18.23,0,0,0,2.57-1.38A8,8,0,0,0,7.77,8,9.27,9.27,0,0,0,8.5,6.33a11.27,11.27,0,0,0,.43-2.72,23.82,23.82,0,0,0,0-2.39Z"/><path class="cls-2" d="M19.86,17h-.3c0-.25-.08-.51-.11-.76a12.76,12.76,0,0,1-.15-2.14,5,5,0,0,1,.42-2,3.21,3.21,0,0,1,3.5-2.08,4.46,4.46,0,0,1,1.3.49l.48.26v.59c-.24-.12-.47-.25-.71-.36A3.8,3.8,0,0,0,23,10.63a2.63,2.63,0,0,0-2.5,1.12,4.33,4.33,0,0,0-.88,2.63,12.3,12.3,0,0,0,.11,1.92C19.79,16.53,19.82,16.77,19.86,17Z"/><path class="cls-2" d="M0,13.27V13l.07,0c.46-.19.93-.37,1.39-.57a19,19,0,0,0,2.79-1.46A8.68,8.68,0,0,0,7.36,7.52,8.18,8.18,0,0,0,8.23,5.2a14.15,14.15,0,0,0,.21-2c0-.88,0-1.75,0-2.63,0-.2,0-.41,0-.61h.27V.07c0,.42,0,.85,0,1.27a22.88,22.88,0,0,1,0,2.87,8.69,8.69,0,0,1-.87,3.17A9.57,9.57,0,0,1,6.07,9.87a9.43,9.43,0,0,1-2,1.49,24.87,24.87,0,0,1-3.2,1.56Z"/><path class="cls-2" d="M25,11.9v.57l-.12-.05A8.86,8.86,0,0,0,23.61,12a2.42,2.42,0,0,0-1.36,0,2.73,2.73,0,0,0-1.7,1.89,4.42,4.42,0,0,0-.21,1.54A14.66,14.66,0,0,0,20.43,17h-.31l-.06-.5A12,12,0,0,1,20,14.6a4,4,0,0,1,.47-1.83,2.59,2.59,0,0,1,2.4-1.59,3.24,3.24,0,0,1,1.25.31Z"/><path class="cls-2" d="M7.88,0h.26L8.2,1.32A19.8,19.8,0,0,1,8.12,4.2a7.76,7.76,0,0,1-.5,2.14,12.62,12.62,0,0,1-1,1.86,8.47,8.47,0,0,1-2.53,2.53,18.42,18.42,0,0,1-3,1.58L0,12.73v-.29l.05,0a17.08,17.08,0,0,0,3.77-1.84A9.14,9.14,0,0,0,7,7a7.66,7.66,0,0,0,.72-2A11.72,11.72,0,0,0,8,2.45C7.94,1.63,7.9.81,7.88,0Z"/><path class="cls-2" d="M0,12.17v-.33l.08,0a13.42,13.42,0,0,0,3.2-1.53A9.31,9.31,0,0,0,6.52,6.61,7.64,7.64,0,0,0,7.35,4a16.81,16.81,0,0,0,.11-2.35L7.4,0h.24a.49.49,0,0,1,0,.12c0,.37,0,.73,0,1.09A19.43,19.43,0,0,1,7.63,4a7.81,7.81,0,0,1-.47,2,9.46,9.46,0,0,1-3.4,4.36,14.48,14.48,0,0,1-3.07,1.6Z"/><path class="cls-2" d="M0,11.55v-.34H0A10.15,10.15,0,0,0,2.72,10,9.34,9.34,0,0,0,6.13,6.07a7.56,7.56,0,0,0,.7-2.17A14.34,14.34,0,0,0,7,1.63C7,1.08,6.93.54,6.91,0h.26V.09l0,.62a19.87,19.87,0,0,1,0,2.78,7.45,7.45,0,0,1-.42,2A9.77,9.77,0,0,1,4.12,9.31,10.87,10.87,0,0,1,1.46,11,10.68,10.68,0,0,1,0,11.55Z"/><path class="cls-2" d="M6,0h.26a2.44,2.44,0,0,1,0,.27,20.2,20.2,0,0,1-.05,2.46,6.93,6.93,0,0,1-.41,1.92A9.67,9.67,0,0,1,3.44,8.24,6.85,6.85,0,0,1,0,10.11V9.63H.09A5.18,5.18,0,0,0,2,8.9,8.53,8.53,0,0,0,5.15,5.24a7.33,7.33,0,0,0,.66-1.93A15.91,15.91,0,0,0,6,0Z"/><path class="cls-2" d="M0,10.88v-.4l.14,0A8.52,8.52,0,0,0,5.55,5.87a7.9,7.9,0,0,0,.66-1.7A9.44,9.44,0,0,0,6.47,2c0-.66,0-1.32,0-2h.24a22.61,22.61,0,0,1,0,3.08A7,7,0,0,1,6.29,5,10,10,0,0,1,4.06,8.54a8.91,8.91,0,0,1-2.74,1.87A7.17,7.17,0,0,1,0,10.88Z"/><path class="cls-2" d="M0,9.19V8.66l.3,0a4.55,4.55,0,0,0,2.09-1A8,8,0,0,0,4.47,5.08,7.88,7.88,0,0,0,5.27,3a10.93,10.93,0,0,0,.2-1.9c0-.37,0-.75,0-1.12h.26V.09c0,.65,0,1.3,0,2A7.46,7.46,0,0,1,5.35,4,9.68,9.68,0,0,1,3.28,7.4,6.2,6.2,0,0,1,.85,9,3.15,3.15,0,0,1,0,9.19Z"/><path class="cls-2" d="M0,8.15V7.57H.05a3.62,3.62,0,0,0,2.13-.88A7.4,7.4,0,0,0,4,4.37a7.67,7.67,0,0,0,.7-1.78A9.51,9.51,0,0,0,5,.67C5,.44,5,.22,5,0h.28s0,.06,0,.09c0,.49,0,1,0,1.47a6.57,6.57,0,0,1-.33,1.82A8.79,8.79,0,0,1,2.66,6.9a4.34,4.34,0,0,1-2,1.16C.45,8.11.22,8.12,0,8.15Z"/><path class="cls-2" d="M21.06,17h-.34a.76.76,0,0,1,0-.15,11.53,11.53,0,0,1,0-1.44,3.83,3.83,0,0,1,.42-1.64,2.26,2.26,0,0,1,1.55-1.25,2.48,2.48,0,0,1,1.18.07c.39.11.77.25,1.16.38v.55l-.08,0a6.32,6.32,0,0,0-1.34-.3,2,2,0,0,0-1.21.23,2.58,2.58,0,0,0-1.2,1.8,6.08,6.08,0,0,0-.11,1.48Z"/><path class="cls-2" d="M4.43,0h.28c0,.31,0,.62,0,.93a7,7,0,0,1-.28,1.66,7.88,7.88,0,0,1-2,3.31,3.79,3.79,0,0,1-1.68,1C.48,7,.24,7,0,7V6.37H.18a3.21,3.21,0,0,0,1.63-.68A7,7,0,0,0,4.09,2.3,8.48,8.48,0,0,0,4.43,0Z"/><path class="cls-2" d="M0,5.79V5.12H.08a2.88,2.88,0,0,0,1.15-.4A4.58,4.58,0,0,0,2.62,3.36,6.49,6.49,0,0,0,3.78.43L3.84,0h.31V0a7.79,7.79,0,0,1-.27,1.74A7,7,0,0,1,2.3,4.59,3.59,3.59,0,0,1,.58,5.7,5.81,5.81,0,0,1,0,5.79Z"/><path class="cls-2" d="M21.39,17a5.49,5.49,0,0,1,.19-1.51,2.5,2.5,0,0,1,.89-1.32,2,2,0,0,1,1.05-.35A5,5,0,0,1,24.9,14l.1,0v.58h0a4.53,4.53,0,0,0-1.1-.08,2,2,0,0,0-1.13.42A2.79,2.79,0,0,0,21.8,17Z"/><path class="cls-2" d="M0,3.79l.33-.08A3.71,3.71,0,0,0,2.16,2.24,6,6,0,0,0,3.15,0h.38a6.28,6.28,0,0,1-.67,2.11A5.25,5.25,0,0,1,1.2,4.05,2.79,2.79,0,0,1,0,4.5Z"/><path class="cls-2" d="M22.21,17a2.37,2.37,0,0,1,.22-.65A2.11,2.11,0,0,1,24,15.14a4.21,4.21,0,0,1,.94,0H25v.6a3,3,0,0,0-.89.13,2.07,2.07,0,0,0-1.1.79c-.08.11-.15.25-.22.37Z"/><path class="cls-2" d="M4.15,17l.45-.12a10.64,10.64,0,0,1,2.86-.27,11.91,11.91,0,0,1,1.89.24L10,17l.06,0H8.39l-.07,0a9.59,9.59,0,0,0-2.78,0l-.25,0Z"/><path class="cls-2" d="M22.25,0l-.4.06A16.51,16.51,0,0,1,19,.1L17.88,0h4.37Z"/></g></g></g></svg>