<svg xmlns="http://www.w3.org/2000/svg" viewBox="0 0 512.01 512.01"><defs><style>.cls-1{fill:none;}</style></defs><g id="Layer_2" data-name="Layer 2"><g id="bold"><polygon class="cls-1" points="149.33 256 149.34 256 149.33 256 149.33 256"/><polygon class="cls-1" points="64 256 64 256 64 256 64 256"/><circle class="cls-1" cx="362.67" cy="362.67" r="64"/><path d="M505.75,475.58,451.56,421.4a107,107,0,1,0-30.16,30.16l54.18,54.19a21.33,21.33,0,0,0,30.17-30.17ZM362.67,426.67a64,64,0,1,1,64-64A64.08,64.08,0,0,1,362.67,426.67Z"/><path d="M405.33,0H64a64,64,0,0,0,0,128H405.33a64,64,0,0,0,0-128Z"/><path d="M405.33,170.67H64a64,64,0,0,0,0,128H227.84a149.08,149.08,0,0,1,238.08-43.74,58.5,58.5,0,0,0,3.41-20.26A63.91,63.91,0,0,0,405.33,170.67ZM64,256Zm85.33,0Z"/><path d="M213.33,362.67A118.35,118.35,0,0,1,215,341.33H64a64,64,0,0,0,0,128H258.35A148.65,148.65,0,0,1,213.33,362.67Z"/></g></g></svg>