<?xml version="1.0" encoding="UTF-8"?>
<svg xmlns="http://www.w3.org/2000/svg" width="413" height="150" viewBox="0 0 413 150" fill="none"> <path opacity="0.4" d="M155.583 64.623C155.758 64.7988 155.846 65.0332 155.846 65.3262C155.846 65.5605 155.758 65.7949 155.583 66.0293C152.946 68.373 150.133 70.4238 147.145 72.1816C141.051 75.6973 134.518 77.9531 127.546 78.9492C125.553 79.2422 123.708 79.2129 122.008 78.8613C120.309 78.5098 118.815 77.5137 117.526 75.873C116.354 74.4668 115.329 73.0312 114.45 71.5664C114.333 71.332 114.215 71.0977 114.098 70.8633C113.512 69.8086 112.809 68.8125 111.989 67.875C111.169 66.8789 110.172 66.3516 109.001 66.293C107.067 67.582 105.426 69.252 104.079 71.3027C103.786 71.7129 103.493 72.123 103.2 72.5332C102.262 73.7637 101.325 75.0234 100.387 76.3125C98.3365 79.4766 95.9342 82.377 93.1803 85.0137C91.0123 86.1855 89.3131 85.834 88.0826 83.959C86.9107 82.084 86.0611 79.3887 85.5338 75.873C85.065 72.3574 84.8307 68.6953 84.8307 64.8867C81.5494 69.1641 78.3268 73.5 75.1627 77.8945C72.3502 81.7617 69.5084 85.6289 66.6373 89.4961C66.1685 90.1406 65.6998 90.7559 65.231 91.3418C63.649 93.5684 61.9498 95.707 60.1334 97.7578C60.0748 97.8164 60.0162 97.875 59.9576 97.9336C59.7818 98.0508 59.606 98.168 59.4303 98.2852C59.3131 98.4609 59.108 98.5781 58.815 98.6367C58.4049 98.7539 57.9947 98.6953 57.5846 98.4609C57.1744 98.2266 56.94 97.9043 56.8814 97.4941C56.8228 96.498 56.94 95.5605 57.233 94.6816C57.2916 94.5059 57.3209 94.3301 57.3209 94.1543C58.4342 90.5801 59.7818 87.0645 61.3639 83.6074C63.2389 79.7402 64.7037 75.7266 65.7584 71.5664C66.11 69.8672 66.0514 68.4023 65.5826 67.1719C64.4107 65.2383 61.2467 63.7734 56.0904 62.7773C50.9928 61.7227 45.3092 61.0488 39.0396 60.7559C32.8287 60.4043 27.4967 60.2871 23.0435 60.4043C25.3287 64.0371 25.9732 68.6367 24.9771 74.2031C23.981 79.7695 22.2818 84.0176 19.8795 86.9473C17.2428 90.4629 13.7564 92.7188 9.4205 93.7148C6.13925 93.7148 3.7955 92.6016 2.38925 90.375C0.924408 88.0898 0.162689 85.3945 0.104095 82.2891C0.0455017 79.1836 0.397064 76.4297 1.15878 74.0273C2.15488 70.3359 3.8248 66.9668 6.16855 63.9199C8.5123 60.8145 11.4127 58.4121 14.8697 56.7129C16.5689 56.0684 17.8873 56.3027 18.8248 57.416C18.8248 57.416 18.7955 57.4453 18.7369 57.5039C18.7955 57.5039 18.8248 57.5039 18.8248 57.5039C18.8834 57.5039 18.942 57.5039 19.0006 57.5039C19.9381 57.5039 20.9928 57.5039 22.1646 57.5039C26.7935 57.3281 32.3307 57.3281 38.776 57.5039C45.2799 57.6211 51.3443 58.2656 56.9693 59.4375C62.5943 60.5508 66.4908 62.543 68.6588 65.4141C69.7135 67.2305 70.0943 69.3398 69.8014 71.7422C69.567 74.1445 69.0103 76.5469 68.1314 78.9492C68.9518 77.543 69.7721 76.1367 70.5924 74.7305C75.5143 66.1172 80.7291 57.6797 86.2369 49.418C87.233 48.2461 88.3463 47.6895 89.5768 47.748C90.8658 47.8066 91.9205 48.3047 92.7408 49.2422C93.6197 50.1211 93.9713 51.3223 93.7955 52.8457C93.0338 56.1855 92.5064 59.9355 92.2135 64.0957C91.9791 68.2559 92.1256 72.2402 92.6529 76.0488C93.1803 75.4629 93.7076 74.8184 94.235 74.1152C96.2271 71.5371 98.3658 69.0469 100.651 66.6445C102.995 64.2422 105.251 62.6895 107.419 61.9863C109.587 61.2246 111.491 62.0449 113.131 64.4473C114.128 66.498 115.182 68.5195 116.296 70.5117C116.354 70.5703 116.413 70.6582 116.471 70.7754C117.526 72.9434 118.903 74.7891 120.602 76.3125C122.008 77.25 123.737 77.6602 125.788 77.543C127.838 77.4258 129.743 77.1621 131.501 76.752C131.794 76.6934 132.087 76.6348 132.379 76.5762C140.758 74.584 148.053 70.5996 154.264 64.623C154.44 64.4473 154.645 64.3594 154.879 64.3594C155.172 64.3594 155.407 64.4473 155.583 64.623ZM8.98105 89.6719C13.317 88.6758 16.5396 86.2148 18.649 82.2891C20.817 78.3633 21.9596 74.2617 22.0768 69.9844C22.1353 68.4609 22.0182 66.8789 21.7252 65.2383C21.4908 63.5977 20.817 62.2793 19.7037 61.2832C19.4107 61.9863 18.8248 62.5723 17.9459 63.041C14.7232 64.7402 12.1158 67.1426 10.1236 70.248C8.13144 73.2949 6.87167 76.6055 6.34433 80.1797C6.16855 81.1172 6.08066 82.3184 6.08066 83.7832C6.08066 85.1895 6.28574 86.4785 6.69589 87.6504C7.10605 88.7637 7.86777 89.4375 8.98105 89.6719ZM18.8248 57.416C18.8834 57.3574 18.9127 57.3574 18.9127 57.416C18.9713 57.416 19.0006 57.4453 19.0006 57.5039C18.942 57.4453 18.8834 57.416 18.8248 57.416ZM156.68 116.039L157.822 113.227C159.931 108.891 161.045 104.906 161.162 101.273C161.162 100.512 161.103 99.7793 160.986 99.0762C156.826 102.299 153.193 106.283 150.088 111.029C145.928 117.299 143.086 123.568 141.562 129.838C141.504 129.896 141.474 129.984 141.474 130.102C141.181 131.859 140.976 133.822 140.859 135.99C140.742 138.158 141.094 140.062 141.914 141.703C148.887 131.684 153.808 123.129 156.68 116.039ZM174.873 90.2871C178.681 89.7012 183.281 88.3242 188.672 86.1562C194.004 83.9297 198.984 81.498 203.613 78.8613C208.242 76.2246 211.435 74.2324 213.193 72.8848C216.533 70.541 219.492 67.7871 222.07 64.623C222.305 64.3301 222.597 64.1836 222.949 64.1836C223.242 64.125 223.506 64.1836 223.74 64.3594C224.326 65.0625 224.267 65.8535 223.564 66.7324C222.803 67.6113 221.924 68.4609 220.928 69.2812C220.224 69.8672 219.726 70.3359 219.433 70.6875C217.207 72.6797 213.515 75.3164 208.359 78.5977C203.203 81.8789 197.549 84.9258 191.396 87.7383C185.244 90.5508 179.619 92.25 174.521 92.8359C174.228 92.8945 173.525 93.041 172.412 93.2754C171.299 93.5098 169.892 94.0078 168.193 94.7695C168.545 95.707 168.808 96.7031 168.984 97.7578C169.453 101.332 169.043 105.053 167.754 108.92L167.314 110.062C166.377 112.582 165.293 115.102 164.062 117.621C163.183 119.555 162.305 121.283 161.426 122.807C156.797 131.537 151.435 140.004 145.342 148.207C144.638 149.086 143.73 149.584 142.617 149.701C141.562 149.76 140.625 149.438 139.805 148.734C138.457 147.27 137.607 144.633 137.256 140.824C136.963 136.957 137.373 133.148 138.486 129.398C140.537 122.484 143.994 115.6 148.857 108.744C152.197 104.057 156.035 100.102 160.371 96.8789C159.668 95.1211 158.408 93.5684 156.592 92.2207C155.01 90.9902 154.658 89.6133 155.537 88.0898C156.416 86.5664 157.851 84.8379 159.844 82.9043C161.777 81.0293 163.594 78.9199 165.293 76.5762C167.051 74.2324 168.105 71.5957 168.457 68.666C168.75 64.7988 168.076 62.25 166.435 61.0195C164.795 59.7891 162.246 60.5508 158.789 63.3047C157.969 63.9492 157.236 64.623 156.592 65.3262C156.357 65.5605 156.094 65.6484 155.801 65.5898C155.508 65.5312 155.303 65.3848 155.185 65.1504C155.068 64.8574 155.127 64.5645 155.361 64.2715C158.642 60.1113 161.689 57.8848 164.502 57.5918C167.373 57.2988 169.57 58.4707 171.094 61.1074C172.676 63.7441 173.174 67.3184 172.588 71.8301C171.943 74.877 170.771 77.7773 169.072 80.5312C167.431 83.2266 165.615 85.8047 163.623 88.2656C165.146 89.6719 166.347 91.1367 167.226 92.6602C169.453 91.4883 172.002 90.6973 174.873 90.2871ZM146.438 59.1738L146.351 59.2617C146.409 59.2617 146.438 59.291 146.438 59.3496V59.1738ZM232.923 59.3496C232.923 59.291 232.894 59.2617 232.835 59.2617L232.923 59.1738V59.3496ZM235.647 73.6758C236.468 74.2031 236.995 74.7598 237.229 75.3457C237.347 76.2246 237.229 77.1328 236.878 78.0703C235.823 80.8828 234.095 83.5781 231.692 86.1562C229.231 88.7344 226.155 90.9609 222.464 92.8359C222.405 90.7266 222.698 88.6172 223.343 86.5078C223.987 84.3984 224.808 82.2598 225.804 80.0918L227.649 75.5215L228.968 72.1816C230.315 72.2402 231.722 72.416 233.187 72.709H233.274C234.095 72.7676 234.886 73.0898 235.647 73.6758ZM248.392 80.6191C248.45 81.0293 248.538 81.4395 248.655 81.8496C249.007 83.1387 249.534 84.252 250.237 85.1895C252.288 87.5332 255.511 88.8223 259.905 89.0566C265.179 88.5879 270.364 86.2441 275.462 82.0254C280.208 78.4512 284.69 74.5547 288.909 70.3359L292.776 66.6445C293.245 66.1758 293.392 65.707 293.216 65.2383C293.04 64.8281 292.718 64.5645 292.249 64.4473C291.78 64.3301 291.312 64.5059 290.843 64.9746C288.792 67.4941 286.595 69.8965 284.251 72.1816C279.563 76.8691 274.378 80.8535 268.694 84.1348C265.12 86.3027 261.575 87.123 258.06 86.5957C255.95 86.2441 254.251 85.2773 252.962 83.6953C252.2 82.4062 251.731 81.0879 251.556 79.7402C251.204 76.1074 251.937 72.5039 253.753 68.9297C255.628 65.3555 257.942 62.1328 260.696 59.2617C261.458 58.1484 261.692 57.0938 261.399 56.0977C261.048 55.1602 260.374 54.5156 259.378 54.1641C258.382 53.8125 257.356 54.1348 256.302 55.1309C253.606 58.4707 251.438 62.3379 249.798 66.7324C248.743 69.8965 248.157 72.8555 248.04 75.6094C245.755 81.2344 242.708 85.1016 238.899 87.2109C237.962 87.5625 237.024 87.8848 236.087 88.1777C235.149 88.4707 234.417 88.6758 233.89 88.793C236.644 86.4492 238.812 84.1934 240.394 82.0254C242.444 79.2715 243.411 76.5176 243.294 73.7637C242.825 72.5918 241.946 71.4785 240.657 70.4238H240.745L236.966 68.666C235.149 68.1973 233.128 68.2559 230.901 68.8418L230.462 68.9297C230.872 68.0508 231.604 66.3809 232.659 63.9199C233.011 63.0996 233.362 62.1914 233.714 61.1953C234.124 59.6719 233.86 58.5 232.923 57.6797C231.985 56.918 230.872 56.625 229.583 56.8008C228.353 56.9766 227.474 57.7676 226.946 59.1738C226.478 60.8145 225.481 63.627 223.958 67.6113C221.673 72.8848 219.944 77.7773 218.772 82.2891C217.19 88.3828 217.483 92.6602 219.651 95.1211C220.765 95.707 222.142 95.6777 223.782 95.0332C225.247 94.4473 226.712 93.7148 228.177 92.8359C229.759 92.0742 231.517 91.6348 233.45 91.5176C240.071 90.4629 245.052 86.8301 248.392 80.6191ZM342.037 64.5352C342.33 64.2422 342.623 64.1543 342.916 64.2715C343.209 64.3887 343.385 64.5938 343.444 64.8867C343.561 65.1797 343.473 65.4434 343.18 65.6777C337.848 69.7207 332.223 73.2363 326.305 76.2246C320.387 79.2129 314.381 81.8789 308.287 84.2227C306.94 84.6914 305.533 85.2188 304.069 85.8047C304.01 85.8047 303.981 85.8047 303.981 85.8047C305.153 87.5625 305.914 89.4375 306.266 91.4297C306.207 95.8828 305.035 100.16 302.75 104.262C300.524 108.363 297.858 112.084 294.752 115.424C294.694 115.482 294.606 115.57 294.488 115.688C293.492 116.684 292.145 117.914 290.445 119.379C288.688 120.844 286.959 121.986 285.26 122.807C283.502 123.627 282.125 123.51 281.129 122.455C279.137 118.354 279.166 111.527 281.217 101.977C283.268 92.4258 286.403 81.9082 290.621 70.4238C294.781 58.9395 299.029 48.2461 303.365 38.3438C307.76 28.4414 311.217 21.0879 313.737 16.2832C314.264 15.4043 314.762 14.5254 315.231 13.6465C316.461 11.3027 317.809 9.04688 319.274 6.87891C320.738 4.65234 322.555 2.71875 324.723 1.07812C325.836 0.257813 326.92 0.140625 327.975 0.726562C329.029 1.3125 329.498 2.25 329.381 3.53906C328.092 9.98438 326.422 16.2832 324.371 22.4355C320.153 34.0957 314.557 45.1406 307.584 55.5703C307.526 55.6875 307.379 55.8926 307.145 56.1855C306.5 57.123 305.445 58.6465 303.981 60.7559C302.574 62.8066 301.08 64.8281 299.498 66.8203C297.565 71.918 295.69 77.0449 293.873 82.2012C294.049 82.1426 294.225 82.084 294.401 82.0254C296.627 81.3809 298.619 81.5566 300.377 82.5527C306.998 82.2598 314.557 80.1504 323.053 76.2246C331.549 72.2402 337.877 68.3438 342.037 64.5352ZM323.756 12.8555C320.944 17.543 318.453 22.4062 316.285 27.4453C315.348 29.4375 314.381 31.4297 313.385 33.4219C309.342 42.4453 305.533 51.5273 301.959 60.668C311.041 48.7734 317.662 35.8242 321.822 21.8203C321.94 21.3516 322.057 20.8535 322.174 20.3262C322.936 17.8652 323.463 15.375 323.756 12.8555ZM296.422 88.5293L296.334 88.4414C295.865 88.5586 295.367 88.6758 294.84 88.793C293.551 88.6758 292.672 88.1191 292.203 87.123C291.617 88.8223 291.061 90.5508 290.533 92.3086C289.83 94.6523 289.098 96.9961 288.336 99.3398C287.223 102.621 286.256 105.902 285.436 109.184C284.615 112.523 284.176 115.863 284.117 119.203C287.926 116.625 291.149 113.432 293.785 109.623C296.422 105.814 298.356 101.771 299.586 97.4941C299.996 96.0293 300.172 94.5938 300.113 93.1875C299.938 92.25 299.469 91.2832 298.707 90.2871C298.004 89.291 297.242 88.7051 296.422 88.5293ZM265.351 59.1738L265.263 59.2617C265.322 59.2617 265.351 59.291 265.351 59.3496V59.1738ZM351.835 59.3496C351.835 59.291 351.806 59.2617 351.747 59.2617L351.835 59.1738V59.3496ZM354.56 73.6758C355.38 74.2031 355.908 74.7598 356.142 75.3457C356.259 76.2246 356.142 77.1328 355.79 78.0703C354.736 80.8828 353.007 83.5781 350.605 86.1562C348.144 88.7344 345.068 90.9609 341.376 92.8359C341.318 90.7266 341.611 88.6172 342.255 86.5078C342.9 84.3984 343.72 82.2598 344.716 80.0918L346.562 75.5215L347.88 72.1816C349.228 72.2402 350.634 72.416 352.099 72.709H352.187C353.007 72.7676 353.798 73.0898 354.56 73.6758ZM367.304 80.6191C367.363 81.0293 367.451 81.4395 367.568 81.8496C367.919 83.1387 368.447 84.252 369.15 85.1895C371.201 87.5332 374.423 88.8223 378.818 89.0566C384.091 88.5879 389.277 86.2441 394.374 82.0254C399.12 78.4512 403.603 74.5547 407.822 70.3359L411.689 66.6445C412.158 66.1758 412.304 65.707 412.128 65.2383C411.953 64.8281 411.63 64.5645 411.161 64.4473C410.693 64.3301 410.224 64.5059 409.755 64.9746C407.704 67.4941 405.507 69.8965 403.163 72.1816C398.476 76.8691 393.29 80.8535 387.607 84.1348C384.033 86.3027 380.488 87.123 376.972 86.5957C374.863 86.2441 373.163 85.2773 371.874 83.6953C371.113 82.4062 370.644 81.0879 370.468 79.7402C370.117 76.1074 370.849 72.5039 372.665 68.9297C374.54 65.3555 376.855 62.1328 379.609 59.2617C380.37 58.1484 380.605 57.0938 380.312 56.0977C379.96 55.1602 379.286 54.5156 378.29 54.1641C377.294 53.8125 376.269 54.1348 375.214 55.1309C372.519 58.4707 370.351 62.3379 368.71 66.7324C367.656 69.8965 367.07 72.8555 366.953 75.6094C364.667 81.2344 361.62 85.1016 357.812 87.2109C356.874 87.5625 355.937 87.8848 354.999 88.1777C354.062 88.4707 353.329 88.6758 352.802 88.793C355.556 86.4492 357.724 84.1934 359.306 82.0254C361.357 79.2715 362.324 76.5176 362.206 73.7637C361.738 72.5918 360.859 71.4785 359.57 70.4238H359.658L355.878 68.666C354.062 68.1973 352.04 68.2559 349.814 68.8418L349.374 68.9297C349.785 68.0508 350.517 66.3809 351.572 63.9199C351.923 63.0996 352.275 62.1914 352.626 61.1953C353.036 59.6719 352.773 58.5 351.835 57.6797C350.898 56.918 349.785 56.625 348.495 56.8008C347.265 56.9766 346.386 57.7676 345.859 59.1738C345.39 60.8145 344.394 63.627 342.87 67.6113C340.585 72.8848 338.857 77.7773 337.685 82.2891C336.103 88.3828 336.396 92.6602 338.564 95.1211C339.677 95.707 341.054 95.6777 342.695 95.0332C344.16 94.4473 345.624 93.7148 347.089 92.8359C348.671 92.0742 350.429 91.6348 352.363 91.5176C358.984 90.4629 363.964 86.8301 367.304 80.6191Z" fill="#E0BD60"/> </svg>